<svg xmlns="http://www.w3.org/2000/svg" xmlns:xlink="http://www.w3.org/1999/xlink" width="480" zoomAndPan="magnify" viewBox="0 0 360 359.999987" height="480" preserveAspectRatio="xMidYMid meet" version="1.0"><defs><clipPath id="f4ac7b3ab8"><path d="M 36 36 L 324 36 L 324 324 L 36 324 Z M 36 36 " clip-rule="nonzero"/></clipPath></defs><rect x="-36" width="432" fill="#ffffff" y="-35.999999" height="431.999984" fill-opacity="1"/><rect x="-36" width="432" fill="#ffffff" y="-35.999999" height="431.999984" fill-opacity="1"/><g clip-path="url(#f4ac7b3ab8)"><path fill="#f79814" d="M 324.027344 180.011719 C 255.359375 166.144531 251.609375 153.148438 304.347656 107.339844 C 238.53125 130.824219 229.207031 121.496094 252.691406 55.683594 C 206.878906 108.417969 193.882812 104.671875 180.011719 36 C 166.144531 104.671875 153.148438 108.417969 107.339844 55.683594 C 130.824219 121.496094 121.496094 130.824219 55.683594 107.339844 C 108.417969 153.148438 104.671875 166.144531 36 180.011719 C 104.671875 193.882812 108.417969 206.878906 55.683594 252.691406 C 121.496094 229.203125 130.824219 238.53125 107.339844 304.34375 C 153.148438 251.609375 166.144531 255.355469 180.011719 324.03125 C 193.882812 255.355469 206.878906 251.609375 252.691406 304.34375 C 229.207031 238.53125 238.53125 229.203125 304.347656 252.691406 C 251.609375 206.878906 255.359375 193.882812 324.027344 180.011719 " fill-opacity="1" fill-rule="nonzero"/></g><path fill="#f68712" d="M 164.097656 99.390625 C 172.144531 94.566406 178.105469 86.394531 180.25 77.261719 C 181.804688 84.546875 185.234375 91.765625 191.289062 96.097656 C 197.347656 100.433594 206.371094 101.078125 212.011719 96.210938 C 211.410156 97.957031 211.1875 99.828125 211.355469 101.660156 C 215.5 103.496094 220.308594 100.734375 223.207031 97.253906 C 226.101562 93.773438 228.046875 89.464844 231.511719 86.550781 C 229.40625 93.578125 227.292969 101.050781 229.203125 108.132812 C 231.113281 115.214844 238.75 121.277344 245.625 118.726562 C 243.230469 120.855469 241.445312 123.667969 240.546875 126.746094 C 247.929688 132.773438 259.125 133.605469 267.320312 128.734375 C 262.476562 133 258.390625 138.441406 257.039062 144.753906 C 255.6875 151.066406 257.53125 158.292969 262.644531 162.230469 C 262.644531 162.394531 263.085938 162.609375 263.085938 162.765625 C 270.050781 171.699219 280.042969 177.375 291.242188 179.066406 C 281.394531 180.523438 271.757812 185.460938 266.21875 193.734375 C 260.675781 202.003906 260.011719 213.761719 265.953125 221.75 C 264.375 221.425781 262.796875 221.101562 261.21875 220.78125 C 259.621094 223.34375 261.539062 226.628906 263.59375 228.84375 C 266.820312 232.332031 270.566406 235.34375 274.671875 237.738281 C 270.132812 235.425781 265.476562 233.078125 260.417969 232.488281 C 255.359375 231.902344 247.09375 231.4375 244.128906 235.578125 C 235.351562 247.84375 230.550781 262.769531 234.746094 277.257812 C 228.867188 270.664062 221.144531 265.738281 212.6875 263.175781 C 209 262.058594 205 261.390625 201.316406 262.527344 C 194.515625 264.625 190.914062 272.070312 189.441406 279.03125 C 188.8125 277.332031 188.796875 275.417969 187.945312 273.816406 C 187.09375 272.210938 184.800781 271.113281 183.472656 272.351562 C 182.945312 272.84375 182.722656 273.574219 182.527344 274.269531 C 180.238281 282.492188 179.238281 291.003906 178.242188 299.480469 C 177.269531 290.789062 175.683594 282.167969 173.515625 273.695312 C 171.222656 264.765625 158.226562 260.238281 149.121094 261.699219 C 140.019531 263.15625 132.105469 269.03125 126.292969 276.183594 C 128.046875 271.128906 129.808594 266.023438 130.445312 260.710938 C 131.078125 255.394531 130.5 249.78125 127.816406 245.15625 C 124.925781 240.171875 119.824219 236.753906 114.375 234.902344 C 108.917969 233.046875 103.09375 232.617188 97.335938 232.476562 C 95.074219 232.421875 92.6875 232.441406 90.710938 233.542969 C 95.003906 228.648438 95.113281 221.972656 96.039062 215.527344 C 97.28125 206.859375 97.605469 197.308594 92.578125 190.136719 C 87.917969 183.484375 79.746094 180.433594 72.078125 177.753906 C 79.867188 179.109375 88.125 175.652344 93.234375 169.621094 C 98.347656 163.585938 100.421875 155.289062 99.558594 147.425781 C 98.59375 138.640625 94.042969 130.304688 87.175781 124.738281 C 90.222656 126.1875 93.265625 127.636719 96.308594 129.085938 C 99.003906 130.367188 102.039062 131.679688 104.882812 130.757812 C 107.722656 129.835938 109.246094 125.417969 106.703125 123.855469 C 108.917969 126.957031 113.722656 127.210938 117.027344 125.300781 C 120.328125 123.394531 122.390625 119.914062 123.953125 116.4375 C 128 107.460938 129.699219 97.441406 128.851562 87.632812 C 133.921875 96.089844 144.652344 99.542969 154.496094 100.101562 C 157.820312 100.289062 161.246094 101.101562 164.097656 99.390625 " fill-opacity="1" fill-rule="nonzero"/><path fill="#fabe11" d="M 255.359375 180.011719 C 255.359375 138.402344 221.625 104.671875 180.011719 104.671875 C 138.402344 104.671875 104.671875 138.402344 104.671875 180.011719 C 104.671875 221.625 138.402344 255.355469 180.011719 255.355469 C 221.625 255.355469 255.359375 221.625 255.359375 180.011719 " fill-opacity="1" fill-rule="nonzero"/><path fill="#fddd10" d="M 236.71875 167.410156 C 236.71875 197.816406 212.066406 222.46875 181.65625 222.46875 C 151.25 222.46875 126.601562 197.816406 126.601562 167.410156 C 126.601562 137 151.25 112.351562 181.65625 112.351562 C 212.066406 112.351562 236.71875 137 236.71875 167.410156 " fill-opacity="1" fill-rule="nonzero"/></svg>