<svg xmlns="http://www.w3.org/2000/svg" xmlns:xlink="http://www.w3.org/1999/xlink" width="480" zoomAndPan="magnify" viewBox="0 0 360 359.999987" height="480" preserveAspectRatio="xMidYMid meet" version="1.0"><rect x="-36" width="432" fill="#ffffff" y="-35.999999" height="431.999984" fill-opacity="1"/><rect x="-36" width="432" fill="#ffffff" y="-35.999999" height="431.999984" fill-opacity="1"/><path fill="#004aad" d="M 64.605469 155.402344 C 76.996094 151.898438 90.296875 148.007812 103.664062 144.4375 C 113.007812 141.90625 120.726562 136.71875 127.800781 130.425781 C 132.730469 126.011719 135.910156 120.042969 136.882812 113.488281 C 139.671875 96.230469 142.203125 78.90625 144.800781 61.648438 C 145.511719 56.976562 145.902344 52.304688 146.875 47.699219 C 147.523438 44.390625 148.5625 40.820312 152.714844 40.171875 C 156.609375 39.589844 158.101562 43.027344 159.722656 45.492188 C 165.757812 54.640625 171.335938 64.113281 177.5 73.132812 C 182.238281 80.011719 187.6875 86.304688 192.683594 93.050781 C 200.402344 103.5625 211.304688 107.714844 223.761719 108.882812 C 234.855469 109.921875 245.628906 107.714844 256.269531 104.988281 C 270.414062 101.355469 284.425781 97.203125 298.570312 93.441406 C 302.789062 92.273438 307.65625 90.519531 310.964844 94.738281 C 314.078125 98.761719 311.09375 102.847656 308.824219 106.222656 C 304.929688 112.0625 300.386719 117.511719 296.367188 123.285156 C 290.980469 131.007812 285.207031 138.46875 280.664062 146.644531 C 271.125 163.707031 269.246094 181.550781 276.964844 200.109375 C 282.738281 213.929688 290.527344 226.578125 298.636719 239.039062 C 300.90625 242.542969 303.632812 245.914062 305.125 249.742188 C 306.164062 252.597656 306.097656 255.710938 305.058594 258.566406 C 303.761719 261.746094 300.0625 260.839844 297.339844 260.1875 C 287.410156 257.851562 277.550781 255.324219 267.6875 252.792969 C 256.007812 249.808594 244.199219 248.054688 232.066406 248.769531 C 220.90625 249.417969 211.042969 253.3125 202.933594 260.773438 C 190.800781 271.867188 179.121094 283.351562 167.445312 294.902344 C 162.449219 299.832031 158.035156 305.347656 153.300781 310.601562 C 151.9375 312.160156 150.378906 313.585938 148.886719 315.015625 C 145.902344 317.738281 142.59375 320.402344 138.441406 318.453125 C 134.546875 316.574219 134.808594 312.355469 134.808594 308.785156 C 134.871094 303.597656 135.066406 298.339844 135.652344 293.148438 C 137.46875 277.707031 136.039062 262.394531 133.964844 247.148438 C 131.5 228.851562 121.117188 215.484375 107.296875 204.390625 C 97.242188 196.410156 86.144531 190.117188 74.464844 184.730469 C 66.875 181.292969 59.347656 177.59375 52.339844 173.117188 C 45.917969 169.027344 46.242188 165.527344 52.601562 161.308594 C 55.84375 158.972656 59.933594 157.609375 64.605469 155.402344 Z M 64.605469 155.402344 " fill-opacity="1" fill-rule="nonzero"/></svg>