<svg xmlns="http://www.w3.org/2000/svg" xmlns:xlink="http://www.w3.org/1999/xlink" width="480" zoomAndPan="magnify" viewBox="0 0 360 359.999987" height="480" preserveAspectRatio="xMidYMid meet" version="1.0"><defs><clipPath id="ed536028ae"><path d="M 277 208 L 315.78125 208 L 315.78125 236 L 277 236 Z M 277 208 " clip-rule="nonzero"/></clipPath></defs><rect x="-36" width="432" fill="#ffffff" y="-35.999999" height="431.999984" fill-opacity="1"/><rect x="-36" width="432" fill="#ffffff" y="-35.999999" height="431.999984" fill-opacity="1"/><path fill="#fe8c22" d="M 270.085938 243.414062 C 270.824219 243.957031 271.492188 244.089844 272.328125 243.894531 C 274.441406 243.363281 276.589844 243.125 278.609375 242.933594 C 278.992188 242.917969 279.3125 242.949219 279.632812 243.03125 L 280.242188 243.257812 L 279.152344 243.398438 C 276.78125 243.75 274.316406 244.054688 271.945312 244.632812 C 271.976562 244.761719 272.042969 244.792969 272.167969 244.90625 C 272.234375 244.921875 272.300781 244.953125 272.328125 244.984375 L 272.84375 245.355469 C 274.171875 246.332031 275.535156 247.34375 276.71875 248.523438 C 276.863281 248.632812 277.007812 248.703125 277.136719 248.761719 C 277.199219 248.796875 277.265625 248.828125 277.328125 248.828125 C 277.488281 248.859375 277.648438 248.859375 277.824219 248.828125 C 280.144531 248.3125 282.550781 248.25 284.695312 248.21875 C 284.953125 248.1875 285.242188 248.25 285.496094 248.351562 L 285.847656 248.476562 L 285.511719 248.636719 C 284.953125 248.875 284.40625 248.890625 283.847656 248.875 C 283.671875 248.875 283.511719 248.875 283.367188 248.890625 C 281.652344 248.921875 280.019531 249.117188 278.160156 249.378906 L 278.09375 249.378906 C 277.9375 249.394531 277.902344 249.410156 277.871094 249.4375 C 277.839844 249.535156 277.921875 249.597656 278 249.660156 C 278.046875 249.691406 278.0625 249.714844 278.128906 249.757812 L 278.898438 250.496094 C 279.601562 251.152344 280.304688 251.8125 280.996094 252.480469 C 281.296875 252.765625 281.621094 252.960938 282.085938 253.054688 C 282.804688 253.234375 283.554688 253.40625 284.308594 253.554688 C 286.023438 253.925781 287.835938 254.308594 289.53125 254.878906 C 289.597656 254.878906 289.644531 254.914062 289.726562 254.914062 C 289.949219 254.980469 290.285156 255.042969 290.523438 255.519531 L 290.652344 255.839844 L 290.332031 255.710938 C 287.515625 254.878906 284.824219 254.308594 282.324219 253.789062 C 283.511719 254.945312 284.664062 256.128906 285.753906 257.261719 C 288.921875 260.515625 291.871094 263.558594 295.523438 266.039062 L 295.363281 266.308594 C 294.226562 265.769531 293.121094 265.046875 291.964844 264.132812 C 289.453125 262.113281 287.195312 259.765625 285.015625 257.507812 C 283.992188 256.417969 282.933594 255.300781 281.847656 254.210938 C 281.429688 253.789062 281.015625 253.375 280.566406 252.929688 C 279.507812 251.871094 278.433594 250.75 277.238281 249.804688 C 277.171875 249.757812 277.074219 249.691406 276.980469 249.613281 C 278.933594 254.335938 280.953125 258.335938 283.148438 261.957031 C 283.164062 261.957031 283.164062 261.988281 283.164062 262.019531 C 283.898438 263.1875 284.667969 264.359375 285.4375 265.464844 L 285.691406 265.832031 L 285.277344 265.703125 C 284.601562 265.480469 284.363281 265.09375 284.15625 264.808594 L 284.089844 264.695312 C 282.425781 262.296875 280.855469 259.589844 279.191406 256.195312 C 278.148438 254.144531 276.980469 251.648438 276.085938 249.089844 C 276.019531 248.832031 275.824219 248.675781 275.632812 248.492188 C 273.871094 247.070312 271.921875 245.710938 269.839844 244.410156 C 269.742188 244.347656 269.53125 244.222656 269.484375 244.253906 C 269.421875 244.253906 269.386719 244.285156 269.421875 244.410156 C 269.421875 244.472656 269.453125 244.539062 269.484375 244.601562 C 269.484375 244.636719 269.484375 244.667969 269.484375 244.683594 C 270.125 250.238281 271.980469 255.390625 275.027344 260.035156 C 275.058594 260.101562 275.121094 260.148438 275.152344 260.199219 C 275.3125 260.386719 275.472656 260.613281 275.457031 260.9375 L 275.441406 261.027344 L 275.3125 261.0625 C 274.960938 261.125 274.800781 260.875 274.707031 260.710938 C 274.671875 260.675781 274.652344 260.617188 274.640625 260.585938 C 272.816406 258.058594 271.34375 254.984375 270.15625 251.25 C 269.292969 248.476562 268.875 246.273438 268.84375 244.09375 C 268.84375 243.785156 268.621094 243.644531 268.347656 243.484375 C 267.785156 243.183594 267.210938 242.878906 266.632812 242.554688 L 265.574219 241.996094 C 265.542969 242.109375 265.496094 242.203125 265.445312 242.300781 C 262.917969 248.003906 263.429688 253.445312 266.808594 258.628906 C 269.195312 262.296875 272.683594 264.683594 276.640625 266.382812 C 283.367188 269.324219 290.496094 270.222656 297.734375 270.542969 C 298.980469 270.589844 299.046875 270.527344 298.742188 269.296875 C 297.382812 263.851562 295.875 258.40625 293.714844 253.222656 C 292.09375 249.34375 290.046875 245.726562 286.890625 242.847656 C 283.765625 239.992188 280.179688 238.277344 275.859375 238.394531 C 272.492188 238.492188 269.386719 239.609375 266.425781 241.085938 C 266.761719 241.292969 267.113281 241.5 267.464844 241.722656 C 268.328125 242.261719 269.222656 242.808594 270.085938 243.414062 Z M 270.085938 243.414062 " fill-opacity="1" fill-rule="nonzero"/><path fill="#fe8c22" d="M 276.460938 229.167969 C 276.78125 228.910156 277.101562 228.65625 277.457031 228.425781 C 278.257812 227.804688 279.121094 227.179688 279.988281 226.605469 C 280.753906 226.058594 281.136719 225.519531 281.230469 224.636719 C 281.230469 224.589844 281.265625 224.527344 281.265625 224.492188 C 279.699219 225.550781 278.0625 226.347656 276.429688 226.925781 C 276.445312 227.660156 276.398438 228.394531 276.460938 229.167969 Z M 276.460938 229.167969 " fill-opacity="1" fill-rule="nonzero"/><g clip-path="url(#ed536028ae)"><path fill="#fe8c22" d="M 314.445312 209.210938 C 308.875 208.492188 303.285156 207.96875 297.652344 208.09375 C 295.488281 208.125 293.339844 208.351562 291.226562 208.796875 C 290.84375 210.175781 290.476562 211.550781 289.945312 212.898438 C 288.265625 217.222656 285.832031 221 282.097656 223.816406 C 282.003906 224.324219 281.859375 224.773438 281.808594 225.289062 C 281.902344 225.289062 281.988281 225.257812 282.097656 225.179688 C 282.144531 225.128906 282.195312 225.066406 282.253906 225.046875 L 282.789062 224.710938 C 284.167969 223.820312 285.605469 222.921875 287.160156 222.214844 C 287.304688 222.152344 287.414062 222.058594 287.511719 221.925781 C 287.574219 221.882812 287.609375 221.832031 287.640625 221.769531 C 287.703125 221.636719 287.78125 221.496094 287.796875 221.316406 C 288.183594 218.980469 288.984375 216.707031 289.722656 214.6875 C 289.816406 214.433594 289.960938 214.191406 290.136719 213.984375 L 290.394531 213.710938 L 290.394531 214.085938 C 290.441406 214.675781 290.25 215.203125 290.039062 215.714844 C 289.976562 215.890625 289.914062 216.035156 289.863281 216.179688 C 289.304688 217.792969 288.886719 219.398438 288.4375 221.191406 L 288.40625 221.253906 C 288.375 221.414062 288.375 221.445312 288.40625 221.476562 C 288.484375 221.542969 288.566406 221.511719 288.628906 221.445312 C 288.695312 221.414062 288.726562 221.398438 288.789062 221.382812 L 289.769531 220.902344 C 290.617188 220.484375 291.480469 220.070312 292.378906 219.6875 C 292.761719 219.492188 293.050781 219.269531 293.304688 218.851562 C 293.722656 218.25 294.136719 217.605469 294.554688 216.980469 C 295.546875 215.523438 296.539062 213.984375 297.695312 212.589844 C 297.722656 212.546875 297.757812 212.480469 297.789062 212.449219 C 297.933594 212.222656 298.109375 211.933594 298.652344 211.902344 L 298.972656 211.871094 L 298.78125 212.160156 C 296.992188 214.46875 295.453125 216.753906 294.074219 218.917969 C 295.566406 218.234375 297.085938 217.574219 298.558594 216.964844 C 302.722656 215.1875 306.628906 213.535156 310.25 211.039062 L 310.445312 211.261719 C 309.546875 212.15625 308.488281 212.929688 307.207031 213.664062 C 304.417969 215.265625 301.410156 216.515625 298.492188 217.730469 C 297.117188 218.308594 295.707031 218.882812 294.296875 219.523438 C 293.753906 219.777344 293.191406 219.992188 292.628906 220.242188 C 291.253906 220.835938 289.84375 221.445312 288.5 222.214844 C 288.433594 222.261719 288.339844 222.308594 288.242188 222.390625 C 293.335938 222.277344 297.816406 221.859375 301.980469 221.089844 C 302.019531 221.089844 302.019531 221.089844 302.046875 221.089844 C 303.394531 220.835938 304.773438 220.546875 306.085938 220.226562 L 306.535156 220.117188 L 306.246094 220.453125 C 305.792969 220.996094 305.347656 221.089844 304.996094 221.1875 L 304.867188 221.222656 C 302.019531 221.90625 298.972656 222.375 295.179688 222.730469 C 292.855469 222.917969 290.132812 223.144531 287.441406 223.011719 C 287.15625 223.011719 286.929688 223.113281 286.703125 223.238281 C 284.734375 224.390625 282.765625 225.703125 280.8125 227.175781 C 280.71875 227.246094 280.523438 227.386719 280.523438 227.46875 C 280.523438 227.5 280.523438 227.53125 280.652344 227.566406 C 280.71875 227.566406 280.78125 227.566406 280.84375 227.582031 C 280.875 227.582031 280.910156 227.601562 280.941406 227.617188 C 286.324219 229.007812 291.800781 229.136719 297.273438 227.980469 C 297.34375 227.949219 297.375 227.949219 297.46875 227.917969 C 297.695312 227.851562 297.964844 227.757812 298.238281 227.882812 L 298.351562 227.949219 L 298.316406 228.078125 C 298.234375 228.445312 297.949219 228.492188 297.757812 228.507812 C 297.722656 228.523438 297.695312 228.523438 297.628906 228.523438 C 294.585938 229.328125 291.222656 229.582031 287.300781 229.328125 C 284.402344 229.167969 282.191406 228.734375 280.140625 227.980469 C 279.855469 227.882812 279.660156 228.015625 279.4375 228.234375 C 278.921875 228.625 278.425781 229.070312 277.933594 229.484375 L 277.003906 230.265625 C 277.101562 230.351562 277.195312 230.417969 277.261719 230.480469 C 281.648438 234.898438 286.933594 236.402344 292.984375 235.121094 C 297.246094 234.210938 300.738281 231.839844 303.777344 228.75 C 308.9375 223.5625 312.363281 217.242188 315.246094 210.589844 C 315.730469 209.441406 315.699219 209.375 314.445312 209.210938 Z M 314.445312 209.210938 " fill-opacity="1" fill-rule="nonzero"/></g><path fill="#623717" d="M 279.441406 228.234375 C 279.664062 228.011719 279.859375 227.882812 280.144531 227.980469 C 282.195312 228.734375 284.40625 229.167969 287.304688 229.328125 C 291.226562 229.582031 294.589844 229.328125 297.632812 228.523438 C 297.699219 228.523438 297.726562 228.523438 297.761719 228.507812 C 297.949219 228.492188 298.238281 228.445312 298.320312 228.078125 L 298.355469 227.949219 L 298.242188 227.882812 C 297.96875 227.757812 297.699219 227.851562 297.472656 227.917969 C 297.378906 227.953125 297.34375 227.953125 297.277344 227.980469 C 291.804688 229.136719 286.328125 229.007812 280.945312 227.617188 C 280.914062 227.601562 280.878906 227.582031 280.847656 227.582031 C 280.78125 227.566406 280.722656 227.566406 280.65625 227.566406 C 280.527344 227.53125 280.527344 227.5 280.527344 227.46875 C 280.527344 227.386719 280.722656 227.246094 280.816406 227.175781 C 282.769531 225.703125 284.738281 224.390625 286.707031 223.238281 C 286.933594 223.113281 287.160156 223.011719 287.445312 223.011719 C 290.136719 223.144531 292.859375 222.917969 295.179688 222.730469 C 298.976562 222.375 302.019531 221.910156 304.871094 221.222656 L 305 221.1875 C 305.351562 221.089844 305.796875 221 306.25 220.453125 L 306.535156 220.117188 L 306.089844 220.226562 C 304.777344 220.546875 303.398438 220.832031 302.050781 221.089844 C 302.019531 221.089844 302.019531 221.089844 301.984375 221.089844 C 297.820312 221.859375 293.339844 222.273438 288.246094 222.390625 C 288.34375 222.308594 288.4375 222.261719 288.5 222.214844 C 289.847656 221.445312 291.257812 220.835938 292.632812 220.242188 C 293.195312 219.992188 293.757812 219.777344 294.300781 219.523438 C 295.710938 218.882812 297.117188 218.308594 298.496094 217.730469 C 301.410156 216.515625 304.421875 215.265625 307.210938 213.664062 C 308.492188 212.925781 309.546875 212.15625 310.445312 211.261719 L 310.253906 211.039062 C 306.632812 213.535156 302.726562 215.1875 298.5625 216.964844 C 297.089844 217.574219 295.570312 218.230469 294.078125 218.917969 C 295.457031 216.753906 296.992188 214.46875 298.785156 212.160156 L 298.976562 211.871094 L 298.65625 211.902344 C 298.113281 211.9375 297.9375 212.222656 297.792969 212.449219 C 297.761719 212.480469 297.726562 212.546875 297.695312 212.589844 C 296.542969 213.984375 295.546875 215.523438 294.558594 216.980469 C 294.140625 217.605469 293.726562 218.246094 293.308594 218.851562 C 293.054688 219.269531 292.765625 219.492188 292.378906 219.6875 C 291.484375 220.070312 290.621094 220.484375 289.769531 220.902344 L 288.792969 221.382812 C 288.730469 221.398438 288.699219 221.414062 288.632812 221.445312 C 288.570312 221.507812 288.488281 221.542969 288.410156 221.476562 C 288.378906 221.445312 288.378906 221.414062 288.410156 221.253906 L 288.441406 221.191406 C 288.890625 219.398438 289.308594 217.792969 289.863281 216.179688 C 289.917969 216.03125 289.980469 215.890625 290.042969 215.714844 C 290.253906 215.203125 290.445312 214.675781 290.398438 214.085938 L 290.398438 213.710938 L 290.140625 213.984375 C 289.964844 214.191406 289.820312 214.433594 289.726562 214.6875 C 288.988281 216.707031 288.1875 218.980469 287.800781 221.316406 C 287.785156 221.492188 287.707031 221.636719 287.644531 221.769531 C 287.613281 221.832031 287.578125 221.878906 287.515625 221.925781 C 287.417969 222.058594 287.308594 222.152344 287.164062 222.214844 C 285.609375 222.921875 284.171875 223.816406 282.792969 224.710938 L 282.257812 225.046875 C 282.199219 225.066406 282.148438 225.128906 282.101562 225.179688 C 281.988281 225.257812 281.90625 225.289062 281.8125 225.289062 C 281.863281 224.773438 282.007812 224.324219 282.101562 223.816406 C 281.941406 223.945312 281.847656 224.136719 281.683594 224.25 C 281.554688 224.339844 281.398438 224.390625 281.269531 224.492188 C 281.269531 224.527344 281.234375 224.585938 281.234375 224.632812 C 281.140625 225.519531 280.753906 226.058594 279.988281 226.605469 C 279.121094 227.175781 278.257812 227.804688 277.457031 228.425781 C 277.105469 228.652344 276.785156 228.90625 276.464844 229.164062 C 276.429688 229.179688 276.398438 229.195312 276.367188 229.226562 L 275.695312 229.835938 C 275.726562 228.621094 275.675781 227.582031 275.183594 227.625 C 274.316406 227.980469 267.496094 230.15625 260.066406 232.558594 C 260.226562 232.464844 260.351562 232.332031 260.445312 232.160156 C 260.546875 231.964844 260.609375 231.761719 260.703125 231.566406 C 260.738281 231.503906 260.769531 231.441406 260.800781 231.339844 C 260.964844 230.96875 261.089844 230.632812 261.265625 230.261719 C 261.824219 228.988281 262.371094 227.65625 263.074219 226.410156 L 263.074219 226.390625 L 263.683594 225.195312 C 264.003906 224.523438 264.324219 223.847656 264.644531 223.207031 C 264.804688 222.871094 264.933594 222.644531 265.285156 222.628906 C 267.75 222.503906 270.1875 221.921875 273.261719 220.804688 C 277.390625 219.335938 280.753906 217.574219 283.542969 215.390625 C 283.574219 215.359375 283.605469 215.328125 283.671875 215.296875 C 283.832031 215.171875 284.117188 214.992188 284.023438 214.578125 L 284.023438 214.464844 L 283.863281 214.464844 C 283.542969 214.433594 283.253906 214.65625 283.0625 214.820312 C 282.996094 214.882812 282.964844 214.914062 282.933594 214.960938 C 277.808594 218.597656 272.109375 220.929688 265.925781 221.894531 C 265.890625 221.894531 265.863281 221.90625 265.832031 221.90625 C 265.765625 221.921875 265.703125 221.953125 265.636719 221.953125 C 265.476562 222.019531 265.445312 221.988281 265.425781 221.921875 C 265.414062 221.859375 265.539062 221.601562 265.605469 221.476562 C 266.949219 219.105469 268.390625 216.867188 269.929688 214.847656 C 270.089844 214.59375 270.28125 214.378906 270.570312 214.269531 C 273.402344 213.179688 276.109375 211.742188 278.414062 210.488281 C 282.132812 208.441406 285.109375 206.585938 287.703125 204.597656 L 287.835938 204.535156 C 288.152344 204.28125 288.570312 203.957031 288.792969 203.222656 L 288.921875 202.742188 L 288.503906 203.046875 C 283.632812 206.796875 278.0625 210.042969 271.113281 213.261719 C 271.175781 213.148438 271.242188 213.023438 271.339844 212.953125 C 272.328125 211.578125 273.515625 210.300781 274.683594 209.078125 C 275.148438 208.570312 275.628906 208.085938 276.078125 207.578125 C 277.214844 206.324219 278.398438 205.0625 279.585938 203.863281 C 282.035156 201.332031 284.566406 198.6875 286.710938 195.792969 C 287.703125 194.464844 288.457031 193.183594 289.019531 191.882812 L 288.699219 191.722656 C 286.070312 195.886719 282.789062 199.375 279.28125 203.0625 C 278.0625 204.355469 276.816406 205.683594 275.535156 207.078125 C 276.015625 204.246094 276.5625 201.203125 277.359375 198.003906 L 277.457031 197.648438 L 277.136719 197.8125 C 276.59375 198.066406 276.53125 198.484375 276.496094 198.738281 C 276.480469 198.800781 276.464844 198.902344 276.449219 198.933594 C 275.890625 200.886719 275.539062 202.902344 275.183594 204.886719 C 275.058594 205.703125 274.898438 206.554688 274.765625 207.351562 C 274.652344 207.867188 274.464844 208.265625 274.160156 208.605469 C 273.453125 209.433594 272.71875 210.253906 272.011719 211.066406 L 271.214844 211.957031 C 271.179688 212.011719 271.132812 212.058594 271.117188 212.109375 C 271.050781 212.183594 271.019531 212.28125 270.894531 212.25 C 270.828125 212.234375 270.828125 212.183594 270.796875 212.011719 L 270.796875 211.925781 C 270.441406 209.878906 270.152344 208.050781 270.027344 206.136719 C 269.996094 205.941406 269.996094 205.75 269.996094 205.589844 C 269.949219 204.949219 269.929688 204.324219 269.613281 203.734375 L 269.449219 203.378906 L 269.324219 203.734375 C 269.226562 204.023438 269.164062 204.351562 269.195312 204.65625 C 269.339844 207.058594 269.515625 209.78125 270.1875 212.347656 C 270.316406 212.824219 270.234375 213.195312 269.898438 213.5625 C 268.621094 214.953125 267.5625 216.539062 266.539062 218.078125 L 266.121094 218.65625 C 266.089844 218.714844 266.054688 218.78125 266.027344 218.84375 C 265.960938 219.007812 265.894531 219.070312 265.785156 219.117188 C 265 216.511719 264.535156 213.757812 264.070312 211.09375 L 263.84375 209.875 L 263.636719 210.578125 C 263.527344 210.933594 263.492188 211.320312 263.554688 211.71875 C 263.84375 213.976562 264.230469 216.363281 264.902344 218.683594 C 265.191406 219.644531 265.0625 220.382812 264.484375 221.277344 C 263.84375 222.238281 263.269531 223.296875 262.691406 224.289062 C 262.464844 224.671875 262.242188 225.085938 262.019531 225.476562 C 261.984375 225.539062 261.953125 225.554688 261.953125 225.601562 L 261.410156 226.722656 C 260.6875 228.355469 259.9375 229.925781 259.234375 231.542969 C 259.121094 231.785156 258.878906 232.292969 259.457031 232.578125 C 259.585938 232.644531 259.679688 232.644531 259.773438 232.644531 C 250.84375 235.527344 241.105469 238.652344 239.535156 239.238281 C 229.480469 243.019531 219.355469 246.640625 209.042969 250.449219 C 208.945312 250.636719 208.800781 250.832031 208.847656 250.929688 C 210.128906 253.941406 210.210938 257.042969 209.710938 260.183594 C 209.617188 260.535156 209.523438 260.855469 209.429688 261.175781 L 211.347656 259.636719 C 220.667969 256.3125 248.726562 246.253906 262.917969 240.617188 C 263.8125 241.03125 264.710938 241.453125 265.542969 241.976562 L 265.574219 241.976562 L 266.632812 242.539062 C 267.207031 242.859375 267.785156 243.164062 268.34375 243.46875 C 268.617188 243.628906 268.839844 243.769531 268.839844 244.078125 C 268.875 246.253906 269.292969 248.460938 270.152344 251.230469 C 271.339844 254.964844 272.816406 258.039062 274.636719 260.566406 C 274.652344 260.601562 274.671875 260.664062 274.703125 260.691406 C 274.800781 260.855469 274.957031 261.109375 275.308594 261.042969 L 275.4375 261.011719 L 275.453125 260.917969 C 275.472656 260.597656 275.3125 260.371094 275.152344 260.179688 C 275.117188 260.136719 275.054688 260.085938 275.023438 260.015625 C 271.980469 255.371094 270.125 250.21875 269.484375 244.667969 C 269.484375 244.648438 269.484375 244.617188 269.484375 244.585938 C 269.449219 244.523438 269.417969 244.453125 269.417969 244.394531 C 269.386719 244.269531 269.417969 244.234375 269.484375 244.234375 C 269.527344 244.203125 269.738281 244.328125 269.835938 244.394531 C 271.917969 245.691406 273.871094 247.054688 275.632812 248.476562 C 275.824219 248.65625 276.015625 248.8125 276.082031 249.070312 C 276.976562 251.632812 278.144531 254.128906 279.1875 256.175781 C 280.851562 259.574219 282.425781 262.28125 284.089844 264.679688 L 284.15625 264.792969 C 284.363281 265.078125 284.601562 265.464844 285.273438 265.6875 L 285.6875 265.816406 L 285.433594 265.445312 C 284.664062 264.34375 283.898438 263.171875 283.160156 262 C 283.160156 261.972656 283.160156 261.941406 283.144531 261.941406 C 280.953125 258.316406 278.929688 254.320312 276.980469 249.597656 C 277.074219 249.675781 277.171875 249.738281 277.234375 249.785156 C 278.433594 250.734375 279.507812 251.855469 280.566406 252.914062 C 281.011719 253.359375 281.429688 253.769531 281.847656 254.191406 C 282.933594 255.28125 283.992188 256.398438 285.015625 257.492188 C 287.195312 259.746094 289.453125 262.097656 291.964844 264.117188 C 293.117188 265.03125 294.226562 265.75 295.359375 266.292969 L 295.519531 266.023438 C 291.867188 263.542969 288.921875 260.5 285.753906 257.246094 C 284.660156 256.113281 283.511719 254.929688 282.324219 253.769531 C 284.820312 254.289062 287.511719 254.859375 290.332031 255.695312 L 290.652344 255.824219 L 290.523438 255.503906 C 290.285156 255.023438 289.949219 254.964844 289.722656 254.898438 C 289.640625 254.898438 289.59375 254.863281 289.527344 254.863281 C 287.835938 254.292969 286.023438 253.90625 284.308594 253.539062 C 283.554688 253.390625 282.804688 253.21875 282.082031 253.039062 C 281.617188 252.945312 281.296875 252.75 280.992188 252.464844 C 280.304688 251.792969 279.597656 251.136719 278.894531 250.480469 L 278.128906 249.742188 C 278.0625 249.699219 278.046875 249.675781 278 249.644531 C 277.921875 249.582031 277.839844 249.515625 277.871094 249.421875 C 277.902344 249.390625 277.933594 249.378906 278.09375 249.359375 L 278.160156 249.359375 C 280.019531 249.101562 281.648438 248.90625 283.363281 248.875 C 283.507812 248.859375 283.671875 248.859375 283.847656 248.859375 C 284.40625 248.875 284.949219 248.859375 285.511719 248.617188 L 285.847656 248.457031 L 285.496094 248.335938 C 285.238281 248.234375 284.949219 248.167969 284.691406 248.203125 C 282.546875 248.234375 280.144531 248.296875 277.824219 248.8125 C 277.644531 248.84375 277.488281 248.84375 277.328125 248.8125 C 277.261719 248.8125 277.199219 248.777344 277.132812 248.746094 C 277.007812 248.6875 276.859375 248.617188 276.71875 248.503906 C 275.535156 247.324219 274.171875 246.316406 272.839844 245.339844 L 272.328125 244.96875 C 272.296875 244.9375 272.230469 244.90625 272.167969 244.886719 C 272.042969 244.773438 271.976562 244.746094 271.945312 244.617188 C 274.316406 244.039062 276.777344 243.734375 279.148438 243.382812 L 280.238281 243.238281 L 279.628906 243.011719 C 279.3125 242.933594 278.992188 242.902344 278.605469 242.917969 C 276.585938 243.105469 274.441406 243.351562 272.328125 243.878906 C 271.492188 244.070312 270.820312 243.941406 270.085938 243.398438 C 269.21875 242.789062 268.324219 242.242188 267.460938 241.699219 C 267.105469 241.476562 266.753906 241.269531 266.417969 241.0625 C 266.371094 241.046875 266.335938 241.011719 266.304688 240.996094 L 265.3125 240.484375 C 265.007812 240.320312 264.703125 240.179688 264.398438 240.007812 C 266.851562 239.011719 268.964844 238.144531 270.148438 237.566406 C 271.878906 236.738281 273.605469 235.875 275.113281 234.65625 C 275.179688 234.207031 275.402344 232.894531 275.5625 231.535156 C 276.042969 231.101562 276.492188 230.671875 277.003906 230.265625 L 277.003906 230.246094 L 277.933594 229.46875 C 278.429688 229.070312 278.925781 228.621094 279.441406 228.234375 Z M 279.441406 228.234375 " fill-opacity="1" fill-rule="nonzero"/><path fill="#fe8c22" d="M 225.648438 285.460938 C 225.566406 286.390625 225.757812 287.027344 226.367188 287.667969 C 227.855469 289.238281 229.140625 290.984375 230.273438 292.632812 C 230.46875 292.949219 230.59375 293.273438 230.65625 293.59375 L 230.785156 294.234375 L 230.113281 293.339844 C 228.671875 291.417969 227.199219 289.460938 225.5 287.703125 C 225.4375 287.746094 225.40625 287.832031 225.40625 288.003906 C 225.40625 288.066406 225.40625 288.121094 225.40625 288.183594 L 225.3125 288.828125 C 225.148438 290.453125 224.925781 292.121094 224.476562 293.757812 C 224.445312 293.914062 224.445312 294.078125 224.476562 294.234375 C 224.476562 294.296875 224.476562 294.363281 224.511719 294.429688 C 224.574219 294.570312 224.640625 294.71875 224.765625 294.84375 C 226.335938 296.601562 227.550781 298.6875 228.671875 300.539062 C 228.804688 300.765625 228.898438 301.019531 228.925781 301.3125 L 228.992188 301.664062 L 228.707031 301.4375 C 228.191406 301.089844 227.902344 300.609375 227.664062 300.125 C 227.566406 299.980469 227.488281 299.832031 227.425781 299.710938 C 226.527344 298.238281 225.550781 296.890625 224.445312 295.417969 L 224.398438 295.351562 C 224.316406 295.226562 224.289062 295.191406 224.253906 295.191406 C 224.125 295.226562 224.125 295.285156 224.125 295.417969 C 224.109375 295.484375 224.109375 295.515625 224.089844 295.542969 L 223.835938 296.601562 C 223.597656 297.53125 223.355469 298.457031 223.101562 299.386719 C 223.003906 299.820312 223.003906 300.183594 223.164062 300.636719 C 223.355469 301.359375 223.582031 302.078125 223.804688 302.8125 C 224.316406 304.492188 224.859375 306.238281 225.214844 308.035156 C 225.246094 308.066406 225.246094 308.125 225.277344 308.195312 C 225.34375 308.433594 225.4375 308.765625 225.148438 309.183594 L 224.925781 309.472656 L 224.859375 309.152344 C 224.203125 306.269531 223.402344 303.644531 222.621094 301.179688 C 222.203125 302.785156 221.738281 304.386719 221.273438 305.917969 C 220.023438 310.238281 218.808594 314.308594 218.394531 318.695312 L 218.105469 318.695312 C 218.007812 317.445312 218.105469 316.113281 218.328125 314.664062 C 218.871094 311.503906 219.804688 308.386719 220.730469 305.375 C 221.152344 303.933594 221.613281 302.464844 222.011719 300.992188 C 222.171875 300.414062 222.332031 299.832031 222.523438 299.261719 C 222.941406 297.824219 223.355469 296.328125 223.613281 294.8125 C 223.613281 294.714844 223.613281 294.648438 223.644531 294.488281 C 220.476562 298.527344 217.976562 302.234375 215.910156 305.921875 L 215.894531 305.953125 C 215.207031 307.203125 214.550781 308.421875 213.972656 309.636719 L 213.78125 310.039062 L 213.6875 309.605469 C 213.542969 308.933594 213.765625 308.527344 213.925781 308.195312 L 213.976562 308.066406 C 215.257812 305.445312 216.855469 302.769531 218.988281 299.644531 C 220.285156 297.722656 221.855469 295.484375 223.679688 293.464844 C 223.84375 293.273438 223.921875 293.015625 223.972656 292.761719 C 224.355469 290.519531 224.578125 288.183594 224.675781 285.75 C 224.707031 285.617188 224.707031 285.363281 224.640625 285.328125 C 224.613281 285.296875 224.59375 285.269531 224.480469 285.367188 C 224.449219 285.398438 224.382812 285.460938 224.351562 285.492188 C 224.320312 285.523438 224.320312 285.527344 224.289062 285.558594 C 219.753906 288.828125 216.1875 292.949219 213.621094 297.917969 C 213.589844 297.980469 213.546875 298.011719 213.527344 298.105469 C 213.429688 298.296875 213.332031 298.570312 213.046875 298.714844 L 212.933594 298.75 L 212.855469 298.667969 C 212.632812 298.378906 212.773438 298.105469 212.890625 297.945312 C 212.890625 297.914062 212.917969 297.867188 212.933594 297.851562 C 214.265625 295 216.21875 292.210938 218.890625 289.363281 C 220.863281 287.234375 222.59375 285.8125 224.484375 284.691406 C 224.738281 284.527344 224.769531 284.300781 224.769531 283.988281 C 224.769531 283.347656 224.738281 282.671875 224.738281 282.035156 L 224.707031 280.8125 C 224.59375 280.847656 224.484375 280.863281 224.371094 280.878906 C 218.171875 281.4375 213.65625 284.558594 210.804688 290.066406 C 208.789062 293.941406 208.417969 298.136719 208.847656 302.429688 C 209.605469 309.730469 212.308594 316.359375 215.59375 322.84375 C 216.152344 323.945312 216.25 323.976562 217.148438 323.117188 C 221.246094 319.238281 225.21875 315.269531 228.710938 310.851562 C 231.289062 307.554688 233.449219 303.964844 234.410156 299.820312 C 235.371094 295.703125 235.117188 291.738281 232.875 288.015625 C 231.144531 285.105469 228.679688 282.992188 225.921875 281.101562 C 225.890625 281.5 225.875 281.90625 225.855469 282.320312 C 225.820312 283.363281 225.773438 284.40625 225.648438 285.460938 Z M 225.648438 285.460938 " fill-opacity="1" fill-rule="nonzero"/><path fill="#b7531e" d="M 264.484375 221.285156 C 265.058594 220.390625 265.1875 219.65625 264.898438 218.695312 C 264.226562 216.371094 263.839844 213.984375 263.554688 211.726562 C 263.488281 211.332031 263.519531 210.941406 263.632812 210.589844 L 263.839844 209.886719 L 264.066406 211.101562 C 264.53125 213.765625 264.996094 216.519531 265.78125 219.125 C 265.890625 219.078125 265.957031 219.015625 266.023438 218.851562 C 266.054688 218.789062 266.085938 218.726562 266.117188 218.664062 L 266.535156 218.085938 C 267.558594 216.550781 268.617188 214.960938 269.894531 213.570312 C 270.234375 213.203125 270.3125 212.832031 270.183594 212.355469 C 269.511719 209.792969 269.335938 207.066406 269.191406 204.664062 C 269.160156 204.359375 269.222656 204.03125 269.320312 203.742188 L 269.449219 203.386719 L 269.609375 203.742188 C 269.929688 204.332031 269.945312 204.957031 269.992188 205.597656 C 269.992188 205.761719 269.992188 205.949219 270.023438 206.144531 C 270.152344 208.0625 270.441406 209.886719 270.792969 211.9375 L 270.792969 212.019531 C 270.824219 212.195312 270.824219 212.242188 270.890625 212.257812 C 271.015625 212.289062 271.050781 212.195312 271.113281 212.117188 C 271.128906 212.070312 271.175781 212.019531 271.210938 211.964844 L 272.007812 211.074219 C 272.714844 210.261719 273.453125 209.441406 274.15625 208.613281 C 274.460938 208.273438 274.652344 207.875 274.761719 207.359375 C 274.890625 206.5625 275.050781 205.707031 275.183594 204.894531 C 275.535156 202.910156 275.886719 200.890625 276.445312 198.941406 C 276.460938 198.910156 276.480469 198.808594 276.492188 198.746094 C 276.527344 198.492188 276.589844 198.074219 277.132812 197.824219 L 277.453125 197.660156 L 277.355469 198.011719 C 276.558594 201.210938 276.007812 204.253906 275.535156 207.085938 C 276.8125 205.691406 278.0625 204.363281 279.277344 203.070312 C 282.785156 199.386719 286.066406 195.898438 288.695312 191.730469 L 289.015625 191.890625 C 288.453125 193.191406 287.703125 194.472656 286.707031 195.800781 C 284.566406 198.695312 282.03125 201.34375 279.582031 203.871094 C 278.398438 205.070312 277.210938 206.332031 276.074219 207.585938 C 275.625 208.09375 275.148438 208.578125 274.683594 209.089844 C 273.511719 210.308594 272.328125 211.585938 271.335938 212.960938 C 271.238281 213.03125 271.171875 213.15625 271.109375 213.269531 C 278.058594 210.050781 283.632812 206.804688 288.5 203.054688 L 288.917969 202.75 L 288.789062 203.230469 C 288.566406 203.964844 288.148438 204.289062 287.832031 204.542969 L 287.703125 204.609375 C 285.105469 206.59375 282.128906 208.449219 278.414062 210.496094 C 276.105469 211.75 273.398438 213.191406 270.566406 214.277344 C 270.277344 214.386719 270.085938 214.597656 269.925781 214.855469 C 268.386719 216.875 266.949219 219.113281 265.601562 221.484375 C 265.539062 221.613281 265.410156 221.871094 265.421875 221.929688 C 265.441406 221.996094 265.472656 222.03125 265.632812 221.964844 C 265.699219 221.964844 265.761719 221.929688 265.828125 221.914062 C 265.859375 221.914062 265.890625 221.902344 265.921875 221.902344 C 272.105469 220.9375 277.804688 218.605469 282.929688 214.96875 C 282.960938 214.921875 282.996094 214.890625 283.058594 214.828125 C 283.25 214.664062 283.539062 214.441406 283.859375 214.476562 L 284.019531 214.476562 L 284.019531 214.585938 C 284.113281 215 283.828125 215.179688 283.667969 215.304688 C 283.601562 215.339844 283.570312 215.367188 283.539062 215.398438 C 280.753906 217.582031 277.386719 219.34375 273.257812 220.816406 C 270.183594 221.933594 267.746094 222.511719 265.28125 222.636719 C 264.929688 222.652344 264.800781 222.882812 264.640625 223.21875 C 264.320312 223.855469 264 224.53125 263.679688 225.203125 L 263.070312 226.398438 C 263.199219 226.433594 263.3125 226.480469 263.425781 226.511719 C 267.957031 228.304688 272.296875 228.371094 276.429688 226.929688 C 278.0625 226.351562 279.699219 225.554688 281.265625 224.496094 C 281.394531 224.394531 281.550781 224.347656 281.683594 224.253906 C 281.84375 224.144531 281.9375 223.949219 282.097656 223.824219 C 285.832031 221.003906 288.261719 217.226562 289.945312 212.902344 C 290.472656 211.558594 290.839844 210.179688 291.226562 208.804688 C 293.054688 202.382812 293.628906 195.742188 293.628906 189.046875 C 293.628906 187.652344 293.566406 187.574219 292.203125 187.957031 C 286.136719 189.71875 280.144531 191.675781 274.410156 194.347656 C 270.121094 196.3125 266.179688 198.808594 263.074219 202.464844 C 260 206.097656 258.238281 210.179688 258.589844 215.046875 C 258.84375 218.792969 260.222656 222.21875 262.015625 225.488281 C 262.242188 225.097656 262.464844 224.683594 262.691406 224.304688 C 263.265625 223.304688 263.839844 222.246094 264.484375 221.285156 Z M 264.484375 221.285156 " fill-opacity="1" fill-rule="nonzero"/><path fill="#b7531e" d="M 238.730469 279.632812 C 240.171875 283.570312 242.796875 286.773438 246.769531 289.207031 C 250.964844 291.738281 255.644531 292.472656 260.480469 292.285156 C 268.707031 291.960938 276.363281 289.398438 283.828125 286.179688 C 285.109375 285.617188 285.140625 285.558594 284.257812 284.46875 C 280.238281 279.570312 276.0625 274.859375 271.335938 270.636719 C 267.8125 267.511719 263.96875 264.871094 259.386719 263.492188 C 254.839844 262.097656 250.386719 262.097656 246.066406 264.328125 C 242.699219 266.085938 240.105469 268.707031 237.816406 271.625 C 238.265625 271.6875 238.730469 271.722656 239.175781 271.785156 C 240.328125 271.914062 241.515625 272.042969 242.667969 272.238281 C 243.695312 272.425781 244.460938 272.238281 245.195312 271.59375 C 247.058594 270.023438 249.105469 268.746094 251.058594 267.589844 C 251.394531 267.402344 251.761719 267.269531 252.148438 267.207031 L 252.871094 267.109375 L 251.8125 267.800781 C 249.585938 269.285156 247.246094 270.804688 245.136719 272.570312 C 245.230469 272.664062 245.328125 272.679688 245.503906 272.679688 C 245.550781 272.679688 245.648438 272.679688 245.695312 272.695312 L 246.417969 272.839844 C 248.226562 273.191406 250.101562 273.542969 251.859375 274.152344 C 252.371094 274.316406 252.726562 274.25 253.140625 273.933594 C 255.222656 272.296875 257.625 271.046875 259.769531 269.960938 C 260.058594 269.835938 260.363281 269.730469 260.667969 269.714844 L 261.054688 269.667969 L 260.832031 269.988281 C 260.378906 270.507812 259.804688 270.773438 259.230469 271.066406 C 259.066406 271.109375 258.910156 271.210938 258.75 271.304688 C 257.050781 272.183594 255.480469 273.160156 253.75 274.316406 L 253.65625 274.351562 C 253.523438 274.445312 253.492188 274.476562 253.492188 274.523438 C 253.492188 274.671875 253.589844 274.65625 253.71875 274.671875 C 253.765625 274.671875 253.816406 274.707031 253.875 274.71875 L 255.03125 275.085938 C 256.054688 275.410156 257.078125 275.746094 258.121094 276.082031 C 258.554688 276.238281 259.003906 276.238281 259.515625 276.144531 C 260.316406 275.949219 261.148438 275.761719 261.964844 275.535156 C 263.90625 275.085938 265.921875 274.605469 267.941406 274.351562 C 267.972656 274.351562 268.050781 274.320312 268.101562 274.320312 C 268.386719 274.25 268.757812 274.15625 269.21875 274.523438 L 269.523438 274.75 L 269.125 274.8125 C 265.890625 275.34375 262.878906 276.050781 260.074219 276.753906 C 261.851562 277.359375 263.582031 277.96875 265.246094 278.59375 C 270.019531 280.335938 274.535156 281.972656 279.402344 282.738281 L 279.371094 283.09375 C 277.964844 283.09375 276.488281 282.898438 274.871094 282.515625 C 271.367188 281.683594 267.9375 280.433594 264.636719 279.1875 C 263.066406 278.582031 261.433594 277.96875 259.835938 277.457031 C 259.160156 277.230469 258.554688 276.976562 257.914062 276.753906 C 256.308594 276.175781 254.675781 275.597656 253.011719 275.230469 C 252.914062 275.179688 252.789062 275.167969 252.660156 275.148438 C 258.375 280.242188 263.546875 284.054688 268.933594 287.042969 L 269.378906 287.320312 L 268.867188 287.378906 C 268.097656 287.496094 267.648438 287.21875 267.328125 286.996094 L 267.1875 286.933594 C 264.320312 285.332031 261.433594 283.367188 258.074219 280.75 C 256.023438 279.125 253.621094 277.230469 251.507812 275.023438 C 251.285156 274.796875 251.011719 274.734375 250.707031 274.671875 C 248.238281 274.09375 245.644531 273.644531 242.90625 273.359375 C 242.761719 273.339844 242.507812 273.324219 242.441406 273.359375 C 242.378906 273.390625 242.378906 273.421875 242.476562 273.546875 C 242.523438 273.617188 242.570312 273.679688 242.605469 273.710938 C 242.636719 273.773438 242.652344 273.773438 242.667969 273.773438 C 246 279.085938 250.402344 283.410156 255.769531 286.644531 C 255.816406 286.675781 255.898438 286.703125 255.960938 286.746094 C 256.183594 286.839844 256.507812 286.996094 256.617188 287.320312 L 256.667969 287.449219 L 256.566406 287.511719 C 256.214844 287.761719 255.925781 287.574219 255.769531 287.464844 C 255.703125 287.433594 255.671875 287.378906 255.640625 287.378906 C 252.535156 285.683594 249.554688 283.316406 246.574219 280.109375 C 244.335938 277.746094 242.828125 275.710938 241.738281 273.515625 C 241.582031 273.195312 241.324219 273.164062 240.957031 273.148438 C 240.234375 273.101562 239.5 273.070312 238.761719 273.050781 L 237.417969 272.988281 C 237.417969 273.101562 237.449219 273.226562 237.449219 273.339844 C 237.511719 275.375 237.894531 277.230469 238.441406 278.960938 C 238.632812 279.152344 238.796875 279.375 239 279.601562 C 238.921875 279.597656 238.828125 279.632812 238.730469 279.632812 Z M 238.730469 279.632812 " fill-opacity="1" fill-rule="nonzero"/><path fill="#623717" d="M 240.957031 273.148438 C 241.324219 273.160156 241.582031 273.191406 241.738281 273.515625 C 242.828125 275.710938 244.335938 277.746094 246.574219 280.109375 C 249.554688 283.316406 252.535156 285.679688 255.640625 287.378906 C 255.671875 287.378906 255.703125 287.433594 255.769531 287.464844 C 255.925781 287.570312 256.214844 287.761719 256.566406 287.511719 L 256.667969 287.449219 L 256.617188 287.316406 C 256.507812 286.996094 256.183594 286.839844 255.960938 286.742188 C 255.894531 286.703125 255.816406 286.675781 255.769531 286.640625 C 250.402344 283.410156 246 279.082031 242.667969 273.769531 C 242.652344 273.769531 242.636719 273.769531 242.605469 273.710938 C 242.570312 273.675781 242.523438 273.613281 242.476562 273.546875 C 242.378906 273.417969 242.378906 273.386719 242.441406 273.355469 C 242.507812 273.324219 242.761719 273.339844 242.90625 273.355469 C 245.644531 273.644531 248.238281 274.09375 250.707031 274.671875 C 251.011719 274.734375 251.28125 274.796875 251.507812 275.023438 C 253.621094 277.230469 256.023438 279.121094 258.074219 280.75 C 261.433594 283.363281 264.320312 285.328125 267.1875 286.933594 L 267.328125 286.996094 C 267.648438 287.21875 268.097656 287.492188 268.867188 287.378906 L 269.378906 287.316406 L 268.933594 287.042969 C 263.546875 284.050781 258.375 280.242188 252.660156 275.148438 C 252.785156 275.164062 252.914062 275.179688 253.011719 275.226562 C 254.675781 275.597656 256.308594 276.171875 257.914062 276.753906 C 258.550781 276.972656 259.160156 277.230469 259.835938 277.457031 C 261.433594 277.96875 263.070312 278.578125 264.636719 279.1875 C 267.9375 280.429688 271.367188 281.683594 274.871094 282.511719 C 276.488281 282.898438 277.964844 283.089844 279.371094 283.089844 L 279.402344 282.738281 C 274.535156 281.972656 270.019531 280.335938 265.246094 278.59375 C 263.582031 277.96875 261.851562 277.355469 260.074219 276.753906 C 262.878906 276.050781 265.886719 275.34375 269.125 274.8125 L 269.523438 274.75 L 269.21875 274.523438 C 268.757812 274.15625 268.386719 274.25 268.101562 274.316406 C 268.050781 274.316406 267.972656 274.351562 267.941406 274.351562 C 265.921875 274.601562 263.902344 275.085938 261.964844 275.53125 C 261.148438 275.761719 260.320312 275.949219 259.515625 276.140625 C 259.003906 276.238281 258.554688 276.238281 258.121094 276.082031 C 257.082031 275.742188 256.054688 275.40625 255.03125 275.085938 L 253.875 274.71875 C 253.8125 274.703125 253.765625 274.671875 253.71875 274.671875 C 253.589844 274.65625 253.492188 274.671875 253.492188 274.523438 C 253.492188 274.476562 253.523438 274.445312 253.65625 274.347656 L 253.75 274.316406 C 255.480469 273.160156 257.050781 272.183594 258.75 271.304688 C 258.910156 271.210938 259.066406 271.109375 259.230469 271.0625 C 259.804688 270.773438 260.382812 270.503906 260.832031 269.988281 L 261.054688 269.667969 L 260.667969 269.714844 C 260.363281 269.730469 260.058594 269.832031 259.769531 269.957031 C 257.625 271.042969 255.222656 272.296875 253.140625 273.929688 C 252.722656 274.246094 252.371094 274.316406 251.859375 274.152344 C 250.101562 273.542969 248.226562 273.191406 246.417969 272.835938 L 245.695312 272.695312 C 245.648438 272.679688 245.550781 272.679688 245.503906 272.679688 C 245.328125 272.679688 245.230469 272.660156 245.136719 272.570312 C 247.246094 270.804688 249.585938 269.285156 251.8125 267.796875 L 252.871094 267.109375 L 252.148438 267.207031 C 251.761719 267.265625 251.394531 267.398438 251.058594 267.585938 C 249.105469 268.746094 247.058594 270.019531 245.195312 271.59375 C 244.460938 272.234375 243.695312 272.421875 242.667969 272.234375 C 241.515625 272.042969 240.328125 271.914062 239.175781 271.78125 C 238.730469 271.71875 238.265625 271.6875 237.816406 271.625 C 237.769531 271.625 237.738281 271.625 237.671875 271.625 L 236.425781 271.605469 C 234.664062 271.5625 232.898438 271.527344 231.140625 271.496094 C 230.898438 271.496094 230.320312 271.460938 230.273438 272.136719 C 230.273438 272.328125 230.289062 272.488281 230.402344 272.589844 C 230.5625 272.808594 230.820312 272.824219 231.078125 272.839844 C 231.285156 272.855469 231.492188 272.855469 231.699219 272.855469 C 231.78125 272.855469 231.859375 272.839844 231.972656 272.839844 C 232.355469 272.839844 232.738281 272.839844 233.125 272.855469 C 234.535156 272.839844 235.945312 272.820312 237.386719 272.984375 L 237.417969 272.984375 L 238.765625 273.050781 C 239.5 273.066406 240.238281 273.101562 240.957031 273.148438 Z M 240.957031 273.148438 " fill-opacity="1" fill-rule="nonzero"/><path fill="#623717" d="M 156.347656 258.882812 C 155.773438 256.660156 155.804688 254.414062 156.171875 252.191406 C 156.285156 251.515625 156.476562 250.90625 156.316406 250.234375 C 155.128906 250.207031 153.898438 250.207031 152.683594 250.175781 C 152.617188 250.175781 152.566406 250.109375 152.46875 250.109375 C 152.46875 250.234375 152.582031 250.285156 152.425781 250.496094 C 150.136719 250.945312 147.828125 250.71875 145.523438 250.636719 C 144.625 250.347656 143.824219 249.902344 142.945312 249.566406 C 142.449219 249.628906 141.90625 249.660156 141.554688 249.757812 C 133.09375 249.757812 124.640625 249.757812 116.214844 249.757812 C 115.445312 249.757812 114.644531 249.660156 113.910156 249.855469 C 112.339844 250.238281 111.21875 249.660156 110.320312 248.414062 C 108.914062 246.429688 107.40625 244.539062 105.835938 242.679688 C 104.238281 240.796875 102.90625 238.679688 100.921875 237.109375 C 100.261719 236.878906 99.71875 237.140625 99.238281 237.554688 C 98.917969 237.8125 98.582031 238.039062 98.40625 238.425781 C 98.390625 238.578125 98.40625 238.746094 98.503906 238.871094 C 101.128906 242.460938 103.304688 246.332031 105.484375 250.429688 C 99.542969 250.429688 93.859375 250.332031 88.1875 250.460938 C 85.851562 250.496094 83.738281 250.078125 81.589844 249.214844 C 77.300781 247.484375 72.882812 246.011719 68.652344 244.152344 C 65.128906 242.554688 61.445312 244.972656 60.386719 247.773438 C 59.074219 251.375 60.453125 254.917969 63.910156 256.292969 C 66.757812 257.410156 69.675781 258.484375 72.558594 259.621094 C 73.164062 259.847656 73.90625 259.972656 74.449219 260.582031 C 69.597656 264.230469 64.824219 267.835938 60.085938 271.433594 C 55.9375 274.574219 51.738281 277.648438 47.738281 280.917969 C 44.757812 283.351562 44.40625 287.765625 46.695312 290.617188 C 49.273438 293.820312 52.636719 294.207031 56.128906 291.628906 C 66.730469 283.734375 77.332031 275.855469 87.902344 267.945312 C 88.609375 267.4375 89.28125 267.082031 90.179688 267.179688 C 97.113281 267.945312 103.757812 269.546875 109.84375 273.164062 C 111.0625 273.582031 111.398438 272.429688 112.085938 271.886719 C 112.34375 271.535156 112.855469 271.371094 112.980469 270.925781 C 113.015625 270.761719 112.949219 270.605469 112.855469 270.480469 C 108.210938 267.332031 102.992188 265.480469 97.769531 263.523438 C 117.050781 263.460938 136.269531 262.679688 155.519531 263.109375 L 157.027344 263.289062 C 157.027344 263.242188 156.996094 263.210938 156.996094 263.144531 C 156.765625 261.730469 156.554688 260.289062 156.347656 258.882812 Z M 156.347656 258.882812 " fill-opacity="1" fill-rule="nonzero"/><path fill="#623717" d="M 190.558594 259.523438 C 190.171875 258.59375 190.140625 257.570312 190.140625 256.574219 C 190.0625 255.164062 189.695312 253.785156 189.660156 252.378906 C 188.921875 253.261719 187.789062 253.277344 186.777344 253.496094 C 185.945312 253.664062 185.050781 253.691406 184.183594 253.582031 C 181.425781 253.261719 178.707031 252.929688 175.949219 252.621094 C 175.628906 254.8125 175.757812 257.058594 175.214844 259.203125 C 175.261719 261.285156 174.636719 263.238281 173.964844 265.15625 L 185.914062 267.113281 C 186.121094 267.144531 186.34375 267.175781 186.585938 267.21875 C 187.707031 267.433594 188.410156 268.003906 188.863281 269.0625 C 190.046875 271.722656 191.070312 274.378906 191.519531 277.230469 C 191.902344 279.726562 192.160156 282.242188 192.480469 284.738281 C 192.734375 285.425781 193.40625 285.394531 193.949219 285.617188 C 194.304688 285.746094 194.65625 285.890625 195.023438 285.875 C 195.410156 285.777344 195.296875 285.425781 195.328125 285.167969 C 195.90625 279.921875 195.328125 274.734375 194.046875 269.480469 C 194.015625 269.480469 193.984375 269.480469 193.949219 269.449219 C 191.964844 266.4375 190.875 263.105469 190.558594 259.523438 Z M 190.558594 259.523438 " fill-opacity="1" fill-rule="nonzero"/><path fill="#623717" d="M 206.414062 268.984375 C 204.519531 271.550781 202.585938 271.402344 201.097656 268.632812 C 200.546875 267.605469 200.210938 266.503906 199.71875 265.253906 C 198.453125 266.980469 198.3125 269.671875 195.488281 269.734375 C 195.410156 269.71875 195.328125 269.703125 195.21875 269.671875 L 206.121094 273.070312 C 212.304688 275.117188 218.472656 277.167969 224.640625 279.1875 C 224.671875 279.726562 224.734375 280.257812 224.703125 280.78125 L 224.703125 280.816406 L 224.734375 282.039062 C 224.734375 282.679688 224.765625 283.351562 224.765625 283.992188 C 224.765625 284.308594 224.734375 284.53125 224.480469 284.695312 C 222.589844 285.816406 220.859375 287.238281 218.886719 289.367188 C 216.214844 292.21875 214.261719 295.003906 212.929688 297.859375 C 212.917969 297.875 212.886719 297.917969 212.886719 297.953125 C 212.769531 298.113281 212.628906 298.382812 212.851562 298.671875 L 212.929688 298.753906 L 213.042969 298.722656 C 213.328125 298.578125 213.429688 298.304688 213.523438 298.113281 C 213.539062 298.015625 213.585938 297.984375 213.621094 297.921875 C 216.183594 292.953125 219.753906 288.832031 224.289062 285.5625 C 224.316406 285.53125 224.316406 285.53125 224.347656 285.5 C 224.378906 285.46875 224.445312 285.402344 224.476562 285.371094 C 224.585938 285.273438 224.609375 285.304688 224.640625 285.335938 C 224.703125 285.371094 224.703125 285.625 224.671875 285.753906 C 224.574219 288.1875 224.351562 290.523438 223.96875 292.765625 C 223.921875 293.019531 223.839844 293.277344 223.679688 293.46875 C 221.855469 295.488281 220.28125 297.726562 218.984375 299.648438 C 216.851562 302.773438 215.25 305.445312 213.972656 308.074219 L 213.921875 308.199219 C 213.761719 308.53125 213.539062 308.941406 213.683594 309.613281 L 213.777344 310.042969 L 213.972656 309.644531 C 214.546875 308.425781 215.203125 307.207031 215.890625 305.960938 L 215.90625 305.925781 C 217.972656 302.242188 220.472656 298.53125 223.640625 294.496094 C 223.613281 294.652344 223.613281 294.722656 223.613281 294.816406 C 223.355469 296.335938 222.9375 297.828125 222.519531 299.265625 C 222.328125 299.839844 222.167969 300.417969 222.007812 300.996094 C 221.609375 302.46875 221.144531 303.9375 220.726562 305.378906 C 219.800781 308.390625 218.867188 311.511719 218.328125 314.667969 C 218.101562 316.121094 218.003906 317.449219 218.101562 318.703125 L 218.390625 318.703125 C 218.804688 314.3125 220.023438 310.242188 221.269531 305.925781 C 221.734375 304.390625 222.199219 302.789062 222.617188 301.183594 C 223.398438 303.648438 224.203125 306.277344 224.855469 309.15625 L 224.921875 309.476562 L 225.144531 309.1875 C 225.433594 308.773438 225.339844 308.441406 225.273438 308.199219 C 225.242188 308.132812 225.242188 308.070312 225.210938 308.039062 C 224.855469 306.242188 224.316406 304.5 223.800781 302.816406 C 223.578125 302.082031 223.351562 301.359375 223.160156 300.644531 C 223 300.1875 223 299.824219 223.097656 299.390625 C 223.351562 298.460938 223.597656 297.535156 223.832031 296.605469 L 224.085938 295.550781 C 224.105469 295.515625 224.105469 295.488281 224.121094 295.421875 C 224.121094 295.292969 224.121094 295.230469 224.25 295.199219 C 224.285156 295.199219 224.316406 295.230469 224.394531 295.355469 L 224.441406 295.421875 C 225.546875 296.894531 226.523438 298.242188 227.421875 299.714844 C 227.484375 299.839844 227.5625 299.984375 227.660156 300.128906 C 227.898438 300.613281 228.191406 301.089844 228.703125 301.445312 L 228.992188 301.667969 L 228.925781 301.316406 C 228.894531 301.027344 228.796875 300.773438 228.667969 300.542969 C 227.546875 298.691406 226.332031 296.609375 224.761719 294.847656 C 224.636719 294.722656 224.570312 294.574219 224.507812 294.433594 C 224.476562 294.371094 224.476562 294.300781 224.476562 294.238281 C 224.441406 294.082031 224.441406 293.917969 224.476562 293.761719 C 224.921875 292.125 225.144531 290.457031 225.308594 288.832031 L 225.402344 288.1875 C 225.402344 288.125 225.402344 288.074219 225.402344 288.007812 C 225.402344 287.839844 225.433594 287.753906 225.496094 287.707031 C 227.195312 289.464844 228.667969 291.421875 230.109375 293.34375 L 230.78125 294.238281 L 230.65625 293.597656 C 230.589844 293.277344 230.464844 292.953125 230.269531 292.636719 C 229.136719 290.988281 227.851562 289.242188 226.363281 287.675781 C 225.753906 287.03125 225.5625 286.394531 225.644531 285.464844 C 225.769531 284.410156 225.816406 283.371094 225.851562 282.328125 C 225.867188 281.914062 225.882812 281.507812 225.914062 281.105469 C 225.914062 281.078125 225.914062 281.027344 225.914062 280.984375 L 225.867188 279.878906 C 225.867188 279.777344 225.851562 279.703125 225.851562 279.605469 C 226.78125 279.929688 227.742188 280.230469 228.703125 280.539062 C 229.519531 280.820312 230.332031 281.273438 231.230469 281.109375 C 233.632812 280.679688 236.035156 280.1875 238.726562 279.640625 C 238.824219 279.640625 238.917969 279.605469 238.996094 279.605469 C 238.792969 279.378906 238.628906 279.160156 238.4375 278.964844 C 236.742188 277.125 235.460938 275.15625 233.347656 274.035156 C 226.554688 270.527344 219.507812 267.691406 212.300781 265.164062 C 211.214844 264.777344 210.125 264.425781 209.015625 264.058594 C 208.363281 264.84375 208.203125 265.835938 207.722656 266.707031 C 207.277344 267.464844 206.925781 268.265625 206.414062 268.984375 Z M 206.414062 268.984375 " fill-opacity="1" fill-rule="nonzero"/><path fill="#b35931" d="M 241.164062 162.582031 C 242.160156 167.902344 242.316406 173.246094 242.09375 178.613281 C 241.867188 183.960938 241.164062 189.269531 240.011719 194.519531 C 238.089844 203.386719 235.625 212.113281 232.386719 220.597656 C 231.554688 222.761719 230.5 224.8125 229.632812 226.957031 C 228 229.070312 226.84375 231.472656 225.46875 233.710938 C 232.546875 231.488281 249.125 223.914062 253.273438 201.117188 C 253.273438 201.117188 259.484375 166.847656 235.207031 147.992188 C 235.832031 148.714844 236.394531 149.335938 236.679688 149.773438 C 239.082031 153.535156 240.328125 158.246094 241.164062 162.582031 Z M 241.164062 162.582031 " fill-opacity="1" fill-rule="nonzero"/><path fill="#ce8c5b" d="M 152.425781 250.492188 C 152.585938 250.285156 152.472656 250.234375 152.472656 250.109375 C 144.945312 247.253906 139.566406 241.941406 135.371094 235.214844 C 133.480469 232.160156 132.007812 228.90625 130.726562 225.546875 C 130.214844 224.171875 130.535156 223.179688 131.492188 222.105469 C 138.859375 213.734375 144.625 204.410156 148.167969 193.777344 C 150.261719 187.558594 151.578125 181.15625 151.734375 174.542969 C 151.929688 167.707031 151.0625 161.125 148.023438 154.957031 C 147.507812 153.886719 147.84375 153.261719 148.597656 152.507812 C 155.613281 145.449219 166.917969 143.671875 176.207031 148.132812 C 178.992188 149.4375 181.425781 151.179688 183.640625 153.296875 C 184.308594 153.933594 184.726562 153.949219 185.402344 153.296875 C 191.324219 147.667969 198.375 145.007812 206.539062 145.722656 C 212.5 146.246094 217.507812 148.894531 221.335938 153.550781 C 225.789062 158.976562 227.679688 165.414062 228.738281 172.214844 C 229.378906 176.328125 229.476562 180.449219 229.378906 184.601562 C 229.21875 191.824219 227.777344 198.804688 225.773438 205.6875 C 222.652344 216.289062 218.199219 226.28125 212.371094 235.660156 C 209.390625 240.464844 205.707031 244.691406 201.253906 248.246094 C 201.03125 248.410156 200.742188 248.46875 200.503906 248.597656 C 200.582031 249.429688 201.097656 249.207031 201.574219 249.019531 C 203.914062 248.246094 206.089844 248.46875 208.140625 249.894531 C 208.507812 249.652344 208.875 249.433594 209.261719 249.207031 C 215.570312 245.734375 220.648438 240.929688 224.730469 234.988281 C 224.988281 234.574219 225.210938 234.121094 225.464844 233.707031 C 226.84375 231.46875 227.996094 229.066406 229.628906 226.957031 C 230.496094 224.8125 231.554688 222.761719 232.386719 220.59375 C 235.621094 212.113281 238.085938 203.382812 240.007812 194.515625 C 241.164062 189.265625 241.867188 183.957031 242.089844 178.609375 C 242.316406 173.242188 242.15625 167.898438 241.164062 162.578125 C 240.328125 158.242188 239.082031 153.53125 236.679688 149.769531 C 236.390625 149.332031 235.828125 148.707031 235.207031 147.988281 C 233.378906 145.914062 230.976562 143.0625 232.804688 141.398438 C 236.792969 137.730469 239.917969 133.425781 242.542969 128.699219 C 251.8125 111.980469 249.207031 89.730469 236.265625 75.699219 C 234.628906 73.898438 234.597656 73.886719 236.601562 72.472656 C 248.019531 64.488281 250.628906 49.582031 245.359375 37.601562 C 245.042969 36.925781 244.8125 36.054688 243.820312 36.082031 C 242.703125 36.082031 242.605469 37.046875 242.351562 37.8125 C 241.164062 41.332031 239.882812 44.816406 237.703125 47.871094 C 232.644531 54.863281 225.566406 58.867188 217.507812 61.332031 C 213.617188 62.53125 209.613281 63.492188 205.898438 65.285156 C 205.511719 65.460938 205.191406 65.460938 204.808594 65.363281 C 204.328125 66.679688 202.921875 66.679688 201.992188 67.117188 C 195.875 69.925781 190.042969 73.121094 184.839844 77.4375 C 183.894531 78.242188 183.125 78.304688 182.277344 77.195312 C 178.929688 72.902344 174.542969 69.734375 170.507812 66.210938 C 169.242188 65.113281 167.460938 64.660156 166.632812 63.074219 C 165.703125 63.425781 164.675781 63.660156 163.878906 64.195312 C 161.921875 65.511719 160.035156 65.507812 157.859375 64.609375 C 152.988281 62.644531 147.734375 61.839844 142.949219 59.585938 C 133.933594 55.308594 127.300781 48.921875 124.640625 38.976562 C 124.515625 38.402344 124.320312 37.824219 124.097656 37.246094 C 123.90625 36.71875 123.617188 36.238281 122.976562 36.160156 C 122.273438 36.054688 121.855469 36.496094 121.535156 37.0625 C 121.277344 37.542969 121.023438 38.023438 120.832031 38.546875 C 118.875 43.929688 117.945312 49.429688 118.8125 55.148438 C 119.839844 61.726562 122.609375 67.394531 127.972656 71.527344 C 129.222656 72.503906 129.097656 72.929688 128.074219 73.957031 C 119.164062 83.132812 114.539062 94.15625 114.265625 106.917969 C 114.039062 117.148438 117.179688 126.394531 123.039062 134.757812 C 124.804688 137.28125 126.980469 139.464844 129.128906 141.894531 C 126.5 142.648438 124.003906 143.367188 121.792969 144.714844 C 109.558594 152.140625 101.546875 162.820312 97.769531 176.589844 C 96.777344 180.085938 97.449219 182.480469 102.15625 181.230469 C 106.222656 178.273438 109.636719 174.578125 113.402344 171.203125 C 112.472656 173.132812 111.511719 175.050781 110.617188 176.972656 C 108.304688 181.886719 106.832031 187.089844 106 192.429688 C 105.617188 194.769531 105.203125 197.171875 105.792969 199.671875 C 106.546875 202.808594 107.988281 203.847656 111.160156 202.902344 C 112.539062 202.488281 112.953125 202.375 112.601562 204.152344 C 111.542969 209.851562 111.078125 215.617188 112.214844 221.351562 C 112.632812 223.460938 113.253906 225.511719 114.488281 227.351562 C 116.667969 230.535156 119.648438 230.570312 122.945312 229.253906 C 124.097656 228.808594 125.125 228.074219 126.179688 227.433594 C 126.277344 227.5625 126.390625 227.65625 126.464844 227.800781 C 124.933594 229.324219 123.410156 230.84375 121.855469 232.363281 C 127.171875 240.304688 134.089844 246.195312 142.949219 249.558594 C 143.828125 249.894531 144.628906 250.34375 145.527344 250.632812 C 147.828125 250.714844 150.136719 250.941406 152.425781 250.492188 Z M 210 87.199219 C 222.554688 87.222656 232.613281 97.4375 232.613281 110.167969 C 232.582031 122.863281 222.074219 133.429688 209.519531 133.394531 C 196.964844 133.339844 187.128906 123.179688 187.191406 110.269531 C 187.257812 97.257812 197.21875 87.171875 210 87.199219 Z M 181.171875 120.964844 C 181.492188 120.894531 181.796875 120.832031 182.007812 120.789062 C 183.03125 120.796875 183.894531 121.046875 184.664062 121.484375 C 186.796875 122.695312 188.539062 124.355469 190.011719 126.324219 C 190.398438 126.832031 190.476562 127.152344 190.046875 127.753906 C 187.644531 131.03125 185.257812 134.335938 182.933594 137.671875 C 182.167969 138.742188 181.75 138.894531 180.980469 137.65625 C 178.804688 134.347656 176.5625 131.082031 174.269531 127.832031 C 173.628906 126.929688 173.695312 126.386719 174.496094 125.632812 C 176.496094 123.757812 178.257812 121.566406 181.171875 120.964844 Z M 152.636719 87.222656 C 165.128906 87.285156 175.023438 97.683594 174.910156 110.628906 C 174.832031 123.421875 164.773438 133.492188 152.1875 133.394531 C 139.503906 133.550781 129.332031 122.382812 129.667969 109.917969 C 129.988281 97.058594 139.804688 87.140625 152.636719 87.222656 Z M 152.636719 87.222656 " fill-opacity="1" fill-rule="nonzero"/><path fill="#b35931" d="M 126.179688 227.4375 C 125.117188 228.078125 124.097656 228.8125 122.941406 229.257812 C 119.644531 230.574219 116.664062 230.539062 114.484375 227.355469 C 113.253906 225.519531 112.628906 223.46875 112.214844 221.355469 C 111.074219 215.621094 111.539062 209.855469 112.597656 204.15625 C 112.949219 202.378906 112.535156 202.492188 111.15625 202.90625 C 107.984375 203.851562 106.542969 202.8125 105.792969 199.671875 C 105.199219 197.175781 105.617188 194.773438 105.996094 192.433594 C 106.832031 187.09375 108.304688 181.890625 110.613281 176.976562 C 111.507812 175.054688 112.46875 173.136719 113.398438 171.207031 C 109.632812 174.582031 106.222656 178.277344 102.152344 181.234375 C 101.289062 183.972656 100.585938 186.769531 100.007812 189.554688 C 98.183594 198.585938 97.414062 207.644531 99.335938 216.769531 C 99.351562 219.6875 100.101562 222.214844 102.953125 223.625 C 104.941406 223.910156 104.894531 223.910156 105.101562 225.960938 C 105.386719 229.226562 106.027344 232.433594 107.566406 235.34375 C 109.457031 238.882812 112.46875 239.664062 115.925781 237.636719 C 117.703125 236.59375 119.273438 235.3125 120.839844 234 C 121.339844 233.582031 121.882812 233.136719 121.851562 232.367188 C 123.40625 230.84375 124.925781 229.324219 126.460938 227.804688 C 126.386719 227.660156 126.273438 227.566406 126.179688 227.4375 Z M 126.179688 227.4375 " fill-opacity="1" fill-rule="nonzero"/><path fill="#b35931" d="M 182.277344 77.195312 C 183.125 78.304688 183.894531 78.242188 184.839844 77.4375 C 190.042969 73.125 195.875 69.929688 201.992188 67.121094 C 202.921875 66.679688 204.328125 66.679688 204.808594 65.367188 C 196.832031 61.03125 188.28125 59.457031 179.28125 60.140625 C 174.925781 60.449219 170.667969 61.292969 166.628906 63.078125 C 167.460938 64.660156 169.242188 65.117188 170.503906 66.214844 C 174.542969 69.738281 178.929688 72.90625 182.277344 77.195312 Z M 182.277344 77.195312 " fill-opacity="1" fill-rule="nonzero"/><path fill="#fec53f" d="M 208.847656 250.941406 C 208.796875 250.84375 208.941406 250.648438 209.042969 250.460938 C 209.042969 250.460938 209.042969 250.425781 209.042969 250.394531 C 208.753906 250.203125 208.320312 250.296875 208.140625 249.898438 C 206.089844 248.472656 203.914062 248.25 201.574219 249.019531 C 201.097656 249.207031 200.582031 249.433594 200.503906 248.597656 C 199.078125 247.589844 197.511719 247.222656 195.714844 247.160156 C 193.15625 247.066406 191.746094 248.347656 190.753906 250.460938 C 190.480469 251.050781 190.175781 251.644531 189.886719 252.222656 C 189.824219 252.316406 189.726562 252.285156 189.664062 252.378906 C 189.695312 253.785156 190.0625 255.164062 190.144531 256.574219 C 190.144531 257.566406 190.175781 258.59375 190.558594 259.523438 C 193.15625 262.113281 195.300781 262.496094 197.703125 260.964844 C 198.535156 260.453125 198.726562 258.851562 199.785156 259.203125 C 200.503906 259.429688 200.871094 260.675781 201.496094 261.347656 C 203.113281 263.109375 205.484375 263.367188 207.40625 262.097656 C 207.726562 261.894531 208.171875 261.605469 208.433594 261.699219 C 209.074219 261.957031 208.65625 262.660156 208.800781 263.144531 C 209.007812 262.5 209.214844 261.863281 209.425781 261.1875 C 209.519531 260.867188 209.617188 260.550781 209.710938 260.195312 C 210.207031 257.054688 210.128906 253.953125 208.847656 250.941406 Z M 208.847656 250.941406 " fill-opacity="1" fill-rule="nonzero"/><path fill="#fd9f3a" d="M 168.230469 260.289062 C 166.199219 258.273438 166.199219 258.273438 164.613281 260.515625 C 162.917969 262.917969 158.914062 262.875 157.277344 260.382812 C 156.925781 259.921875 156.671875 259.390625 156.347656 258.882812 C 156.554688 260.289062 156.765625 261.730469 156.988281 263.140625 C 156.988281 263.207031 157.023438 263.238281 157.023438 263.285156 C 157.277344 263.84375 157.535156 264.386719 157.757812 264.96875 C 158.589844 266.886719 159.488281 268.792969 160.992188 270.3125 C 162.785156 272.074219 164.390625 271.785156 165.347656 269.515625 C 165.667969 268.777344 165.921875 268.019531 166.277344 267.113281 C 166.726562 267.800781 167.015625 268.324219 167.367188 268.792969 C 168.746094 270.726562 170.3125 270.828125 171.816406 269.03125 C 172.777344 267.878906 173.40625 266.535156 173.964844 265.15625 C 174.636719 263.238281 175.261719 261.28125 175.210938 259.203125 C 173.675781 262.214844 170.636719 262.6875 168.230469 260.289062 Z M 168.230469 260.289062 " fill-opacity="1" fill-rule="nonzero"/><path fill="#fd9f3a" d="M 208.429688 261.695312 C 208.171875 261.605469 207.726562 261.894531 207.40625 262.09375 C 205.484375 263.363281 203.113281 263.105469 201.496094 261.347656 C 200.871094 260.671875 200.503906 259.429688 199.78125 259.203125 C 198.722656 258.851562 198.53125 260.453125 197.699219 260.960938 C 195.296875 262.496094 193.152344 262.113281 190.558594 259.523438 C 190.878906 263.105469 191.96875 266.4375 193.949219 269.449219 C 193.984375 269.480469 194.015625 269.480469 194.046875 269.480469 C 194.433594 269.542969 194.816406 269.609375 195.21875 269.667969 C 195.328125 269.703125 195.410156 269.714844 195.488281 269.730469 C 198.3125 269.667969 198.453125 266.976562 199.71875 265.25 C 200.214844 266.5 200.546875 267.605469 201.097656 268.628906 C 202.585938 271.398438 204.519531 271.546875 206.414062 268.980469 C 206.925781 268.261719 207.277344 267.460938 207.726562 266.695312 C 208.207031 265.828125 208.367188 264.832031 209.023438 264.046875 L 209.023438 264.03125 C 208.941406 263.742188 208.878906 263.457031 208.796875 263.136719 C 208.652344 262.660156 209.070312 261.957031 208.429688 261.695312 Z M 208.429688 261.695312 " fill-opacity="1" fill-rule="nonzero"/><path fill="#fed294" d="M 212.371094 235.664062 C 218.195312 226.28125 222.648438 216.292969 225.773438 205.691406 C 227.777344 198.808594 229.21875 191.828125 229.378906 184.605469 C 229.476562 180.453125 229.378906 176.328125 228.738281 172.214844 C 227.679688 165.421875 225.789062 158.980469 221.335938 153.554688 C 217.507812 148.898438 212.5 146.25 206.539062 145.726562 C 198.371094 145.011719 191.324219 147.671875 185.402344 153.296875 C 184.726562 153.953125 184.308594 153.9375 183.640625 153.296875 C 181.425781 151.183594 178.992188 149.4375 176.207031 148.136719 C 166.917969 143.675781 155.613281 145.457031 148.597656 152.511719 C 147.84375 153.261719 147.507812 153.890625 148.023438 154.960938 C 151.0625 161.128906 151.929688 167.707031 151.734375 174.546875 C 151.578125 181.160156 150.261719 187.5625 148.167969 193.78125 C 144.625 204.414062 138.859375 213.734375 131.492188 222.109375 C 130.535156 223.179688 130.210938 224.175781 130.726562 225.550781 C 132.007812 228.910156 133.480469 232.164062 135.371094 235.21875 C 139.566406 241.941406 144.945312 247.257812 152.472656 250.109375 C 152.570312 250.109375 152.621094 250.175781 152.683594 250.175781 C 153.898438 250.207031 155.132812 250.207031 156.316406 250.238281 C 157.757812 246.808594 160.609375 245.816406 164.101562 247.421875 C 164.871094 247.773438 165.542969 247.882812 166.503906 247.3125 C 169.703125 245.40625 173.421875 245.785156 175.199219 250.496094 C 175.457031 251.203125 175.375 252.03125 175.949219 252.625 C 178.703125 252.933594 181.425781 253.265625 184.183594 253.585938 C 185.046875 253.695312 185.945312 253.667969 186.777344 253.5 C 187.789062 253.28125 188.921875 253.265625 189.660156 252.382812 C 189.726562 252.289062 189.820312 252.320312 189.886719 252.226562 C 190.171875 251.648438 190.476562 251.054688 190.75 250.460938 C 191.746094 248.355469 193.152344 247.070312 195.714844 247.164062 C 197.507812 247.226562 199.078125 247.59375 200.503906 248.601562 C 200.746094 248.476562 201.03125 248.414062 201.253906 248.25 C 205.707031 244.695312 209.390625 240.472656 212.371094 235.664062 Z M 147.703125 224.90625 C 145.234375 224.328125 143.539062 222.796875 142.703125 220.328125 C 142.511719 219.707031 142.609375 219.144531 143.027344 218.46875 C 145.367188 222.601562 148.871094 222.648438 151.480469 221.285156 C 152.15625 220.933594 152.636719 220.316406 153.242188 219.8125 C 153.59375 219.492188 153.980469 218.984375 154.519531 219.273438 C 155.035156 219.558594 154.8125 220.136719 154.84375 220.652344 C 154.910156 221.191406 154.714844 221.738281 154.394531 222.183594 C 153.179688 224.140625 150.136719 225.464844 147.703125 224.90625 Z M 153.019531 205.441406 C 152.761719 204.734375 152.828125 204.03125 152.90625 202.96875 C 156.03125 207.503906 160.449219 207.230469 163.332031 204.0625 C 163.621094 203.757812 163.941406 203.289062 164.421875 203.484375 C 165.0625 203.710938 164.773438 204.316406 164.820312 204.800781 C 164.867188 205.339844 164.757812 205.886719 164.453125 206.367188 C 162.945312 208.578125 160.703125 209.503906 158.171875 209.28125 C 155.773438 209.085938 153.996094 207.707031 153.019531 205.441406 Z M 164.515625 193.046875 C 160.992188 193.621094 157.210938 190.582031 157.519531 187.371094 C 157.535156 187.234375 157.628906 187.089844 157.757812 186.769531 C 160.863281 191.074219 164.070312 191.347656 167.945312 187.859375 C 168.296875 187.527344 168.585938 186.976562 169.160156 187.238281 C 169.640625 187.464844 169.382812 188.03125 169.480469 188.429688 C 169.933594 190.292969 167.367188 192.5625 164.515625 193.046875 Z M 164.164062 176.152344 C 161.957031 175.863281 160.03125 173.933594 159.695312 171.660156 C 159.644531 171.414062 159.617188 171.125 159.679688 170.859375 C 159.710938 170.691406 159.871094 170.507812 160.03125 170.246094 C 160.894531 171.425781 161.679688 172.554688 163.042969 173.121094 C 165.542969 174.152344 167.476562 173.023438 169.382812 171.5625 C 169.835938 171.238281 170.34375 170.335938 170.859375 170.769531 C 171.5 171.308594 171.246094 172.335938 170.957031 173.089844 C 170.089844 175.191406 167.015625 176.535156 164.164062 176.152344 Z M 182.039062 188.121094 C 183.097656 187.660156 184.023438 186.976562 184.859375 186.148438 C 185.179688 185.867188 185.464844 185.398438 185.976562 185.566406 C 186.617188 185.78125 186.25 186.417969 186.265625 186.46875 C 186.601562 187.953125 185.851562 188.660156 185.210938 189.296875 C 183.445312 191.136719 181.265625 191.859375 178.738281 191.117188 C 176.496094 190.496094 175.023438 189.132812 174.542969 186.742188 C 174.476562 186.25 174.253906 185.628906 174.800781 185.410156 C 175.375 185.175781 175.390625 185.898438 175.597656 186.226562 C 176.945312 188.261719 179.730469 189.121094 182.039062 188.121094 Z M 177.234375 204.9375 C 179.761719 205.949219 181.941406 205.246094 183.894531 203.417969 C 184.503906 202.875 185.144531 201.722656 185.976562 202.34375 C 186.921875 203.066406 186.234375 204.1875 185.722656 205.046875 C 184.1875 207.519531 181.78125 208.320312 179.042969 208.027344 C 176.6875 207.804688 174.957031 206.558594 174.03125 204.285156 C 173.707031 203.484375 173.582031 202.714844 174.253906 201.941406 C 175.054688 203.164062 175.824219 204.414062 177.234375 204.9375 Z M 184.375 173.980469 C 183.222656 172.808594 182.789062 171.441406 183.191406 169.582031 C 186.296875 173.730469 189.339844 173.976562 193.085938 170.628906 C 193.40625 170.351562 193.664062 169.789062 194.175781 170.078125 C 194.59375 170.335938 194.6875 170.890625 194.625 171.414062 C 194.464844 172.652344 193.632812 173.476562 192.769531 174.25 C 190.492188 176.304688 186.503906 176.160156 184.375 173.980469 Z M 205.546875 174.453125 C 207.789062 174.820312 209.644531 173.933594 211.25 172.402344 C 211.601562 172.050781 211.984375 171.375 212.578125 171.632812 C 213.265625 171.933594 212.976562 172.726562 212.929688 173.261719 C 212.789062 175.191406 211.347656 176.046875 209.808594 176.753906 C 206.441406 178.292969 202.277344 176.609375 201.191406 173.324219 C 200.96875 172.671875 200.902344 172.070312 201.253906 171.070312 C 202.410156 172.816406 203.671875 174.148438 205.546875 174.453125 Z M 221.5625 187.144531 C 221.65625 189.105469 219.800781 191.078125 217.140625 191.859375 C 213.523438 192.914062 209.808594 190.644531 209.425781 187.050781 C 209.375 186.683594 209.457031 186.410156 209.746094 185.984375 C 212.304688 189.207031 214.722656 189.972656 217.703125 188.546875 C 218.710938 188.050781 219.320312 187.066406 220.25 186.472656 C 220.539062 186.300781 220.792969 185.824219 221.242188 186.101562 C 221.625 186.328125 221.5625 186.769531 221.5625 187.144531 Z M 215.636719 219.878906 C 214.515625 222.566406 211.777344 223.6875 209.164062 223.558594 C 206.347656 223.398438 204.203125 221.414062 203.722656 218.851562 C 203.65625 218.402344 203.5625 217.957031 204.109375 217.472656 C 205.546875 219.367188 207.054688 220.964844 209.710938 220.679688 C 211.394531 220.484375 212.726562 219.78125 213.90625 218.597656 C 214.324219 218.179688 214.835938 217.410156 215.527344 217.894531 C 216.183594 218.375 215.921875 219.171875 215.636719 219.878906 Z M 196.789062 191.730469 C 194.082031 191.285156 192.464844 189.007812 192.800781 185.792969 C 193.921875 187.125 194.65625 188.46875 196.261719 188.785156 C 198.628906 189.332031 200.550781 188.46875 202.3125 186.957031 C 202.664062 186.625 202.953125 186 203.5 186.316406 C 204.167969 186.667969 203.980469 187.371094 203.851562 187.949219 C 203.273438 190.480469 199.875 192.292969 196.789062 191.730469 Z M 212.882812 207.039062 C 210.671875 206.75 208.523438 204.75 208.078125 202.617188 C 207.949219 202.042969 207.980469 201.53125 208.433594 200.953125 C 210.996094 204.796875 214.246094 205.246094 217.847656 202.425781 C 218.328125 202.042969 218.84375 201.019531 219.578125 201.660156 C 220.21875 202.199219 219.996094 203.101562 219.644531 203.851562 C 218.664062 205.980469 215.703125 207.390625 212.882812 207.039062 Z M 188.828125 211.199219 C 191.226562 214.625 194.191406 215.554688 197.058594 213.859375 C 197.761719 213.429688 198.308594 212.769531 198.949219 212.257812 C 199.347656 211.90625 199.78125 211.394531 200.355469 211.683594 C 200.964844 212.019531 200.742188 212.640625 200.632812 213.1875 C 200.003906 216.324219 195.777344 218.34375 192.433594 217.09375 C 189.628906 216.066406 188.15625 213.765625 188.828125 211.199219 Z M 195.105469 230.03125 C 197.539062 233.492188 200.488281 234.414062 203.371094 232.683594 C 204.074219 232.285156 204.589844 231.628906 205.230469 231.085938 C 205.644531 230.75 206.0625 230.21875 206.671875 230.539062 C 207.246094 230.859375 207.039062 231.503906 206.925781 232.042969 C 206.285156 235.1875 202.058594 237.199219 198.726562 235.953125 C 195.9375 234.898438 194.464844 232.621094 195.105469 230.03125 Z M 166.277344 232.238281 C 165.449219 234.671875 162.019531 236.292969 159.136719 235.664062 C 155.933594 234.960938 154.238281 232.785156 154.523438 229.820312 C 154.523438 229.742188 154.621094 229.644531 154.683594 229.59375 C 154.972656 229.5625 155.070312 229.789062 155.148438 229.960938 C 156.925781 233.710938 161.539062 233.8125 164.550781 231.023438 C 164.96875 230.632812 165.351562 229.664062 166.121094 230.21875 C 166.726562 230.703125 166.503906 231.550781 166.277344 232.238281 Z M 170.699219 224.585938 C 167.914062 223.558594 166.4375 221.253906 167.078125 218.664062 C 169.511719 222.121094 172.488281 223.042969 175.34375 221.339844 C 176.046875 220.933594 176.589844 220.242188 177.234375 219.734375 C 177.617188 219.398438 178.0625 218.851562 178.640625 219.171875 C 179.234375 219.496094 179.027344 220.121094 178.914062 220.683594 C 178.257812 223.820312 174.058594 225.835938 170.699219 224.585938 Z M 174.769531 229.292969 C 175.152344 229.773438 175.410156 230.03125 175.585938 230.382812 C 177.007812 233.328125 181.605469 233.839844 184.039062 231.761719 C 184.214844 231.597656 184.375 231.476562 184.550781 231.3125 C 185.144531 230.800781 185.914062 229.664062 186.457031 230.253906 C 187.097656 230.894531 186.941406 232.179688 186.332031 233.171875 C 184.632812 235.925781 180.117188 236.820312 177.234375 234.898438 C 174.957031 233.421875 174.125 231.691406 174.769531 229.292969 Z M 174.769531 229.292969 " fill-opacity="1" fill-rule="nonzero"/><path fill="#fdfefd" d="M 209.519531 133.394531 C 222.074219 133.429688 232.582031 122.863281 232.613281 110.167969 C 232.613281 97.4375 222.554688 87.222656 210 87.199219 C 197.21875 87.171875 187.257812 97.257812 187.195312 110.269531 C 187.128906 123.179688 196.964844 133.339844 209.519531 133.394531 Z M 209.488281 97.257812 C 216.34375 97.285156 222.171875 103.25 222.125 110.269531 C 222.078125 117.683594 216.277344 123.542969 209.023438 123.476562 C 202.023438 123.4375 196.261719 117.523438 196.292969 110.414062 C 196.324219 103 202.121094 97.242188 209.488281 97.257812 Z M 209.488281 97.257812 " fill-opacity="1" fill-rule="nonzero"/><path fill="#fdfdfd" d="M 152.1875 133.394531 C 164.773438 133.492188 174.828125 123.421875 174.910156 110.628906 C 175.019531 97.683594 165.125 87.285156 152.632812 87.222656 C 139.804688 87.140625 129.988281 97.058594 129.667969 109.917969 C 129.332031 122.382812 139.5 133.550781 152.1875 133.394531 Z M 152.027344 97.300781 C 159.007812 97.40625 164.675781 103.3125 164.648438 110.472656 C 164.617188 117.742188 158.832031 123.511719 151.578125 123.511719 C 144.515625 123.496094 138.925781 117.636719 138.925781 110.273438 C 138.925781 102.992188 144.816406 97.191406 152.027344 97.300781 Z M 152.027344 97.300781 " fill-opacity="1" fill-rule="nonzero"/><path fill="#fec53f" d="M 174.269531 127.832031 C 176.558594 131.082031 178.800781 134.347656 180.980469 137.65625 C 181.75 138.894531 182.164062 138.742188 182.933594 137.671875 C 185.253906 134.335938 187.644531 131.027344 190.042969 127.753906 C 190.476562 127.152344 190.398438 126.832031 190.011719 126.324219 C 188.539062 124.355469 186.792969 122.695312 184.660156 121.484375 C 183.890625 121.046875 183.027344 120.796875 182.003906 120.789062 C 181.796875 120.832031 181.492188 120.894531 181.171875 120.964844 C 178.257812 121.566406 176.496094 123.757812 174.492188 125.632812 C 173.691406 126.386719 173.628906 126.929688 174.269531 127.832031 Z M 174.269531 127.832031 " fill-opacity="1" fill-rule="nonzero"/><path fill="#fec53f" d="M 175.199219 250.492188 C 173.421875 245.78125 169.703125 245.402344 166.503906 247.308594 C 165.542969 247.882812 164.867188 247.769531 164.101562 247.417969 C 160.609375 245.816406 157.757812 246.808594 156.316406 250.234375 C 156.476562 250.90625 156.285156 251.515625 156.171875 252.1875 C 155.804688 254.414062 155.773438 256.65625 156.351562 258.882812 C 156.671875 259.390625 156.925781 259.921875 157.277344 260.382812 C 158.914062 262.871094 162.917969 262.917969 164.617188 260.515625 C 166.199219 258.273438 166.199219 258.273438 168.234375 260.289062 C 170.636719 262.6875 173.679688 262.214844 175.214844 259.199219 C 175.761719 257.054688 175.628906 254.808594 175.953125 252.621094 C 175.375 252.027344 175.457031 251.199219 175.199219 250.492188 Z M 175.199219 250.492188 " fill-opacity="1" fill-rule="nonzero"/><path fill="#ce8c5b" d="M 186.328125 233.171875 C 186.9375 232.175781 187.097656 230.894531 186.457031 230.25 C 185.914062 229.664062 185.144531 230.800781 184.550781 231.308594 C 184.375 231.472656 184.214844 231.597656 184.039062 231.761719 C 181.601562 233.839844 177.007812 233.328125 175.582031 230.382812 C 175.40625 230.03125 175.152344 229.773438 174.765625 229.292969 C 174.125 231.691406 174.957031 233.421875 177.234375 234.894531 C 180.117188 236.820312 184.632812 235.925781 186.328125 233.171875 Z M 186.328125 233.171875 " fill-opacity="1" fill-rule="nonzero"/><path fill="#ce8c5b" d="M 174.03125 204.285156 C 174.957031 206.558594 176.6875 207.808594 179.042969 208.03125 C 181.78125 208.320312 184.1875 207.519531 185.722656 205.050781 C 186.234375 204.191406 186.921875 203.070312 185.976562 202.347656 C 185.144531 201.722656 184.507812 202.878906 183.894531 203.421875 C 181.941406 205.246094 179.761719 205.949219 177.234375 204.941406 C 175.824219 204.414062 175.054688 203.164062 174.253906 201.945312 C 173.582031 202.71875 173.707031 203.484375 174.03125 204.285156 Z M 174.03125 204.285156 " fill-opacity="1" fill-rule="nonzero"/><path fill="#ce8c5b" d="M 217.703125 188.546875 C 214.722656 189.972656 212.304688 189.203125 209.742188 185.980469 C 209.453125 186.40625 209.375 186.683594 209.421875 187.050781 C 209.808594 190.644531 213.519531 192.914062 217.140625 191.859375 C 219.800781 191.074219 221.65625 189.105469 221.5625 187.140625 C 221.5625 186.769531 221.625 186.328125 221.242188 186.101562 C 220.792969 185.824219 220.535156 186.296875 220.246094 186.46875 C 219.320312 187.066406 218.710938 188.046875 217.703125 188.546875 Z M 217.703125 188.546875 " fill-opacity="1" fill-rule="nonzero"/><path fill="#ce8c5b" d="M 154.84375 220.648438 C 154.8125 220.132812 155.039062 219.558594 154.523438 219.269531 C 153.980469 218.980469 153.59375 219.492188 153.242188 219.8125 C 152.636719 220.3125 152.15625 220.929688 151.484375 221.285156 C 148.871094 222.644531 145.367188 222.597656 143.027344 218.464844 C 142.609375 219.140625 142.515625 219.703125 142.707031 220.328125 C 143.539062 222.792969 145.238281 224.324219 147.703125 224.90625 C 150.136719 225.464844 153.183594 224.140625 154.398438 222.183594 C 154.714844 221.738281 154.910156 221.191406 154.84375 220.648438 Z M 154.84375 220.648438 " fill-opacity="1" fill-rule="nonzero"/><path fill="#ce8c5b" d="M 213.90625 218.597656 C 212.722656 219.78125 211.390625 220.484375 209.710938 220.683594 C 207.050781 220.964844 205.546875 219.367188 204.105469 217.476562 C 203.5625 217.957031 203.65625 218.402344 203.722656 218.855469 C 204.203125 221.417969 206.347656 223.398438 209.164062 223.5625 C 211.773438 223.6875 214.511719 222.570312 215.636719 219.878906 C 215.921875 219.175781 216.179688 218.375 215.523438 217.898438 C 214.835938 217.410156 214.324219 218.179688 213.90625 218.597656 Z M 213.90625 218.597656 " fill-opacity="1" fill-rule="nonzero"/><path fill="#ce8c5b" d="M 178.914062 220.683594 C 179.027344 220.121094 179.234375 219.496094 178.640625 219.171875 C 178.066406 218.851562 177.617188 219.398438 177.234375 219.734375 C 176.59375 220.242188 176.046875 220.933594 175.34375 221.339844 C 172.488281 223.042969 169.511719 222.121094 167.078125 218.664062 C 166.4375 221.253906 167.910156 223.558594 170.699219 224.585938 C 174.058594 225.835938 178.257812 223.820312 178.914062 220.683594 Z M 178.914062 220.683594 " fill-opacity="1" fill-rule="nonzero"/><path fill="#ce8c5b" d="M 200.632812 213.1875 C 200.742188 212.640625 200.96875 212.019531 200.355469 211.683594 C 199.78125 211.394531 199.351562 211.902344 198.949219 212.257812 C 198.308594 212.769531 197.761719 213.429688 197.058594 213.855469 C 194.191406 215.554688 191.226562 214.625 188.828125 211.199219 C 188.15625 213.765625 189.628906 216.066406 192.433594 217.089844 C 195.777344 218.34375 200.003906 216.324219 200.632812 213.1875 Z M 200.632812 213.1875 " fill-opacity="1" fill-rule="nonzero"/><path fill="#ce8c5b" d="M 206.925781 232.042969 C 207.035156 231.503906 207.246094 230.859375 206.667969 230.539062 C 206.058594 230.21875 205.644531 230.75 205.226562 231.085938 C 204.585938 231.625 204.074219 232.285156 203.367188 232.683594 C 200.484375 234.417969 197.539062 233.492188 195.105469 230.03125 C 194.460938 232.621094 195.9375 234.898438 198.722656 235.953125 C 202.054688 237.199219 206.285156 235.1875 206.925781 232.042969 Z M 206.925781 232.042969 " fill-opacity="1" fill-rule="nonzero"/><path fill="#ce8c5b" d="M 169.484375 188.429688 C 169.382812 188.03125 169.640625 187.464844 169.164062 187.238281 C 168.585938 186.976562 168.296875 187.527344 167.945312 187.859375 C 164.070312 191.347656 160.867188 191.078125 157.757812 186.769531 C 157.628906 187.089844 157.535156 187.230469 157.519531 187.371094 C 157.210938 190.582031 160.996094 193.621094 164.515625 193.046875 C 167.367188 192.5625 169.933594 190.292969 169.484375 188.429688 Z M 169.484375 188.429688 " fill-opacity="1" fill-rule="nonzero"/><path fill="#ce8c5b" d="M 158.175781 209.28125 C 160.703125 209.5 162.945312 208.578125 164.453125 206.363281 C 164.757812 205.886719 164.871094 205.339844 164.820312 204.796875 C 164.773438 204.316406 165.0625 203.707031 164.421875 203.484375 C 163.941406 203.289062 163.621094 203.757812 163.332031 204.0625 C 160.449219 207.230469 156.03125 207.503906 152.90625 202.964844 C 152.832031 204.03125 152.761719 204.734375 153.019531 205.4375 C 153.996094 207.707031 155.773438 209.085938 158.175781 209.28125 Z M 158.175781 209.28125 " fill-opacity="1" fill-rule="nonzero"/><path fill="#ce8c5b" d="M 164.550781 231.023438 C 161.539062 233.8125 156.925781 233.710938 155.148438 229.960938 C 155.070312 229.789062 154.972656 229.5625 154.683594 229.59375 C 154.621094 229.644531 154.523438 229.742188 154.523438 229.820312 C 154.238281 232.785156 155.933594 234.960938 159.136719 235.664062 C 162.019531 236.292969 165.449219 234.671875 166.277344 232.238281 C 166.503906 231.550781 166.726562 230.703125 166.121094 230.21875 C 165.351562 229.664062 164.964844 230.636719 164.550781 231.023438 Z M 164.550781 231.023438 " fill-opacity="1" fill-rule="nonzero"/><path fill="#ce8c5b" d="M 174.800781 185.410156 C 174.253906 185.628906 174.476562 186.25 174.542969 186.742188 C 175.023438 189.132812 176.496094 190.496094 178.738281 191.117188 C 181.265625 191.859375 183.445312 191.136719 185.210938 189.296875 C 185.847656 188.660156 186.601562 187.953125 186.265625 186.46875 C 186.25 186.417969 186.621094 185.78125 185.976562 185.566406 C 185.464844 185.394531 185.179688 185.867188 184.859375 186.148438 C 184.023438 186.976562 183.09375 187.660156 182.039062 188.121094 C 179.730469 189.121094 176.945312 188.261719 175.601562 186.226562 C 175.390625 185.898438 175.375 185.175781 174.800781 185.410156 Z M 174.800781 185.410156 " fill-opacity="1" fill-rule="nonzero"/><path fill="#ce8c5b" d="M 219.574219 201.660156 C 218.839844 201.019531 218.328125 202.042969 217.847656 202.425781 C 214.242188 205.242188 210.992188 204.796875 208.429688 200.953125 C 207.980469 201.53125 207.949219 202.042969 208.078125 202.617188 C 208.523438 204.75 210.671875 206.75 212.882812 207.039062 C 215.699219 207.390625 218.664062 205.980469 219.640625 203.851562 C 219.992188 203.101562 220.21875 202.203125 219.574219 201.660156 Z M 219.574219 201.660156 " fill-opacity="1" fill-rule="nonzero"/><path fill="#ce8c5b" d="M 201.191406 173.324219 C 202.277344 176.609375 206.441406 178.292969 209.808594 176.753906 C 211.347656 176.046875 212.785156 175.191406 212.929688 173.261719 C 212.980469 172.726562 213.269531 171.933594 212.578125 171.632812 C 211.984375 171.378906 211.601562 172.050781 211.25 172.402344 C 209.648438 173.933594 207.789062 174.820312 205.546875 174.453125 C 203.671875 174.144531 202.410156 172.816406 201.253906 171.070312 C 200.902344 172.070312 200.96875 172.671875 201.191406 173.324219 Z M 201.191406 173.324219 " fill-opacity="1" fill-rule="nonzero"/><path fill="#ce8c5b" d="M 192.769531 174.25 C 193.632812 173.476562 194.464844 172.652344 194.625 171.414062 C 194.691406 170.890625 194.59375 170.335938 194.175781 170.078125 C 193.664062 169.789062 193.40625 170.351562 193.085938 170.628906 C 189.339844 173.976562 186.296875 173.726562 183.191406 169.582031 C 182.792969 171.441406 183.222656 172.808594 184.375 173.980469 C 186.503906 176.160156 190.492188 176.304688 192.769531 174.25 Z M 192.769531 174.25 " fill-opacity="1" fill-rule="nonzero"/><path fill="#ce8c5b" d="M 203.5 186.3125 C 202.953125 185.996094 202.664062 186.625 202.308594 186.953125 C 200.546875 188.46875 198.625 189.332031 196.261719 188.78125 C 194.65625 188.464844 193.921875 187.125 192.800781 185.789062 C 192.460938 189.007812 194.082031 191.285156 196.789062 191.726562 C 199.875 192.292969 203.273438 190.480469 203.847656 187.945312 C 203.976562 187.371094 204.167969 186.664062 203.5 186.3125 Z M 203.5 186.3125 " fill-opacity="1" fill-rule="nonzero"/><path fill="#ce8c5b" d="M 170.957031 173.089844 C 171.242188 172.335938 171.496094 171.308594 170.859375 170.769531 C 170.347656 170.335938 169.835938 171.238281 169.382812 171.5625 C 167.476562 173.023438 165.542969 174.152344 163.042969 173.121094 C 161.683594 172.558594 160.898438 171.429688 160.03125 170.246094 C 159.871094 170.507812 159.710938 170.691406 159.679688 170.859375 C 159.617188 171.125 159.644531 171.410156 159.695312 171.660156 C 160.03125 173.933594 161.957031 175.863281 164.164062 176.152344 C 167.015625 176.535156 170.089844 175.191406 170.957031 173.089844 Z M 170.957031 173.089844 " fill-opacity="1" fill-rule="nonzero"/><path fill="#b35931" d="M 209.023438 123.476562 C 216.277344 123.542969 222.074219 117.683594 222.125 110.269531 C 222.171875 103.25 216.34375 97.285156 209.488281 97.257812 C 202.125 97.242188 196.324219 103 196.292969 110.414062 C 196.261719 117.523438 202.023438 123.4375 209.023438 123.476562 Z M 209.375 103.085938 C 214.035156 103.40625 217.140625 106.449219 217.109375 111.367188 C 217.09375 116.121094 213.617188 119.484375 208.753906 119.472656 C 204.457031 119.441406 200.917969 115.738281 200.777344 111.425781 C 200.648438 107.332031 204.585938 102.769531 209.375 103.085938 Z M 209.375 103.085938 " fill-opacity="1" fill-rule="nonzero"/><path fill="#b35931" d="M 151.578125 123.511719 C 158.832031 123.511719 164.613281 117.742188 164.644531 110.472656 C 164.675781 103.3125 159.007812 97.40625 152.023438 97.300781 C 144.816406 97.191406 138.921875 102.992188 138.921875 110.269531 C 138.925781 117.632812 144.511719 123.496094 151.578125 123.511719 Z M 151.734375 103.171875 C 155.484375 102.574219 160.0625 106.910156 160 110.914062 C 159.90625 115.855469 156.414062 119.484375 151.578125 119.472656 C 146.929688 119.472656 143.378906 115.863281 143.378906 111.144531 C 143.378906 106.695312 147.09375 103.171875 151.734375 103.171875 Z M 151.734375 103.171875 " fill-opacity="1" fill-rule="nonzero"/><path fill="#623717" d="M 208.753906 119.472656 C 213.621094 119.484375 217.09375 116.121094 217.109375 111.367188 C 217.140625 106.449219 214.035156 103.40625 209.375 103.085938 C 204.585938 102.765625 200.648438 107.332031 200.777344 111.425781 C 200.917969 115.738281 204.457031 119.441406 208.753906 119.472656 Z M 208.753906 119.472656 " fill-opacity="1" fill-rule="nonzero"/><path fill="#623717" d="M 151.578125 119.472656 C 156.414062 119.484375 159.90625 115.859375 160 110.914062 C 160.0625 106.910156 155.484375 102.574219 151.734375 103.171875 C 147.09375 103.171875 143.378906 106.695312 143.378906 111.144531 C 143.378906 115.863281 146.929688 119.472656 151.578125 119.472656 Z M 151.578125 119.472656 " fill-opacity="1" fill-rule="nonzero"/></svg>