<svg xmlns="http://www.w3.org/2000/svg" xmlns:xlink="http://www.w3.org/1999/xlink" width="480" zoomAndPan="magnify" viewBox="0 0 360 359.999987" height="480" preserveAspectRatio="xMidYMid meet" version="1.0"><defs><clipPath id="6389bfc145"><path d="M 53 56.578125 L 88 56.578125 L 88 95 L 53 95 Z M 53 56.578125 " clip-rule="nonzero"/></clipPath><clipPath id="08f6ffe3ee"><path d="M 155 56.578125 L 189 56.578125 L 189 95 L 155 95 Z M 155 56.578125 " clip-rule="nonzero"/></clipPath><clipPath id="da6aab2ed3"><path d="M 55 56.578125 L 186 56.578125 L 186 167 L 55 167 Z M 55 56.578125 " clip-rule="nonzero"/></clipPath><clipPath id="4a1d3051d5"><path d="M 87 56.578125 L 155 56.578125 L 155 120 L 87 120 Z M 87 56.578125 " clip-rule="nonzero"/></clipPath></defs><rect x="-36" width="432" fill="#ffffff" y="-35.999999" height="431.999984" fill-opacity="1"/><rect x="-36" width="432" fill="#ffffff" y="-35.999999" height="431.999984" fill-opacity="1"/><path fill="#8f4414" d="M 185.414062 221.359375 C 185.414062 221.359375 213.304688 231.5 214.148438 196.863281 C 214.992188 162.222656 186.113281 106.28125 237.808594 81.964844 C 280.914062 61.683594 324.007812 109.003906 311.335938 152.082031 C 298.660156 195.175781 260.625 185.035156 260.625 185.035156 C 260.625 185.035156 262.3125 247.554688 218.375 260.222656 C 174.425781 272.894531 154.148438 236.570312 154.148438 236.570312 Z M 185.414062 221.359375 " fill-opacity="1" fill-rule="nonzero"/><path fill="#591f01" d="M 260.625 186.304688 C 260.457031 186.304688 260.285156 186.265625 260.125 186.199219 C 259.925781 186.113281 239.816406 177.074219 244.167969 152.710938 C 246.433594 140.039062 255.46875 134.449219 263.59375 134.449219 C 263.765625 134.449219 263.933594 134.449219 264.097656 134.457031 C 272.070312 134.683594 280.753906 140.179688 282.164062 151.933594 C 282.25 152.625 281.757812 153.257812 281.054688 153.34375 C 280.363281 153.429688 279.730469 152.925781 279.644531 152.234375 C 278.410156 141.972656 270.914062 137.1875 264.019531 136.988281 C 257.375 136.796875 248.84375 140.921875 246.652344 153.15625 C 242.664062 175.5 260.371094 183.546875 261.128906 183.878906 C 261.773438 184.164062 262.058594 184.902344 261.785156 185.546875 C 261.585938 186.019531 261.121094 186.304688 260.625 186.304688 Z M 260.625 186.304688 " fill-opacity="1" fill-rule="nonzero"/><path fill="#591f01" d="M 225.335938 225.59375 C 225.515625 225.773438 225.59375 226.035156 225.578125 226.382812 C 225.5625 226.730469 225.449219 227.136719 225.238281 227.597656 C 225.027344 228.058594 224.738281 228.542969 224.367188 229.050781 C 223.996094 229.558594 223.570312 230.050781 223.097656 230.527344 C 222.621094 231.003906 222.128906 231.425781 221.621094 231.796875 C 221.113281 232.167969 220.628906 232.457031 220.164062 232.667969 C 219.703125 232.878906 219.296875 232.992188 218.953125 233.007812 C 218.605469 233.023438 218.339844 232.945312 218.164062 232.765625 C 217.984375 232.585938 217.902344 232.324219 217.921875 231.976562 C 217.9375 231.628906 218.050781 231.226562 218.261719 230.761719 C 218.46875 230.300781 218.761719 229.816406 219.132812 229.308594 C 219.503906 228.800781 219.925781 228.308594 220.402344 227.832031 C 220.878906 227.359375 221.367188 226.933594 221.875 226.5625 C 222.382812 226.191406 222.871094 225.902344 223.332031 225.691406 C 223.792969 225.484375 224.199219 225.371094 224.546875 225.351562 C 224.894531 225.335938 225.15625 225.417969 225.335938 225.59375 Z M 225.335938 225.59375 " fill-opacity="1" fill-rule="nonzero"/><path fill="#591f01" d="M 227.1875 154.453125 C 227.230469 154.835938 227.226562 155.210938 227.171875 155.578125 C 227.117188 155.941406 227.015625 156.269531 226.871094 156.5625 C 226.722656 156.855469 226.542969 157.085938 226.328125 157.261719 C 226.113281 157.433594 225.882812 157.535156 225.628906 157.5625 C 225.378906 157.59375 225.128906 157.546875 224.878906 157.429688 C 224.632812 157.308594 224.402344 157.125 224.191406 156.871094 C 223.984375 156.621094 223.8125 156.324219 223.675781 155.984375 C 223.535156 155.640625 223.445312 155.277344 223.402344 154.894531 C 223.355469 154.511719 223.363281 154.136719 223.417969 153.769531 C 223.472656 153.40625 223.574219 153.078125 223.71875 152.785156 C 223.863281 152.492188 224.046875 152.261719 224.261719 152.089844 C 224.476562 151.914062 224.707031 151.8125 224.957031 151.785156 C 225.210938 151.753906 225.460938 151.800781 225.707031 151.917969 C 225.957031 152.039062 226.1875 152.226562 226.394531 152.476562 C 226.605469 152.726562 226.777344 153.023438 226.914062 153.363281 C 227.050781 153.707031 227.144531 154.070312 227.1875 154.453125 Z M 227.1875 154.453125 " fill-opacity="1" fill-rule="nonzero"/><path fill="#591f01" d="M 241.558594 211.058594 C 241.601562 211.441406 241.597656 211.816406 241.542969 212.179688 C 241.488281 212.546875 241.386719 212.875 241.242188 213.167969 C 241.09375 213.457031 240.914062 213.691406 240.699219 213.863281 C 240.484375 214.039062 240.25 214.140625 240 214.167969 C 239.75 214.199219 239.5 214.152344 239.25 214.03125 C 239 213.914062 238.773438 213.726562 238.5625 213.476562 C 238.355469 213.226562 238.183594 212.929688 238.042969 212.585938 C 237.90625 212.246094 237.816406 211.882812 237.773438 211.5 C 237.726562 211.113281 237.734375 210.742188 237.789062 210.375 C 237.84375 210.011719 237.941406 209.683594 238.089844 209.390625 C 238.234375 209.097656 238.414062 208.867188 238.628906 208.691406 C 238.84375 208.519531 239.078125 208.417969 239.328125 208.386719 C 239.582031 208.359375 239.832031 208.40625 240.078125 208.523438 C 240.328125 208.644531 240.558594 208.828125 240.765625 209.078125 C 240.976562 209.332031 241.148438 209.625 241.285156 209.96875 C 241.421875 210.3125 241.511719 210.675781 241.558594 211.058594 Z M 241.558594 211.058594 " fill-opacity="1" fill-rule="nonzero"/><path fill="#591f01" d="M 210.132812 246.558594 C 210.519531 246.570312 210.886719 246.628906 211.242188 246.734375 C 211.59375 246.84375 211.90625 246.988281 212.171875 247.175781 C 212.441406 247.363281 212.644531 247.574219 212.785156 247.8125 C 212.925781 248.050781 212.992188 248.296875 212.984375 248.550781 C 212.976562 248.800781 212.894531 249.042969 212.742188 249.269531 C 212.585938 249.5 212.371094 249.699219 212.089844 249.871094 C 211.8125 250.039062 211.496094 250.167969 211.136719 250.253906 C 210.777344 250.339844 210.402344 250.375 210.015625 250.367188 C 209.632812 250.355469 209.261719 250.292969 208.910156 250.1875 C 208.554688 250.078125 208.246094 249.933594 207.976562 249.746094 C 207.710938 249.558594 207.507812 249.347656 207.367188 249.109375 C 207.226562 248.871094 207.160156 248.625 207.164062 248.375 C 207.171875 248.121094 207.253906 247.878906 207.410156 247.652344 C 207.5625 247.421875 207.78125 247.222656 208.058594 247.054688 C 208.335938 246.882812 208.65625 246.753906 209.015625 246.667969 C 209.375 246.582031 209.746094 246.546875 210.132812 246.558594 Z M 210.132812 246.558594 " fill-opacity="1" fill-rule="nonzero"/><path fill="#591f01" d="M 267.210938 106.890625 C 267.523438 106.960938 267.828125 107.046875 268.128906 107.152344 C 268.425781 107.257812 268.710938 107.382812 268.984375 107.523438 C 269.257812 107.664062 269.511719 107.820312 269.746094 107.992188 C 269.984375 108.160156 270.195312 108.339844 270.386719 108.535156 C 270.578125 108.726562 270.742188 108.925781 270.878906 109.136719 C 271.015625 109.34375 271.125 109.554688 271.203125 109.769531 C 271.28125 109.984375 271.328125 110.199219 271.347656 110.414062 C 271.367188 110.628906 271.351562 110.839844 271.308594 111.042969 C 271.261719 111.25 271.1875 111.445312 271.085938 111.632812 C 270.980469 111.820312 270.847656 111.996094 270.6875 112.160156 C 270.527344 112.324219 270.339844 112.472656 270.128906 112.605469 C 269.917969 112.738281 269.6875 112.851562 269.433594 112.949219 C 269.179688 113.046875 268.910156 113.125 268.625 113.183594 C 268.339844 113.238281 268.046875 113.277344 267.738281 113.292969 C 267.433594 113.308594 267.121094 113.304688 266.804688 113.277344 C 266.488281 113.25 266.175781 113.203125 265.863281 113.136719 C 265.546875 113.070312 265.242188 112.980469 264.945312 112.875 C 264.644531 112.769531 264.359375 112.644531 264.085938 112.503906 C 263.8125 112.363281 263.558594 112.207031 263.324219 112.039062 C 263.089844 111.867188 262.875 111.6875 262.683594 111.492188 C 262.496094 111.300781 262.332031 111.101562 262.191406 110.894531 C 262.054688 110.683594 261.949219 110.472656 261.867188 110.257812 C 261.789062 110.042969 261.742188 109.828125 261.722656 109.613281 C 261.707031 109.398438 261.71875 109.191406 261.761719 108.984375 C 261.808594 108.78125 261.882812 108.582031 261.984375 108.394531 C 262.089844 108.207031 262.222656 108.03125 262.382812 107.867188 C 262.546875 107.703125 262.730469 107.558594 262.941406 107.425781 C 263.152344 107.292969 263.382812 107.175781 263.636719 107.078125 C 263.890625 106.980469 264.160156 106.90625 264.445312 106.847656 C 264.730469 106.789062 265.023438 106.753906 265.332031 106.734375 C 265.636719 106.71875 265.949219 106.726562 266.265625 106.75 C 266.582031 106.777344 266.894531 106.824219 267.210938 106.890625 Z M 267.210938 106.890625 " fill-opacity="1" fill-rule="nonzero"/><path fill="#591f01" d="M 232.71875 184.683594 C 232.957031 184.765625 233.144531 184.96875 233.28125 185.289062 C 233.417969 185.605469 233.492188 186.019531 233.503906 186.527344 C 233.515625 187.035156 233.464844 187.597656 233.347656 188.21875 C 233.234375 188.835938 233.066406 189.460938 232.847656 190.097656 C 232.625 190.730469 232.363281 191.328125 232.070312 191.878906 C 231.773438 192.433594 231.460938 192.90625 231.136719 193.296875 C 230.808594 193.6875 230.496094 193.964844 230.191406 194.132812 C 229.882812 194.296875 229.613281 194.339844 229.375 194.253906 C 229.136719 194.171875 228.949219 193.96875 228.8125 193.648438 C 228.675781 193.328125 228.605469 192.917969 228.59375 192.410156 C 228.582031 191.902344 228.632812 191.335938 228.746094 190.71875 C 228.859375 190.101562 229.027344 189.476562 229.25 188.839844 C 229.46875 188.207031 229.730469 187.609375 230.027344 187.054688 C 230.320312 186.5 230.632812 186.03125 230.957031 185.640625 C 231.285156 185.25 231.597656 184.972656 231.90625 184.804688 C 232.210938 184.640625 232.480469 184.597656 232.71875 184.683594 Z M 232.71875 184.683594 " fill-opacity="1" fill-rule="nonzero"/><path fill="#591f01" d="M 286.601562 128.265625 C 287.035156 128.78125 287.410156 129.308594 287.734375 129.84375 C 288.0625 130.382812 288.308594 130.894531 288.476562 131.371094 C 288.644531 131.851562 288.71875 132.265625 288.707031 132.613281 C 288.691406 132.957031 288.589844 133.214844 288.394531 133.375 C 288.199219 133.539062 287.933594 133.59375 287.585938 133.546875 C 287.242188 133.5 286.851562 133.351562 286.410156 133.101562 C 285.964844 132.851562 285.507812 132.519531 285.035156 132.105469 C 284.5625 131.6875 284.109375 131.222656 283.679688 130.707031 C 283.246094 130.191406 282.871094 129.664062 282.546875 129.128906 C 282.21875 128.589844 281.972656 128.078125 281.804688 127.601562 C 281.636719 127.121094 281.5625 126.707031 281.574219 126.359375 C 281.589844 126.015625 281.691406 125.757812 281.886719 125.597656 C 282.082031 125.433594 282.347656 125.378906 282.695312 125.425781 C 283.039062 125.472656 283.429688 125.621094 283.875 125.871094 C 284.316406 126.121094 284.773438 126.453125 285.246094 126.867188 C 285.71875 127.285156 286.171875 127.75 286.601562 128.265625 Z M 286.601562 128.265625 " fill-opacity="1" fill-rule="nonzero"/><path fill="#591f01" d="M 239.1875 123.746094 C 239.386719 123.898438 239.503906 124.148438 239.535156 124.496094 C 239.566406 124.839844 239.507812 125.257812 239.363281 125.742188 C 239.21875 126.230469 238.996094 126.75 238.699219 127.304688 C 238.398438 127.855469 238.046875 128.402344 237.640625 128.9375 C 237.234375 129.472656 236.804688 129.960938 236.351562 130.394531 C 235.898438 130.832031 235.460938 131.1875 235.03125 131.457031 C 234.601562 131.726562 234.214844 131.894531 233.871094 131.960938 C 233.53125 132.023438 233.261719 131.980469 233.058594 131.828125 C 232.855469 131.675781 232.742188 131.425781 232.710938 131.078125 C 232.679688 130.734375 232.738281 130.316406 232.882812 129.828125 C 233.027344 129.34375 233.25 128.824219 233.546875 128.269531 C 233.84375 127.714844 234.199219 127.171875 234.605469 126.636719 C 235.011719 126.101562 235.441406 125.613281 235.890625 125.175781 C 236.34375 124.742188 236.785156 124.386719 237.214844 124.117188 C 237.644531 123.84375 238.03125 123.675781 238.371094 123.613281 C 238.714844 123.550781 238.984375 123.59375 239.1875 123.746094 Z M 239.1875 123.746094 " fill-opacity="1" fill-rule="nonzero"/><path fill="#591f01" d="M 245.617188 94.75 C 245.726562 94.902344 245.796875 95.082031 245.828125 95.289062 C 245.859375 95.5 245.847656 95.730469 245.792969 95.984375 C 245.738281 96.242188 245.644531 96.515625 245.511719 96.808594 C 245.378906 97.097656 245.207031 97.40625 244.996094 97.722656 C 244.785156 98.042969 244.542969 98.367188 244.265625 98.699219 C 243.988281 99.03125 243.683594 99.367188 243.347656 99.699219 C 243.011719 100.035156 242.65625 100.363281 242.277344 100.683594 C 241.898438 101.003906 241.503906 101.316406 241.097656 101.613281 C 240.6875 101.910156 240.273438 102.191406 239.851562 102.453125 C 239.429688 102.714844 239.007812 102.953125 238.589844 103.171875 C 238.167969 103.386719 237.757812 103.578125 237.355469 103.742188 C 236.953125 103.902344 236.570312 104.035156 236.203125 104.140625 C 235.835938 104.242188 235.492188 104.3125 235.171875 104.351562 C 234.851562 104.390625 234.5625 104.394531 234.304688 104.367188 C 234.042969 104.339844 233.820312 104.28125 233.632812 104.1875 C 233.441406 104.097656 233.292969 103.976562 233.179688 103.820312 C 233.070312 103.667969 232.996094 103.488281 232.96875 103.28125 C 232.9375 103.074219 232.949219 102.839844 233.003906 102.585938 C 233.054688 102.332031 233.148438 102.058594 233.285156 101.765625 C 233.417969 101.472656 233.589844 101.167969 233.800781 100.847656 C 234.011719 100.527344 234.253906 100.203125 234.53125 99.871094 C 234.808594 99.539062 235.113281 99.207031 235.449219 98.871094 C 235.785156 98.539062 236.140625 98.210938 236.519531 97.886719 C 236.898438 97.566406 237.292969 97.257812 237.699219 96.957031 C 238.109375 96.660156 238.523438 96.378906 238.945312 96.117188 C 239.367188 95.855469 239.789062 95.617188 240.207031 95.398438 C 240.628906 95.183594 241.039062 94.992188 241.441406 94.832031 C 241.839844 94.667969 242.226562 94.535156 242.59375 94.433594 C 242.960938 94.332031 243.304688 94.257812 243.625 94.222656 C 243.945312 94.183594 244.234375 94.175781 244.492188 94.203125 C 244.753906 94.230469 244.976562 94.292969 245.164062 94.382812 C 245.355469 94.472656 245.503906 94.597656 245.617188 94.75 Z M 245.617188 94.75 " fill-opacity="1" fill-rule="nonzero"/><path fill="#591f01" d="M 290.671875 100.84375 C 290.996094 101.113281 291.308594 101.390625 291.609375 101.675781 C 291.910156 101.964844 292.191406 102.253906 292.453125 102.550781 C 292.714844 102.84375 292.953125 103.136719 293.167969 103.429688 C 293.382812 103.71875 293.570312 104.003906 293.726562 104.28125 C 293.886719 104.554688 294.015625 104.820312 294.113281 105.070312 C 294.210938 105.320312 294.273438 105.554688 294.304688 105.769531 C 294.335938 105.984375 294.335938 106.179688 294.300781 106.351562 C 294.265625 106.523438 294.195312 106.667969 294.097656 106.789062 C 293.996094 106.914062 293.863281 107.007812 293.703125 107.074219 C 293.539062 107.140625 293.347656 107.179688 293.132812 107.191406 C 292.914062 107.199219 292.671875 107.179688 292.410156 107.132812 C 292.144531 107.085938 291.859375 107.007812 291.558594 106.90625 C 291.257812 106.800781 290.945312 106.671875 290.617188 106.515625 C 290.292969 106.359375 289.957031 106.183594 289.621094 105.980469 C 289.28125 105.777344 288.941406 105.558594 288.601562 105.320312 C 288.265625 105.078125 287.929688 104.824219 287.605469 104.554688 C 287.28125 104.289062 286.96875 104.011719 286.667969 103.722656 C 286.367188 103.4375 286.089844 103.144531 285.824219 102.851562 C 285.5625 102.554688 285.324219 102.261719 285.109375 101.972656 C 284.894531 101.679688 284.710938 101.398438 284.550781 101.121094 C 284.390625 100.84375 284.261719 100.582031 284.164062 100.332031 C 284.070312 100.078125 284.003906 99.847656 283.972656 99.632812 C 283.941406 99.417969 283.941406 99.222656 283.976562 99.050781 C 284.011719 98.878906 284.082031 98.730469 284.183594 98.609375 C 284.28125 98.488281 284.414062 98.394531 284.578125 98.328125 C 284.738281 98.257812 284.929688 98.21875 285.144531 98.210938 C 285.363281 98.199219 285.605469 98.21875 285.871094 98.269531 C 286.132812 98.316406 286.417969 98.390625 286.71875 98.496094 C 287.019531 98.597656 287.332031 98.730469 287.660156 98.882812 C 287.984375 99.039062 288.320312 99.21875 288.660156 99.417969 C 288.996094 99.621094 289.335938 99.84375 289.675781 100.082031 C 290.015625 100.320312 290.347656 100.574219 290.671875 100.84375 Z M 290.671875 100.84375 " fill-opacity="1" fill-rule="nonzero"/><g clip-path="url(#6389bfc145)"><path fill="#8f4414" d="M 73.851562 92.9375 C 73.851562 92.9375 57.792969 99.695312 54.417969 87.027344 C 51.042969 74.355469 62.867188 56.613281 73.851562 56.613281 C 84.839844 56.613281 87.382812 74.355469 87.382812 74.355469 Z M 73.851562 92.9375 " fill-opacity="1" fill-rule="nonzero"/></g><g clip-path="url(#08f6ffe3ee)"><path fill="#8f4414" d="M 168.558594 92.9375 C 168.558594 92.9375 184.617188 99.695312 187.992188 87.027344 C 191.367188 74.355469 179.546875 56.613281 168.558594 56.613281 C 157.570312 56.613281 155.039062 74.355469 155.039062 74.355469 Z M 168.558594 92.9375 " fill-opacity="1" fill-rule="nonzero"/></g><path fill="#8f4414" d="M 108.503906 235.726562 C 108.503906 235.726562 89.914062 228.96875 83.152344 244.167969 C 76.394531 259.371094 90.726562 274.617188 90.726562 274.617188 C 90.726562 274.617188 70.476562 272.050781 63.710938 280.492188 C 56.941406 288.9375 62.023438 298.234375 74.695312 295.703125 C 87.371094 293.175781 91.601562 291.476562 112.730469 292.320312 C 133.859375 293.164062 131.332031 271.328125 121.605469 262.394531 C 121.605469 262.402344 143.160156 243.324219 108.503906 235.726562 Z M 108.503906 235.726562 " fill-opacity="1" fill-rule="nonzero"/><path fill="#591f01" d="M 75.398438 87.40625 C 75.398438 87.40625 68.421875 90.34375 66.960938 84.835938 C 65.492188 79.332031 70.628906 71.625 75.398438 71.625 C 80.167969 71.625 81.265625 79.332031 81.265625 79.332031 Z M 75.398438 87.40625 " fill-opacity="1" fill-rule="nonzero"/><path fill="#591f01" d="M 167.011719 87.40625 C 167.011719 87.40625 173.988281 90.34375 175.449219 84.835938 C 176.917969 79.332031 171.78125 71.625 167.011719 71.625 C 162.242188 71.625 161.144531 79.332031 161.144531 79.332031 Z M 167.011719 87.40625 " fill-opacity="1" fill-rule="nonzero"/><path fill="#a15b27" d="M 151.609375 277.964844 C 149.636719 278.550781 147.625 279.023438 145.589844 279.402344 C 116.65625 284.871094 81.757812 270.867188 75.539062 239.097656 C 67.9375 200.234375 102.585938 150.386719 102.585938 150.386719 L 104.53125 150.101562 L 154.140625 142.789062 C 161.742188 187.566406 177.800781 179.113281 194.703125 210.375 C 206.535156 232.238281 194.710938 265.292969 151.609375 277.964844 Z M 151.609375 277.964844 " fill-opacity="1" fill-rule="nonzero"/><path fill="#fac092" d="M 147.804688 274.164062 C 147.332031 276.117188 146.582031 277.859375 145.589844 279.414062 C 116.65625 284.882812 81.757812 270.875 75.539062 239.109375 C 67.9375 200.246094 102.585938 150.398438 102.585938 150.398438 L 104.53125 150.113281 L 125.832031 152.511719 C 125.832031 152.511719 110.617188 192.21875 125.832031 217.566406 C 141.046875 242.917969 154.566406 246.28125 147.804688 274.164062 Z M 147.804688 274.164062 " fill-opacity="1" fill-rule="nonzero"/><path fill="#591f01" d="M 73.824219 201.183594 C 73.863281 200.460938 73.835938 199.589844 73.769531 198.804688 C 73.683594 197.988281 73.558594 197.191406 73.390625 196.40625 C 73.039062 194.832031 72.527344 193.316406 71.816406 191.925781 C 71.105469 190.53125 70.296875 189.222656 69.285156 188.085938 C 68.828125 187.488281 68.25 186.976562 67.730469 186.4375 C 67.1875 185.914062 66.574219 185.460938 66.011719 184.976562 L 65.765625 184.757812 C 64.210938 183.40625 64.050781 181.042969 65.40625 179.492188 C 66.761719 177.9375 69.121094 177.773438 70.675781 179.128906 C 70.886719 179.3125 71.085938 179.539062 71.246094 179.746094 C 71.84375 180.570312 72.46875 181.339844 73.007812 182.191406 C 73.53125 183.054688 74.070312 183.886719 74.488281 184.796875 C 75.40625 186.570312 76.023438 188.464844 76.460938 190.359375 C 76.90625 192.265625 77.066406 194.199219 77.027344 196.09375 C 76.980469 198.007812 76.746094 199.816406 76.167969 201.734375 C 75.976562 202.367188 75.3125 202.71875 74.679688 202.527344 C 74.136719 202.367188 73.804688 201.867188 73.824219 201.324219 Z M 73.824219 201.183594 " fill-opacity="1" fill-rule="nonzero"/><path fill="#f19633" d="M 44.742188 222.144531 C 44.742188 222.144531 43.148438 240.445312 53.5 248.40625 C 63.851562 256.367188 70.222656 255.570312 75.789062 261.140625 C 75.789062 261.140625 111.613281 250.792969 104.445312 218.960938 C 104.445312 218.960938 74.195312 205.4375 44.742188 222.144531 Z M 44.742188 222.144531 " fill-opacity="1" fill-rule="nonzero"/><path fill="#591f01" d="M 44.742188 222.144531 C 44.742188 222.144531 35.980469 218.164062 41.554688 208.613281 C 47.128906 199.058594 62.25 195.078125 74.992188 195.078125 C 87.730469 195.078125 104.445312 198.265625 108.425781 207.816406 C 111.792969 215.898438 105.242188 218.960938 105.242188 218.960938 C 105.242188 218.960938 73.398438 207.03125 44.742188 222.144531 Z M 44.742188 222.144531 " fill-opacity="1" fill-rule="nonzero"/><path fill="#a15b27" d="M 138.933594 189.261719 C 138.933594 189.261719 136.402344 202.773438 120.34375 210.386719 C 104.285156 217.996094 94.992188 217.984375 93.296875 226.4375 C 91.609375 234.882812 102.597656 242.492188 121.1875 237.421875 C 139.777344 232.351562 149.078125 210.386719 149.078125 210.386719 Z M 138.933594 189.261719 " fill-opacity="1" fill-rule="nonzero"/><g clip-path="url(#da6aab2ed3)"><path fill="#a15b27" d="M 180.605469 124.507812 C 186.445312 128.324219 186.996094 136.65625 181.734375 141.234375 C 170.046875 151.410156 148.394531 166.195312 121.175781 166.195312 C 94.765625 166.195312 72.5625 152.273438 59.910156 142.144531 C 54.25 137.613281 54.761719 128.867188 60.914062 125.007812 C 61.84375 124.429688 62.828125 123.796875 63.871094 123.121094 C 63.777344 121.816406 63.710938 120.488281 63.710938 119.125 C 63.710938 99.988281 73.066406 81.199219 87.449219 69.3125 C 96.925781 61.46875 108.578125 56.613281 121.1875 56.613281 C 133.746094 56.613281 145.359375 61.429688 154.800781 69.226562 C 169.25 81.113281 178.652344 99.953125 178.652344 119.132812 C 178.652344 120.496094 178.585938 121.816406 178.492188 123.132812 C 179.242188 123.617188 179.941406 124.070312 180.605469 124.507812 Z M 180.605469 124.507812 " fill-opacity="1" fill-rule="nonzero"/></g><g clip-path="url(#4a1d3051d5)"><path fill="#8f4414" d="M 154.800781 69.226562 C 131.480469 84.03125 127.945312 119.976562 127.945312 119.976562 L 117.800781 119.976562 C 113.820312 90.597656 98.976562 76.183594 87.457031 69.324219 C 96.925781 61.46875 108.578125 56.613281 121.1875 56.613281 C 133.738281 56.613281 145.351562 61.429688 154.800781 69.226562 Z M 154.800781 69.226562 " fill-opacity="1" fill-rule="nonzero"/></g><path fill="#ffffff" d="M 117.375 138.988281 L 123.292969 137.300781 L 129.207031 138.988281 L 127.046875 146.199219 C 126.828125 146.929688 126.152344 147.429688 125.386719 147.429688 L 121.195312 147.429688 C 120.429688 147.429688 119.753906 146.929688 119.535156 146.199219 Z M 117.375 138.988281 " fill-opacity="1" fill-rule="nonzero"/><path fill="#000000" d="M 99.640625 116.175781 C 99.640625 116.566406 99.617188 116.949219 99.574219 117.328125 C 99.53125 117.710938 99.464844 118.082031 99.382812 118.4375 C 99.296875 118.796875 99.191406 119.140625 99.066406 119.460938 C 98.945312 119.785156 98.804688 120.082031 98.648438 120.359375 C 98.492188 120.632812 98.320312 120.878906 98.132812 121.09375 C 97.949219 121.308594 97.753906 121.492188 97.550781 121.640625 C 97.34375 121.789062 97.132812 121.902344 96.914062 121.976562 C 96.695312 122.050781 96.476562 122.089844 96.253906 122.089844 C 96.03125 122.089844 95.8125 122.050781 95.59375 121.976562 C 95.375 121.902344 95.164062 121.789062 94.960938 121.640625 C 94.753906 121.492188 94.558594 121.308594 94.375 121.09375 C 94.1875 120.878906 94.019531 120.632812 93.859375 120.359375 C 93.703125 120.082031 93.5625 119.785156 93.441406 119.460938 C 93.316406 119.140625 93.210938 118.796875 93.128906 118.4375 C 93.042969 118.082031 92.976562 117.710938 92.933594 117.328125 C 92.890625 116.949219 92.871094 116.566406 92.871094 116.175781 C 92.871094 115.789062 92.890625 115.402344 92.933594 115.023438 C 92.976562 114.640625 93.042969 114.273438 93.128906 113.914062 C 93.210938 113.554688 93.316406 113.214844 93.441406 112.890625 C 93.5625 112.566406 93.703125 112.269531 93.859375 111.996094 C 94.019531 111.71875 94.1875 111.476562 94.375 111.257812 C 94.558594 111.042969 94.753906 110.863281 94.960938 110.714844 C 95.164062 110.5625 95.375 110.453125 95.59375 110.375 C 95.8125 110.300781 96.03125 110.261719 96.253906 110.261719 C 96.476562 110.261719 96.695312 110.300781 96.914062 110.375 C 97.132812 110.453125 97.34375 110.5625 97.550781 110.714844 C 97.753906 110.863281 97.949219 111.042969 98.132812 111.257812 C 98.320312 111.476562 98.492188 111.71875 98.648438 111.996094 C 98.804688 112.269531 98.945312 112.566406 99.066406 112.890625 C 99.191406 113.214844 99.296875 113.554688 99.382812 113.914062 C 99.464844 114.273438 99.53125 114.640625 99.574219 115.023438 C 99.617188 115.402344 99.640625 115.789062 99.640625 116.175781 Z M 99.640625 116.175781 " fill-opacity="1" fill-rule="nonzero"/><path fill="#000000" d="M 151.191406 116.175781 C 151.191406 116.566406 151.167969 116.949219 151.125 117.328125 C 151.082031 117.710938 151.019531 118.082031 150.933594 118.4375 C 150.847656 118.796875 150.742188 119.140625 150.621094 119.460938 C 150.496094 119.785156 150.355469 120.082031 150.199219 120.359375 C 150.042969 120.632812 149.871094 120.878906 149.6875 121.09375 C 149.5 121.308594 149.304688 121.492188 149.101562 121.640625 C 148.894531 121.789062 148.683594 121.902344 148.464844 121.976562 C 148.25 122.050781 148.027344 122.089844 147.804688 122.089844 C 147.582031 122.089844 147.363281 122.050781 147.144531 121.976562 C 146.929688 121.902344 146.714844 121.789062 146.511719 121.640625 C 146.304688 121.492188 146.109375 121.308594 145.925781 121.09375 C 145.742188 120.878906 145.570312 120.632812 145.414062 120.359375 C 145.257812 120.082031 145.117188 119.785156 144.992188 119.460938 C 144.867188 119.140625 144.765625 118.796875 144.679688 118.4375 C 144.59375 118.082031 144.53125 117.710938 144.488281 117.328125 C 144.445312 116.949219 144.421875 116.566406 144.421875 116.175781 C 144.421875 115.789062 144.445312 115.402344 144.488281 115.023438 C 144.53125 114.640625 144.59375 114.273438 144.679688 113.914062 C 144.765625 113.554688 144.867188 113.214844 144.992188 112.890625 C 145.117188 112.566406 145.257812 112.269531 145.414062 111.996094 C 145.570312 111.71875 145.742188 111.476562 145.925781 111.257812 C 146.109375 111.042969 146.304688 110.863281 146.511719 110.714844 C 146.714844 110.5625 146.929688 110.453125 147.144531 110.375 C 147.363281 110.300781 147.582031 110.261719 147.804688 110.261719 C 148.027344 110.261719 148.25 110.300781 148.464844 110.375 C 148.683594 110.453125 148.894531 110.5625 149.101562 110.714844 C 149.304688 110.863281 149.5 111.042969 149.6875 111.257812 C 149.871094 111.476562 150.042969 111.71875 150.199219 111.996094 C 150.355469 112.269531 150.496094 112.566406 150.621094 112.890625 C 150.742188 113.214844 150.847656 113.554688 150.933594 113.914062 C 151.019531 114.273438 151.082031 114.640625 151.125 115.023438 C 151.167969 115.402344 151.191406 115.789062 151.191406 116.175781 Z M 151.191406 116.175781 " fill-opacity="1" fill-rule="nonzero"/><path fill="#591f01" d="M 139.824219 135.320312 C 139.472656 134.742188 138.714844 134.550781 138.136719 134.902344 L 137.179688 135.480469 C 133.292969 137.8125 128.46875 138 124.429688 136.03125 L 124.429688 118.746094 C 124.429688 118.0625 123.878906 117.511719 123.195312 117.511719 C 122.515625 117.511719 121.964844 118.0625 121.964844 118.746094 L 121.964844 136.03125 C 117.914062 138 113.089844 137.8125 109.214844 135.480469 L 108.257812 134.902344 C 107.675781 134.550781 106.917969 134.742188 106.570312 135.320312 C 106.21875 135.898438 106.40625 136.65625 106.984375 137.007812 L 107.953125 137.585938 C 110.457031 139.082031 113.28125 139.832031 116.105469 139.832031 C 118.542969 139.832031 120.96875 139.269531 123.195312 138.152344 C 125.425781 139.269531 127.859375 139.832031 130.289062 139.832031 C 133.113281 139.832031 135.945312 139.082031 138.441406 137.585938 L 139.398438 137.007812 C 139.984375 136.664062 140.175781 135.90625 139.824219 135.320312 Z M 139.824219 135.320312 " fill-opacity="1" fill-rule="nonzero"/><path fill="#591f01" d="M 129.40625 120.46875 C 129.40625 123.40625 126.429688 127.8125 122.75 127.8125 C 119.074219 127.8125 116.097656 123.40625 116.097656 120.46875 C 116.097656 117.53125 119.074219 117.160156 122.75 117.160156 C 126.429688 117.160156 129.40625 117.53125 129.40625 120.46875 Z M 129.40625 120.46875 " fill-opacity="1" fill-rule="nonzero"/><path fill="#591f01" d="M 135.132812 230.65625 C 134.734375 230.65625 134.335938 230.464844 134.089844 230.117188 C 133.691406 229.539062 133.824219 228.75 134.402344 228.351562 C 142.460938 222.714844 148.28125 209.578125 148.335938 209.445312 C 148.621094 208.800781 149.359375 208.507812 150.003906 208.792969 C 150.648438 209.078125 150.933594 209.816406 150.660156 210.460938 C 150.414062 211.03125 144.496094 224.371094 135.863281 230.417969 C 135.632812 230.578125 135.378906 230.65625 135.132812 230.65625 Z M 135.132812 230.65625 " fill-opacity="1" fill-rule="nonzero"/><path fill="#a15b27" d="M 161.75 240.796875 C 161.75 240.796875 143.160156 234.039062 136.402344 249.238281 C 129.644531 264.441406 143.976562 279.6875 143.976562 279.6875 C 143.976562 279.6875 123.726562 277.121094 116.957031 285.5625 C 110.199219 294.007812 115.269531 303.304688 127.945312 300.773438 C 140.621094 298.242188 144.847656 296.546875 165.980469 297.390625 C 187.109375 298.234375 184.578125 276.398438 174.851562 267.464844 C 174.851562 267.472656 196.398438 248.394531 161.75 240.796875 Z M 161.75 240.796875 " fill-opacity="1" fill-rule="nonzero"/></svg>