<svg xmlns="http://www.w3.org/2000/svg" xmlns:xlink="http://www.w3.org/1999/xlink" width="480" zoomAndPan="magnify" viewBox="0 0 360 359.999987" height="480" preserveAspectRatio="xMidYMid meet" version="1.0"><defs><clipPath id="1807712857"><path d="M 95 228 L 307 228 L 307 305.671875 L 95 305.671875 Z M 95 228 " clip-rule="nonzero"/></clipPath></defs><rect x="-36" width="432" fill="#ffffff" y="-35.999999" height="431.999984" fill-opacity="1"/><rect x="-36" width="432" fill="#ffffff" y="-35.999999" height="431.999984" fill-opacity="1"/><path fill="#132870" d="M 294.539062 177.90625 C 294.539062 179.667969 294.496094 181.421875 294.410156 183.179688 C 294.324219 184.933594 294.195312 186.6875 294.023438 188.4375 C 293.851562 190.1875 293.636719 191.933594 293.378906 193.671875 C 293.121094 195.410156 292.820312 197.140625 292.476562 198.867188 C 292.132812 200.589844 291.75 202.304688 291.320312 204.011719 C 290.894531 205.71875 290.425781 207.410156 289.914062 209.09375 C 289.40625 210.777344 288.855469 212.445312 288.261719 214.101562 C 287.667969 215.753906 287.039062 217.394531 286.363281 219.019531 C 285.691406 220.644531 284.980469 222.25 284.230469 223.839844 C 283.476562 225.429688 282.6875 227 281.859375 228.550781 C 281.03125 230.101562 280.164062 231.628906 279.261719 233.136719 C 278.359375 234.644531 277.417969 236.128906 276.441406 237.59375 C 275.464844 239.054688 274.453125 240.492188 273.40625 241.902344 C 272.359375 243.316406 271.277344 244.703125 270.164062 246.0625 C 269.046875 247.417969 267.902344 248.75 266.71875 250.054688 C 265.539062 251.355469 264.328125 252.628906 263.085938 253.871094 C 261.84375 255.117188 260.570312 256.328125 259.269531 257.507812 C 257.964844 258.6875 256.636719 259.835938 255.277344 260.953125 C 253.917969 262.066406 252.535156 263.148438 251.121094 264.195312 C 249.710938 265.242188 248.273438 266.253906 246.8125 267.230469 C 245.351562 268.210938 243.867188 269.148438 242.359375 270.054688 C 240.851562 270.957031 239.324219 271.824219 237.773438 272.652344 C 236.222656 273.480469 234.652344 274.269531 233.066406 275.023438 C 231.476562 275.773438 229.871094 276.488281 228.246094 277.160156 C 226.621094 277.832031 224.984375 278.464844 223.328125 279.058594 C 221.671875 279.648438 220.003906 280.203125 218.324219 280.710938 C 216.640625 281.222656 214.949219 281.691406 213.242188 282.117188 C 211.539062 282.546875 209.824219 282.929688 208.101562 283.273438 C 206.378906 283.617188 204.644531 283.917969 202.90625 284.175781 C 201.167969 284.433594 199.425781 284.648438 197.675781 284.820312 C 195.925781 284.992188 194.175781 285.121094 192.417969 285.207031 C 190.664062 285.292969 188.90625 285.335938 187.148438 285.335938 C 185.394531 285.335938 183.636719 285.292969 181.878906 285.207031 C 180.125 285.121094 178.375 284.992188 176.625 284.820312 C 174.875 284.648438 173.132812 284.433594 171.394531 284.175781 C 169.652344 283.917969 167.921875 283.617188 166.199219 283.273438 C 164.476562 282.929688 162.761719 282.546875 161.054688 282.117188 C 159.351562 281.691406 157.660156 281.222656 155.976562 280.710938 C 154.292969 280.203125 152.625 279.648438 150.972656 279.058594 C 149.316406 278.464844 147.675781 277.832031 146.054688 277.160156 C 144.429688 276.488281 142.824219 275.773438 141.234375 275.023438 C 139.644531 274.269531 138.078125 273.480469 136.527344 272.652344 C 134.976562 271.824219 133.449219 270.957031 131.941406 270.054688 C 130.433594 269.148438 128.949219 268.210938 127.488281 267.230469 C 126.027344 266.253906 124.589844 265.242188 123.179688 264.195312 C 121.765625 263.148438 120.382812 262.066406 119.023438 260.953125 C 117.664062 259.835938 116.335938 258.6875 115.03125 257.507812 C 113.730469 256.328125 112.457031 255.117188 111.214844 253.871094 C 109.972656 252.628906 108.761719 251.355469 107.578125 250.054688 C 106.398438 248.75 105.25 247.417969 104.136719 246.0625 C 103.023438 244.703125 101.941406 243.316406 100.894531 241.902344 C 99.847656 240.492188 98.835938 239.054688 97.859375 237.59375 C 96.882812 236.128906 95.941406 234.644531 95.039062 233.136719 C 94.136719 231.628906 93.269531 230.101562 92.441406 228.550781 C 91.613281 227 90.824219 225.429688 90.070312 223.839844 C 89.320312 222.25 88.609375 220.644531 87.933594 219.019531 C 87.261719 217.394531 86.628906 215.753906 86.039062 214.101562 C 85.445312 212.445312 84.894531 210.777344 84.386719 209.09375 C 83.875 207.410156 83.40625 205.71875 82.980469 204.011719 C 82.550781 202.304688 82.167969 200.589844 81.824219 198.867188 C 81.480469 197.140625 81.179688 195.410156 80.921875 193.671875 C 80.664062 191.933594 80.449219 190.1875 80.277344 188.4375 C 80.105469 186.6875 79.976562 184.933594 79.890625 183.179688 C 79.804688 181.421875 79.761719 179.667969 79.761719 177.90625 C 79.761719 176.148438 79.804688 174.394531 79.890625 172.636719 C 79.976562 170.878906 80.105469 169.128906 80.277344 167.378906 C 80.449219 165.628906 80.664062 163.882812 80.921875 162.144531 C 81.179688 160.40625 81.480469 158.675781 81.824219 156.949219 C 82.167969 155.226562 82.550781 153.511719 82.980469 151.804688 C 83.40625 150.097656 83.875 148.40625 84.386719 146.722656 C 84.894531 145.039062 85.445312 143.371094 86.039062 141.714844 C 86.628906 140.0625 87.261719 138.421875 87.933594 136.796875 C 88.609375 135.171875 89.320312 133.566406 90.070312 131.976562 C 90.824219 130.386719 91.613281 128.816406 92.441406 127.265625 C 93.269531 125.714844 94.136719 124.1875 95.039062 122.679688 C 95.941406 121.171875 96.882812 119.683594 97.859375 118.222656 C 98.835938 116.761719 99.847656 115.324219 100.894531 113.914062 C 101.941406 112.5 103.023438 111.113281 104.136719 109.753906 C 105.25 108.394531 106.398438 107.066406 107.578125 105.761719 C 108.761719 104.460938 109.972656 103.1875 111.214844 101.945312 C 112.457031 100.699219 113.730469 99.488281 115.03125 98.308594 C 116.335938 97.128906 117.664062 95.980469 119.023438 94.863281 C 120.382812 93.75 121.765625 92.667969 123.179688 91.621094 C 124.589844 90.574219 126.027344 89.558594 127.488281 88.582031 C 128.949219 87.605469 130.433594 86.667969 131.941406 85.761719 C 133.449219 84.859375 134.976562 83.992188 136.527344 83.164062 C 138.078125 82.335938 139.644531 81.542969 141.234375 80.792969 C 142.824219 80.042969 144.429688 79.328125 146.054688 78.65625 C 147.675781 77.984375 149.316406 77.351562 150.972656 76.757812 C 152.625 76.167969 154.292969 75.613281 155.976562 75.105469 C 157.660156 74.59375 159.351562 74.125 161.054688 73.699219 C 162.761719 73.269531 164.476562 72.886719 166.199219 72.542969 C 167.921875 72.199219 169.652344 71.898438 171.394531 71.640625 C 173.132812 71.382812 174.875 71.167969 176.625 70.996094 C 178.375 70.824219 180.125 70.695312 181.878906 70.609375 C 183.636719 70.523438 185.394531 70.480469 187.148438 70.480469 C 188.90625 70.480469 190.664062 70.523438 192.417969 70.609375 C 194.175781 70.695312 195.925781 70.824219 197.675781 70.996094 C 199.425781 71.167969 201.167969 71.382812 202.90625 71.640625 C 204.644531 71.898438 206.378906 72.199219 208.101562 72.542969 C 209.824219 72.886719 211.539062 73.269531 213.242188 73.699219 C 214.949219 74.125 216.640625 74.59375 218.324219 75.105469 C 220.003906 75.613281 221.671875 76.167969 223.328125 76.757812 C 224.984375 77.351562 226.621094 77.984375 228.246094 78.65625 C 229.871094 79.328125 231.476562 80.042969 233.066406 80.792969 C 234.652344 81.542969 236.222656 82.335938 237.773438 83.164062 C 239.324219 83.992188 240.851562 84.859375 242.359375 85.761719 C 243.867188 86.667969 245.351562 87.605469 246.8125 88.582031 C 248.273438 89.558594 249.710938 90.574219 251.121094 91.621094 C 252.535156 92.667969 253.917969 93.75 255.277344 94.863281 C 256.636719 95.980469 257.964844 97.128906 259.269531 98.308594 C 260.570312 99.488281 261.84375 100.699219 263.085938 101.945312 C 264.328125 103.1875 265.539062 104.460938 266.71875 105.761719 C 267.902344 107.066406 269.046875 108.394531 270.164062 109.753906 C 271.277344 111.113281 272.359375 112.5 273.40625 113.914062 C 274.453125 115.324219 275.464844 116.761719 276.441406 118.222656 C 277.417969 119.683594 278.359375 121.171875 279.261719 122.679688 C 280.164062 124.1875 281.03125 125.714844 281.859375 127.265625 C 282.6875 128.816406 283.476562 130.386719 284.230469 131.976562 C 284.980469 133.566406 285.691406 135.171875 286.363281 136.796875 C 287.039062 138.421875 287.667969 140.0625 288.261719 141.714844 C 288.855469 143.371094 289.40625 145.039062 289.914062 146.722656 C 290.425781 148.40625 290.894531 150.097656 291.320312 151.804688 C 291.75 153.511719 292.132812 155.226562 292.476562 156.949219 C 292.820312 158.675781 293.121094 160.40625 293.378906 162.144531 C 293.636719 163.882812 293.851562 165.628906 294.023438 167.378906 C 294.195312 169.128906 294.324219 170.878906 294.410156 172.636719 C 294.496094 174.394531 294.539062 176.148438 294.539062 177.90625 Z M 294.539062 177.90625 " fill-opacity="1" fill-rule="nonzero"/><path fill="#142766" d="M 271.382812 111.351562 C 264.203125 110.21875 256.84375 109.628906 249.34375 109.628906 C 172.023438 109.628906 109.34375 172.332031 109.34375 249.679688 C 109.34375 250.457031 109.351562 251.234375 109.363281 252.011719 C 90.875 232.714844 79.511719 206.527344 79.511719 177.683594 C 79.511719 118.351562 127.59375 70.253906 186.902344 70.253906 C 221.1875 70.253906 251.71875 86.328125 271.382812 111.351562 Z M 271.382812 111.351562 " fill-opacity="1" fill-rule="nonzero"/><path fill="#ffdd40" d="M 235.253906 182.042969 C 267.984375 175.773438 289.445312 144.179688 283.1875 111.46875 C 278.148438 85.125 256.664062 66.09375 231.394531 62.960938 C 230.835938 62.890625 230.78125 62.078125 231.335938 61.972656 C 270.71875 54.433594 308.75 80.222656 316.28125 119.578125 C 323.8125 158.933594 297.988281 196.953125 258.605469 204.492188 C 226.632812 210.613281 195.550781 194.769531 180.957031 167.53125 C 180.503906 166.683594 181.65625 165.886719 182.355469 166.550781 C 195.972656 179.457031 215.40625 185.84375 235.253906 182.042969 Z M 235.253906 182.042969 " fill-opacity="1" fill-rule="nonzero"/><path fill="#ffc839" d="M 234.671875 200.816406 C 282.195312 191.71875 313.328125 145.714844 304.210938 98.066406 C 303.539062 94.550781 302.667969 91.125 301.609375 87.800781 C 308.808594 96.769531 313.984375 107.582031 316.296875 119.671875 C 323.84375 159.109375 298.070312 197.183594 258.730469 204.714844 C 246.097656 207.136719 233.601562 206.109375 222.207031 202.296875 C 226.335938 202.105469 230.496094 201.617188 234.671875 200.816406 Z M 234.671875 200.816406 " fill-opacity="1" fill-rule="nonzero"/><path fill="#ffea89" d="M 279.5 147.683594 C 284.230469 136.890625 285.855469 124.609375 283.472656 112.160156 C 281.464844 101.65625 276.839844 92.308594 270.40625 84.671875 C 281.40625 82.835938 292.898438 95.082031 296.183594 112.238281 C 299.496094 129.558594 293.1875 145.320312 282.09375 147.445312 C 281.230469 147.609375 280.363281 147.6875 279.5 147.683594 Z M 279.5 147.683594 " fill-opacity="1" fill-rule="nonzero"/><path fill="#ffea89" d="M 254.195312 174.839844 C 248.503906 178.128906 242.175781 180.535156 235.355469 181.839844 C 223.359375 184.136719 211.515625 182.707031 201.015625 178.363281 C 204.347656 185.410156 214.148438 190.882812 226 191.554688 C 241.015625 192.402344 253.628906 185.226562 254.175781 175.527344 C 254.191406 175.296875 254.195312 175.066406 254.195312 174.839844 Z M 254.195312 174.839844 " fill-opacity="1" fill-rule="nonzero"/><g clip-path="url(#1807712857)"><path fill="#304894" d="M 144.539062 258.023438 C 128.628906 255 120.257812 271.238281 119.914062 280.941406 C 101.367188 293.859375 93.441406 294.253906 96.144531 296.605469 C 119.625 298.558594 123.453125 295.929688 134.28125 297.183594 C 140.375 297.894531 144.574219 305.683594 150.570312 305.027344 C 162.617188 303.707031 161.019531 292.152344 173.445312 296.53125 C 185.867188 300.910156 185.046875 297.453125 191.597656 295.550781 C 198.144531 293.648438 205.710938 300.773438 217.652344 300.167969 C 232.738281 299.402344 233.269531 287.914062 264.679688 292.382812 C 279.078125 294.433594 307.042969 290.949219 305.976562 289.792969 C 302.894531 286.457031 275.917969 288.710938 269.042969 278.019531 C 264.53125 271 264.109375 268.230469 255.890625 265.058594 C 248.523438 262.214844 228.574219 270.109375 227.484375 262.742188 C 226.390625 255.378906 223.199219 249.582031 214.335938 249.042969 C 208.21875 248.671875 208.628906 245.148438 204.421875 239.667969 C 201.789062 236.238281 200.902344 227.953125 188.601562 228.238281 C 176.300781 228.523438 178.03125 237.8125 164.492188 238.195312 C 147.652344 238.667969 154.363281 260.679688 144.539062 258.023438 Z M 144.539062 258.023438 " fill-opacity="1" fill-rule="nonzero"/></g><path fill="#2a428c" d="M 223.183594 252.492188 C 221.667969 252.945312 219.875 253.238281 217.683594 253.300781 C 208.316406 253.566406 206.238281 260.492188 204.542969 266.132812 C 203.195312 270.628906 202.089844 274.308594 197.730469 273.128906 C 181.820312 270.105469 173.453125 286.34375 173.105469 296.050781 C 173.019531 296.109375 172.933594 296.171875 172.84375 296.230469 C 173.0625 296.300781 173.28125 296.375 173.503906 296.453125 C 182.617188 299.664062 184.605469 298.660156 187.597656 297.148438 C 188.6875 296.597656 189.910156 295.980469 191.65625 295.472656 C 194.824219 294.554688 198.226562 295.742188 202.25 297.148438 C 206.546875 298.652344 211.542969 300.402344 217.710938 300.089844 C 223.222656 299.808594 226.792969 298.097656 230.632812 296.257812 C 237.308594 293.058594 244.804688 289.464844 264.742188 292.304688 C 279.140625 294.351562 307.105469 290.871094 306.035156 289.714844 C 304.945312 288.535156 300.855469 288.054688 295.722656 287.449219 C 286.367188 286.351562 273.542969 284.84375 269.105469 277.941406 C 268.351562 276.769531 267.710938 275.714844 267.132812 274.761719 C 264.234375 269.988281 262.800781 267.621094 255.953125 264.980469 C 252.890625 263.796875 247.660156 264.46875 242.511719 265.128906 C 235.265625 266.058594 228.179688 266.96875 227.542969 262.664062 C 226.9375 258.582031 225.6875 254.980469 223.183594 252.492188 Z M 223.183594 252.492188 " fill-opacity="1" fill-rule="nonzero"/><path fill="#425ea5" d="M 119.820312 280.734375 C 120.164062 271.03125 128.53125 254.792969 144.445312 257.816406 C 148.800781 258.992188 149.90625 255.316406 151.257812 250.816406 C 152.949219 245.179688 155.03125 238.25 164.394531 237.984375 C 171.320312 237.792969 174.25 235.269531 177.105469 232.808594 C 179.835938 230.460938 182.496094 228.171875 188.507812 228.03125 C 198.214844 227.804688 200.8125 232.917969 202.773438 236.769531 C 202.886719 236.996094 203 237.222656 203.113281 237.4375 C 200.511719 239.054688 197.179688 240.28125 192 240.425781 C 180.6875 240.746094 178.175781 249.113281 176.128906 255.925781 C 174.5 261.359375 173.164062 265.800781 167.902344 264.375 C 148.683594 260.726562 138.574219 280.339844 138.160156 292.058594 C 135.675781 293.789062 133.351562 295.332031 131.183594 296.714844 C 127.953125 296.519531 125.207031 296.667969 121.964844 296.839844 C 116.417969 297.136719 109.421875 297.511719 96.050781 296.398438 C 94.683594 295.207031 96.042969 294.515625 100.132812 292.445312 C 104.109375 290.429688 110.671875 287.105469 119.820312 280.734375 Z M 119.820312 280.734375 " fill-opacity="1" fill-rule="nonzero"/><path fill="#637dbe" d="M 139.332031 257.554688 C 126.742188 258.445312 120.125 272.191406 119.820312 280.796875 C 110.671875 287.167969 104.109375 290.492188 100.132812 292.507812 C 96.042969 294.582031 94.683594 295.269531 96.050781 296.460938 C 109.421875 297.574219 115.011719 292.441406 120.554688 292.144531 C 124.492188 291.933594 131.097656 289.050781 131.097656 285.253906 C 131.242188 281.859375 130.394531 279.347656 130.394531 276.394531 C 130.394531 265.628906 144.875 269.363281 139.332031 257.554688 Z M 139.332031 257.554688 " fill-opacity="1" fill-rule="nonzero"/><path fill="#425ea5" d="M 127.992188 200.804688 C 133.078125 197.339844 147.988281 197.957031 155.332031 197.164062 C 160.671875 196.785156 161.632812 196.65625 161.320312 195.511719 C 160.28125 191.714844 137.171875 191.476562 132.46875 187.710938 C 129.421875 185.269531 130.394531 181.910156 127.101562 177.898438 C 124.359375 174.558594 120.683594 175.460938 116.605469 175.296875 C 111.042969 175.078125 115.160156 169.484375 110.992188 165.109375 C 106.597656 160.5 103.292969 162.296875 99.429688 162.570312 C 95.566406 162.84375 97.230469 154.546875 85.304688 156.871094 C 73.398438 159.195312 81.5625 174.085938 67.929688 174.847656 C 54.296875 175.609375 57.785156 190.945312 53.835938 192.660156 C 49.886719 194.375 36.125 199.574219 39.902344 199.105469 C 53.34375 197.429688 48.382812 202.386719 55.234375 200.664062 C 62.253906 197.910156 62.234375 198.722656 68.515625 201.722656 C 76.363281 205.472656 75.273438 199.847656 90.152344 198.382812 C 95.097656 197.898438 93.992188 204.523438 102.265625 202.605469 C 119.855469 198.53125 116.992188 208.304688 127.992188 200.804688 Z M 127.992188 200.804688 " fill-opacity="1" fill-rule="nonzero"/><path fill="#304894" d="M 147.75 197.445312 C 140.378906 197.757812 131.582031 198.132812 127.914062 200.632812 C 122.269531 204.480469 120.277344 203.78125 117.296875 202.738281 C 114.46875 201.75 110.753906 200.449219 102.183594 202.433594 C 100.445312 202.835938 99.121094 202.863281 98.066406 202.65625 C 98.15625 202.273438 98.246094 201.878906 98.335938 201.472656 C 99.476562 196.375 101.015625 189.519531 110.015625 189.015625 C 117.132812 188.621094 118.3125 184.375 119.503906 180.074219 C 119.980469 178.363281 120.457031 176.640625 121.3125 175.152344 C 123.464844 175.261719 125.40625 175.757812 127.023438 177.726562 C 128.613281 179.664062 129.207031 181.453125 129.742188 183.054688 C 130.3125 184.769531 130.8125 186.277344 132.386719 187.535156 C 134.636719 189.335938 141.085938 190.332031 147.320312 191.292969 C 154.136719 192.34375 160.695312 193.355469 161.238281 195.335938 C 161.550781 196.480469 160.589844 196.613281 155.253906 196.992188 C 153.210938 197.210938 150.585938 197.324219 147.75 197.445312 Z M 147.75 197.445312 " fill-opacity="1" fill-rule="nonzero"/><path fill="#637dbe" d="M 94.238281 157.511719 C 92.914062 159.667969 92.210938 162.203125 91.511719 164.726562 C 89.84375 170.738281 88.195312 176.675781 78.25 177.230469 C 65.664062 177.929688 63.515625 187.519531 61.917969 194.640625 C 61.566406 196.21875 61.238281 197.675781 60.832031 198.886719 C 59.546875 199.050781 57.96875 199.574219 55.574219 200.515625 C 52.597656 201.261719 51.851562 200.75 50.855469 200.070312 C 49.5625 199.183594 47.847656 198.007812 40.242188 198.957031 C 37.421875 199.308594 44.386719 196.496094 49.738281 194.332031 C 51.550781 193.601562 53.179688 192.945312 54.175781 192.511719 C 55.519531 191.929688 56 189.773438 56.589844 187.152344 C 57.730469 182.058594 59.265625 175.199219 68.269531 174.699219 C 75.386719 174.300781 76.5625 170.054688 77.757812 165.753906 C 78.847656 161.816406 79.953125 157.832031 85.644531 156.722656 C 90.03125 155.867188 92.578125 156.449219 94.238281 157.511719 Z M 94.238281 157.511719 " fill-opacity="1" fill-rule="nonzero"/><path fill="#2a428c" d="M 251.007812 149.71875 C 244.433594 148.804688 241.28125 155.058594 241.308594 158.726562 C 233.925781 163.867188 230.683594 164.132812 231.835938 164.980469 C 241.496094 165.378906 243.019531 164.332031 247.480469 164.652344 C 249.992188 164.828125 251.828125 162.285156 254.277344 161.949219 C 259.195312 161.277344 257.941406 162.054688 263.113281 163.53125 C 268.28125 165.003906 270.339844 162.875 272.996094 162.0625 C 275.648438 161.25 275.761719 164.539062 280.648438 164.140625 C 286.820312 163.632812 287.914062 159.726562 300.871094 160.960938 C 306.808594 161.527344 318.214844 159.808594 317.757812 159.386719 C 316.4375 158.171875 305.414062 159.414062 302.410156 155.476562 C 300.4375 152.890625 300.21875 151.851562 296.792969 150.769531 C 293.722656 149.804688 285.679688 153.070312 285.101562 150.304688 C 284.527344 147.542969 283.117188 145.398438 279.472656 145.324219 C 276.960938 145.273438 277.066406 143.9375 275.246094 141.925781 C 274.109375 140.671875 273.601562 137.554688 268.5625 137.839844 C 263.523438 138.125 264.394531 141.605469 258.847656 141.945312 C 251.953125 142.367188 255.082031 150.578125 251.007812 149.71875 Z M 251.007812 149.71875 " fill-opacity="1" fill-rule="nonzero"/><path fill="#304894" d="M 282.953125 163.714844 C 284.105469 163.433594 285.109375 163.039062 286.167969 162.625 C 289.199219 161.433594 292.617188 160.089844 300.972656 160.886719 C 306.914062 161.453125 318.320312 159.738281 317.863281 159.316406 C 317.394531 158.886719 315.710938 158.761719 313.59375 158.609375 C 309.738281 158.328125 304.453125 157.945312 302.515625 155.402344 C 302.183594 154.972656 301.90625 154.582031 301.648438 154.230469 C 300.378906 152.46875 299.75 151.597656 296.898438 150.699219 C 295.621094 150.296875 293.488281 150.625 291.386719 150.949219 C 288.433594 151.40625 285.542969 151.851562 285.207031 150.234375 C 284.632812 147.46875 283.222656 145.328125 279.578125 145.25 C 277.804688 145.214844 277.335938 144.539062 276.574219 143.4375 C 276.253906 142.976562 275.886719 142.445312 275.351562 141.855469 C 275.113281 141.589844 274.902344 141.242188 274.667969 140.863281 C 273.796875 139.4375 272.644531 137.542969 268.667969 137.769531 C 266.203125 137.90625 265.152344 138.808594 264.074219 139.738281 C 262.945312 140.707031 261.789062 141.699219 258.953125 141.875 C 255.117188 142.109375 254.382812 144.753906 253.789062 146.90625 C 253.699219 147.21875 253.617188 147.519531 253.527344 147.800781 C 253.546875 147.832031 253.566406 147.863281 253.582031 147.890625 C 253.816406 148.273438 254.027344 148.621094 254.269531 148.886719 C 254.804688 149.476562 255.171875 150.007812 255.488281 150.464844 C 256.25 151.570312 256.71875 152.246094 258.496094 152.28125 C 262.140625 152.359375 263.546875 154.5 264.125 157.265625 C 264.460938 158.882812 267.347656 158.4375 270.304688 157.980469 C 272.402344 157.65625 274.539062 157.328125 275.8125 157.730469 C 278.667969 158.628906 279.296875 159.5 280.566406 161.261719 C 280.820312 161.613281 281.101562 162.003906 281.429688 162.433594 C 281.816406 162.941406 282.335938 163.363281 282.953125 163.714844 Z M 282.953125 163.714844 " fill-opacity="1" fill-rule="nonzero"/><path fill="#425ea5" d="M 299.066406 160.746094 C 299.625 160.78125 300.207031 160.828125 300.8125 160.886719 C 306.753906 161.453125 318.160156 159.738281 317.703125 159.316406 C 317.234375 158.886719 315.550781 158.761719 313.433594 158.609375 C 309.578125 158.328125 304.292969 157.945312 302.355469 155.402344 C 302.023438 154.972656 301.746094 154.582031 301.488281 154.230469 C 300.21875 152.46875 299.589844 151.597656 296.738281 150.699219 C 295.460938 150.296875 293.328125 150.625 291.226562 150.949219 C 288.273438 151.40625 285.382812 151.851562 285.046875 150.234375 C 284.472656 147.46875 283.0625 145.328125 279.417969 145.25 C 277.644531 145.214844 277.175781 144.539062 276.414062 143.4375 C 276.09375 142.976562 275.726562 142.445312 275.191406 141.855469 C 274.953125 141.589844 274.738281 141.242188 274.507812 140.863281 C 273.636719 139.4375 272.484375 137.542969 268.507812 137.769531 C 266.042969 137.90625 264.992188 138.808594 263.914062 139.738281 C 263.34375 140.226562 262.761719 140.726562 261.960938 141.121094 C 263.820312 141.898438 264.675781 143.300781 265.382812 144.460938 C 265.675781 144.941406 265.945312 145.382812 266.25 145.71875 C 266.925781 146.464844 267.390625 147.136719 267.792969 147.71875 C 268.757812 149.113281 269.351562 149.96875 271.597656 150.015625 C 276.207031 150.113281 277.992188 152.820312 278.71875 156.320312 C 279.144531 158.363281 282.800781 157.800781 286.539062 157.226562 C 289.195312 156.816406 291.894531 156.398438 293.507812 156.90625 C 296.761719 157.933594 297.730469 158.929688 299.066406 160.746094 Z M 299.066406 160.746094 " fill-opacity="1" fill-rule="nonzero"/><path fill="#ffc839" d="M 189.554688 94.867188 C 189.949219 93.328125 191.789062 92.804688 192.9375 93.898438 L 199.453125 100.113281 C 199.859375 100.503906 200.398438 100.714844 200.949219 100.695312 L 209.71875 100.378906 C 211.265625 100.320312 212.351562 101.976562 211.71875 103.421875 L 208.128906 111.625 C 207.90625 112.140625 207.890625 112.730469 208.089844 113.265625 L 211.253906 121.789062 C 211.8125 123.292969 210.644531 124.839844 209.105469 124.636719 L 200.375 123.492188 C 199.824219 123.417969 199.277344 123.574219 198.847656 123.925781 L 192.035156 129.511719 C 190.835938 130.492188 189.027344 129.796875 188.707031 128.226562 L 186.902344 119.316406 C 186.789062 118.753906 186.464844 118.261719 186 117.941406 L 178.625 112.871094 C 177.324219 111.976562 177.375 109.996094 178.714844 109.226562 L 186.332031 104.867188 C 186.808594 104.59375 187.160156 104.132812 187.300781 103.582031 Z M 189.554688 94.867188 " fill-opacity="1" fill-rule="nonzero"/><path fill="#ffb332" d="M 192.671875 123.695312 C 202.382812 120.925781 207.988281 110.734375 205.191406 100.933594 C 205.144531 100.765625 205.09375 100.597656 205.039062 100.429688 L 209.679688 100.253906 C 211.230469 100.195312 212.316406 101.84375 211.679688 103.285156 L 208.066406 111.460938 C 207.839844 111.972656 207.824219 112.5625 208.023438 113.09375 L 211.179688 121.578125 C 211.734375 123.070312 210.5625 124.617188 209.019531 124.417969 L 200.273438 123.292969 C 199.722656 123.222656 199.171875 123.378906 198.742188 123.726562 L 191.90625 129.300781 C 190.703125 130.285156 188.890625 129.59375 188.574219 128.027344 L 187.839844 124.394531 C 189.4375 124.382812 191.0625 124.15625 192.671875 123.695312 Z M 192.671875 123.695312 " fill-opacity="1" fill-rule="nonzero"/><path fill="#ffdd40" d="M 187.257812 108.453125 C 192.222656 107.035156 195.089844 101.828125 193.660156 96.824219 C 193.28125 95.492188 192.632812 94.308594 191.796875 93.316406 C 190.839844 93.210938 189.863281 93.792969 189.585938 94.859375 L 187.289062 103.605469 C 187.144531 104.15625 186.792969 104.621094 186.308594 104.898438 L 180.886719 107.988281 C 182.824219 108.859375 185.0625 109.078125 187.257812 108.453125 Z M 187.257812 108.453125 " fill-opacity="1" fill-rule="nonzero"/><path fill="#ffdd40" d="M 146.652344 121.398438 C 147.214844 120.675781 148.425781 120.761719 148.875 121.558594 L 151.441406 126.085938 C 151.601562 126.367188 151.878906 126.582031 152.210938 126.683594 L 157.507812 128.242188 C 158.441406 128.519531 158.738281 129.597656 158.050781 130.226562 L 154.171875 133.796875 C 153.925781 134.019531 153.792969 134.328125 153.796875 134.644531 L 153.875 139.714844 C 153.890625 140.605469 152.863281 141.183594 151.988281 140.777344 L 147.027344 138.457031 C 146.714844 138.3125 146.355469 138.285156 146.023438 138.386719 L 140.777344 139.957031 C 139.851562 140.234375 138.921875 139.511719 139.066406 138.628906 L 139.878906 133.625 C 139.933594 133.3125 139.84375 132.992188 139.632812 132.734375 L 136.3125 128.636719 C 135.726562 127.914062 136.179688 126.890625 137.140625 126.753906 L 142.609375 125.980469 C 142.953125 125.929688 143.257812 125.757812 143.457031 125.5 Z M 146.652344 121.398438 " fill-opacity="1" fill-rule="nonzero"/><path fill="#ffc839" d="M 153.75 135.070312 C 151.515625 136.394531 148.867188 137.070312 146.082031 136.867188 C 143.800781 136.703125 141.695312 135.964844 139.902344 134.804688 L 139.246094 138.878906 C 139.105469 139.769531 140.019531 140.492188 140.929688 140.210938 L 146.09375 138.617188 C 146.417969 138.515625 146.773438 138.542969 147.078125 138.691406 L 151.957031 141.019531 C 152.816406 141.429688 153.828125 140.84375 153.816406 139.941406 Z M 153.75 135.070312 " fill-opacity="1" fill-rule="nonzero"/><path fill="#ffdd40" d="M 152.074219 56.890625 C 152.84375 55.910156 154.480469 56.039062 155.089844 57.121094 L 158.546875 63.273438 C 158.765625 63.65625 159.140625 63.949219 159.589844 64.085938 L 166.765625 66.230469 C 168.03125 66.609375 168.429688 68.070312 167.496094 68.921875 L 162.214844 73.746094 C 161.882812 74.050781 161.699219 74.464844 161.703125 74.894531 L 161.785156 81.773438 C 161.800781 82.984375 160.40625 83.761719 159.222656 83.203125 L 152.5 80.035156 C 152.078125 79.839844 151.589844 79.800781 151.140625 79.933594 L 144.015625 82.039062 C 142.761719 82.410156 141.5 81.425781 141.699219 80.230469 L 142.828125 73.449219 C 142.902344 73.023438 142.78125 72.585938 142.5 72.234375 L 138.015625 66.660156 C 137.222656 65.675781 137.839844 64.292969 139.148438 64.113281 L 146.566406 63.085938 C 147.03125 63.023438 147.449219 62.789062 147.722656 62.441406 Z M 152.074219 56.890625 " fill-opacity="1" fill-rule="nonzero"/><path fill="#ffc839" d="M 161.636719 75.472656 C 158.601562 77.257812 155.003906 78.164062 151.226562 77.875 C 148.132812 77.636719 145.28125 76.625 142.851562 75.046875 L 141.945312 80.570312 C 141.746094 81.777344 142.984375 82.765625 144.21875 82.386719 L 151.234375 80.25 C 151.675781 80.113281 152.15625 80.152344 152.570312 80.351562 L 159.175781 83.535156 C 160.34375 84.097656 161.714844 83.308594 161.703125 82.085938 Z M 161.636719 75.472656 " fill-opacity="1" fill-rule="nonzero"/></svg>