<svg xmlns="http://www.w3.org/2000/svg" xmlns:xlink="http://www.w3.org/1999/xlink" width="480" zoomAndPan="magnify" viewBox="0 0 360 359.999987" height="480" preserveAspectRatio="xMidYMid meet" version="1.0"><rect x="-36" width="432" fill="#ffffff" y="-35.999999" height="431.999984" fill-opacity="1"/><rect x="-36" width="432" fill="#ffffff" y="-35.999999" height="431.999984" fill-opacity="1"/><path fill="#067206" d="M 278.226562 210.679688 C 276.980469 210.625 275.886719 209.808594 275.503906 208.621094 C 274.625 205.867188 271.316406 199.882812 265.957031 197.023438 C 258.273438 192.917969 258.273438 192.917969 258.273438 192.917969 C 258.273438 192.917969 269.617188 193.246094 275.929688 203.464844 C 275.929688 203.464844 274.269531 196.105469 270.292969 190.46875 C 266.316406 184.835938 266.316406 184.835938 266.316406 184.835938 C 266.316406 184.835938 277.4375 193.988281 278.664062 201.753906 C 278.664062 201.753906 280.796875 197.632812 280.023438 192.550781 C 279.25 187.46875 279.25 187.472656 279.25 187.472656 C 279.25 187.472656 282.046875 194.457031 281.03125 202.128906 L 283.203125 190.15625 L 283.410156 202.226562 L 284.746094 197.023438 L 285.917969 202.609375 L 289.183594 191.382812 L 287.578125 203.097656 C 287.578125 203.097656 288.085938 197.648438 292.472656 196.566406 C 292.472656 196.566406 288.8125 200.34375 290.0625 204.039062 C 290.0625 204.039062 291.289062 194.695312 302.460938 192.347656 C 302.460938 192.347656 290.726562 201.539062 291.582031 204.660156 C 291.582031 204.660156 296.003906 199.375 302.90625 198.535156 C 309.8125 197.699219 309.8125 197.699219 309.8125 197.699219 C 309.8125 197.699219 294.863281 202.222656 290.960938 211.640625 C 290.472656 212.820312 289.324219 213.589844 288.050781 213.535156 Z M 278.226562 210.679688 " fill-opacity="1" fill-rule="nonzero"/><path fill="#067206" d="M 220.773438 123.671875 C 219.527344 123.617188 218.433594 122.800781 218.054688 121.613281 C 217.171875 118.859375 213.867188 112.875 208.503906 110.011719 C 200.824219 105.910156 200.824219 105.910156 200.824219 105.910156 C 200.824219 105.910156 212.167969 106.238281 218.476562 116.457031 C 218.476562 116.457031 216.816406 109.097656 212.84375 103.460938 C 208.867188 97.828125 208.867188 97.828125 208.867188 97.828125 C 208.867188 97.828125 219.988281 106.980469 221.210938 114.746094 C 221.210938 114.746094 223.347656 110.625 222.574219 105.542969 C 221.800781 100.460938 221.800781 100.464844 221.800781 100.464844 C 221.800781 100.464844 224.59375 107.449219 223.578125 115.121094 L 225.753906 103.148438 L 225.957031 115.21875 L 227.292969 110.011719 L 228.46875 115.601562 L 231.734375 104.375 L 230.132812 116.089844 C 230.132812 116.089844 230.636719 110.644531 235.027344 109.5625 C 235.027344 109.5625 231.367188 113.339844 232.613281 117.035156 C 232.613281 117.035156 233.839844 107.691406 245.011719 105.34375 C 245.011719 105.34375 233.277344 114.535156 234.132812 117.65625 C 234.132812 117.65625 238.558594 112.371094 245.460938 111.53125 C 252.363281 110.695312 252.363281 110.695312 252.363281 110.695312 C 252.363281 110.695312 237.417969 115.214844 233.511719 124.636719 C 233.023438 125.816406 231.875 126.582031 230.605469 126.53125 Z M 220.773438 123.671875 " fill-opacity="1" fill-rule="nonzero"/><path fill="#69b9f9" d="M 262.308594 66.625 C 262.308594 66.625 129.292969 90.589844 112.902344 114.550781 C 96.511719 138.511719 165.855469 145.449219 177.835938 151.753906 C 189.8125 158.058594 35.996094 211.660156 47.339844 241.296875 C 58.6875 270.933594 222.191406 325.136719 245.289062 319.488281 C 273.65625 312.550781 320.304688 241.925781 307.695312 224.902344 C 295.089844 207.875 213.765625 205.445312 203.679688 194.996094 C 193.59375 184.542969 287.523438 151.332031 283.113281 138.933594 C 278.699219 126.53125 180.769531 124.007812 178.042969 113.917969 C 175.3125 103.832031 271.132812 66.625 271.132812 66.625 Z M 262.308594 66.625 " fill-opacity="1" fill-rule="nonzero"/><path fill="#595959" d="M 107.234375 167.519531 C 107.234375 167.519531 90.632812 176.558594 85.796875 183.28125 C 80.964844 190.007812 83.066406 191.691406 83.066406 191.691406 L 80.753906 200.308594 C 80.753906 200.308594 79.914062 205.984375 85.378906 207.457031 C 90.84375 208.925781 111.644531 208.296875 118.160156 207.457031 C 124.671875 206.613281 144.636719 197.996094 140.433594 190.007812 C 136.230469 182.023438 127.195312 174.875 125.515625 174.453125 C 123.832031 174.035156 117.109375 165.417969 113.535156 165.835938 C 109.964844 166.257812 107.234375 167.519531 107.234375 167.519531 Z M 107.234375 167.519531 " fill-opacity="1" fill-rule="nonzero"/><path fill="#595959" d="M 248.902344 106.484375 C 248.902344 106.484375 231.550781 110.03125 226.070312 113.824219 C 220.589844 117.621094 222.484375 119.082031 222.484375 119.082031 L 219.296875 124.542969 C 219.296875 124.542969 217.867188 128.246094 223.113281 130.078125 C 228.355469 131.910156 248.980469 134.6875 255.503906 135.125 C 262.023438 135.5625 282.660156 132.816406 279.34375 126.777344 C 276.03125 120.734375 267.851562 114.519531 266.238281 113.976562 C 264.621094 113.433594 258.882812 106.582031 255.308594 106.316406 C 251.734375 106.050781 248.902344 106.484375 248.902344 106.484375 Z M 248.902344 106.484375 " fill-opacity="1" fill-rule="nonzero"/><path fill="#c8e7fc" d="M 90.945312 209.558594 C 90.945312 209.558594 109.859375 211.113281 119.210938 208.335938 C 128.5625 205.5625 128.5625 205.5625 128.5625 205.5625 C 128.5625 205.5625 111.855469 213.550781 90.945312 209.558594 Z M 90.945312 209.558594 " fill-opacity="1" fill-rule="nonzero"/><path fill="#c8e7fc" d="M 124.464844 208.121094 C 124.464844 208.121094 140.117188 202.09375 141.589844 196.523438 C 141.589844 196.523438 142.007812 202.375 124.464844 208.121094 Z M 124.464844 208.121094 " fill-opacity="1" fill-rule="nonzero"/><path fill="#c8e7fc" d="M 218.289062 124.847656 C 218.289062 124.847656 216.238281 127.582031 218.550781 129.261719 C 220.863281 130.945312 233.050781 134.097656 238.355469 134.308594 C 238.355469 134.308594 216.503906 132.152344 217.078125 127.632812 C 217.078125 127.632812 217.078125 126.214844 218.289062 124.847656 Z M 218.289062 124.847656 " fill-opacity="1" fill-rule="nonzero"/><path fill="#c8e7fc" d="M 232.472656 134.78125 C 232.472656 134.78125 259.421875 138.773438 271.03125 134.308594 C 271.03125 134.308594 257.792969 139.195312 232.472656 134.78125 Z M 232.472656 134.78125 " fill-opacity="1" fill-rule="nonzero"/><path fill="#c8e7fc" d="M 199.0625 82.460938 C 199.0625 82.460938 144.144531 95.492188 138.121094 103.339844 C 138.121094 103.339844 158.015625 92.550781 199.0625 82.460938 Z M 199.0625 82.460938 " fill-opacity="1" fill-rule="nonzero"/><path fill="#c8e7fc" d="M 126.636719 109.503906 C 126.636719 109.503906 97.214844 123.519531 138.121094 137.25 C 138.121094 137.25 100.296875 124.78125 126.636719 109.503906 Z M 126.636719 109.503906 " fill-opacity="1" fill-rule="nonzero"/><path fill="#c8e7fc" d="M 273.53125 214.507812 C 273.53125 214.507812 323.996094 218.46875 298.082031 257.28125 C 298.082031 257.28125 323.785156 222.460938 273.53125 214.507812 Z M 273.53125 214.507812 " fill-opacity="1" fill-rule="nonzero"/><path fill="#c8e7fc" d="M 96.691406 271.214844 C 96.691406 271.214844 96.691406 271.214844 67.691406 253.277344 C 38.695312 235.339844 75.398438 215.023438 75.398438 215.023438 C 75.398438 215.023438 56.949219 226.460938 59.707031 239.40625 C 62.460938 252.347656 86.605469 260.5625 96.691406 271.214844 Z M 96.691406 271.214844 " fill-opacity="1" fill-rule="nonzero"/><path fill="#067206" d="M 114.570312 108.289062 C 113.324219 108.238281 112.230469 107.421875 111.847656 106.234375 C 110.96875 103.480469 109.738281 90.003906 104.375 87.144531 C 96.695312 83.042969 96.695312 83.042969 96.695312 83.042969 C 96.695312 83.042969 108.039062 83.367188 114.347656 93.585938 C 114.347656 93.585938 112.6875 86.226562 108.710938 80.59375 C 104.738281 74.957031 104.738281 74.957031 104.738281 74.957031 C 104.738281 74.957031 115.855469 84.109375 117.082031 91.875 C 117.082031 91.875 119.214844 87.757812 118.441406 82.671875 C 117.667969 77.59375 117.667969 77.59375 117.667969 77.59375 C 117.667969 77.59375 120.464844 84.578125 119.449219 92.25 L 121.625 80.28125 L 121.828125 92.347656 L 123.164062 87.144531 L 124.339844 92.730469 L 127.605469 81.503906 L 126 93.222656 C 126 93.222656 126.507812 87.773438 130.894531 86.691406 C 130.894531 86.691406 127.234375 90.46875 128.484375 94.164062 C 128.484375 94.164062 129.710938 84.820312 140.882812 82.472656 C 140.882812 82.472656 129.148438 91.664062 130.003906 94.785156 C 130.003906 94.785156 134.425781 89.5 141.328125 88.660156 C 148.234375 87.824219 148.234375 87.824219 148.234375 87.824219 C 148.234375 87.824219 135.730469 89.035156 131.828125 98.457031 C 131.34375 99.636719 130.195312 100.40625 128.921875 100.351562 Z M 114.570312 108.289062 " fill-opacity="1" fill-rule="nonzero"/><path fill="#067206" d="M 230.746094 74.347656 C 230.746094 74.347656 221.007812 74.136719 219.328125 70.667969 C 217.644531 67.199219 213.863281 65.601562 211.65625 64.824219 C 209.449219 64.046875 213.757812 61.632812 215.441406 59.527344 C 217.121094 57.425781 203.988281 56.691406 203.042969 53.644531 C 202.097656 50.597656 207.980469 49.335938 208.503906 47.023438 C 209.03125 44.710938 205.984375 49.507812 209.136719 43.273438 C 212.289062 37.039062 218.589844 41.558594 220.589844 39.664062 C 222.585938 37.773438 226.367188 37.144531 228.046875 37.457031 C 229.730469 37.773438 232.144531 34.9375 236.769531 36.933594 C 241.390625 38.929688 240.972656 42.714844 245.070312 41.558594 C 249.167969 40.402344 255.363281 42.152344 255.363281 43.273438 C 255.363281 44.394531 251.265625 46.496094 253.367188 48.597656 C 255.46875 50.699219 247.484375 52.699219 247.273438 55.851562 C 247.066406 59.003906 247.695312 60.265625 250.007812 61.316406 C 252.316406 62.367188 249.902344 64.992188 247.273438 66.675781 C 244.648438 68.355469 246.015625 71.40625 243.386719 71.929688 C 240.761719 72.457031 239.113281 74.453125 230.746094 74.347656 Z M 230.746094 74.347656 " fill-opacity="1" fill-rule="nonzero"/><path fill="#5b3400" d="M 219.257812 98.894531 C 219.257812 98.894531 230.042969 101.046875 230.113281 85.035156 C 230.195312 66.539062 228.851562 66.679688 224.859375 63.316406 C 220.867188 59.953125 217.507812 50.003906 217.507812 50.003906 C 217.507812 50.003906 222.550781 59.53125 226.332031 62.753906 C 230.113281 65.976562 230.953125 66.398438 231.515625 68.359375 C 231.515625 68.359375 231.515625 65.835938 229.832031 61.214844 C 228.152344 56.589844 229.972656 50.84375 229.972656 50.84375 C 229.972656 50.84375 224.230469 47.761719 222.828125 45.519531 C 221.429688 43.277344 221.429688 43.277344 221.429688 43.277344 C 221.429688 43.277344 227.171875 49.722656 231.515625 50.144531 C 231.515625 50.144531 230.113281 54.207031 230.535156 55.328125 C 230.953125 56.449219 230.953125 56.449219 230.953125 56.449219 C 230.953125 56.449219 234.316406 55.046875 235.578125 52.664062 C 236.839844 50.285156 236.839844 50.285156 236.839844 50.285156 C 236.839844 50.285156 237.539062 55.046875 231.933594 57.148438 L 230.675781 57.992188 C 230.675781 57.992188 234.035156 66.957031 233.757812 68.921875 C 233.757812 68.921875 236.699219 66.820312 237.539062 64.296875 C 238.378906 61.773438 238.378906 61.773438 238.378906 61.773438 C 238.378906 61.773438 234.300781 59.53125 234.449219 58.691406 C 234.597656 57.851562 234.597656 57.851562 234.597656 57.851562 C 234.597656 57.851562 236.417969 59.953125 238.378906 60.511719 C 238.378906 60.511719 241.179688 59.8125 242.582031 57.570312 C 243.984375 55.328125 243.984375 55.328125 243.984375 55.328125 C 243.984375 55.328125 244.121094 57.992188 240.339844 61.074219 C 240.339844 61.074219 238.800781 66.820312 236.417969 68.921875 C 234.035156 71.023438 233.492188 92.332031 234.097656 93.292969 C 235.875 96.09375 235.789062 98.894531 242.230469 98.894531 Z M 219.257812 98.894531 " fill-opacity="1" fill-rule="nonzero"/><path fill="#5b3400" d="M 235.085938 72.5625 C 242.089844 69.546875 242.023438 68.425781 242.023438 68.425781 C 244.121094 64.363281 247.273438 62.613281 247.273438 62.613281 C 247.273438 62.613281 247.273438 62.613281 246.085938 62.890625 C 244.894531 63.171875 242.511719 66.324219 241.460938 68.007812 C 240.410156 69.6875 235.085938 70.808594 235.085938 70.808594 Z M 235.085938 72.5625 " fill-opacity="1" fill-rule="nonzero"/><path fill="#5b3400" d="M 226.625 64.796875 C 226.625 64.796875 222.6875 66.113281 220.167969 65.132812 C 217.644531 64.152344 217.644531 64.152344 217.644531 64.152344 C 217.644531 64.152344 221.871094 65.695312 226.625 64.152344 Z M 226.625 64.796875 " fill-opacity="1" fill-rule="nonzero"/><path fill="#067206" d="M 134.621094 146.421875 C 134.621094 146.421875 124.882812 146.210938 123.203125 142.742188 C 121.523438 139.273438 117.738281 137.675781 115.53125 136.898438 C 113.328125 136.121094 117.632812 133.703125 119.316406 131.601562 C 120.996094 129.5 107.863281 128.765625 106.917969 125.714844 C 105.972656 122.667969 111.855469 121.40625 112.378906 119.09375 C 112.90625 116.785156 109.859375 121.582031 113.011719 115.347656 C 116.164062 109.109375 122.46875 113.628906 124.464844 111.738281 C 126.460938 109.847656 130.242188 109.214844 131.921875 109.53125 C 133.605469 109.847656 136.019531 107.007812 140.644531 109.007812 C 145.265625 111.003906 144.847656 114.785156 148.945312 113.628906 C 153.042969 112.472656 159.242188 114.226562 159.242188 115.347656 C 159.242188 116.46875 155.144531 118.570312 157.246094 120.671875 C 159.34375 122.773438 151.359375 124.769531 151.148438 127.921875 C 150.941406 131.078125 151.570312 132.335938 153.882812 133.386719 C 156.195312 134.441406 153.777344 137.066406 151.148438 138.75 C 148.523438 140.429688 149.890625 143.476562 147.261719 144.003906 C 144.636719 144.527344 142.988281 146.527344 134.621094 146.421875 Z M 134.621094 146.421875 " fill-opacity="1" fill-rule="nonzero"/><path fill="#5b3400" d="M 123.132812 170.96875 C 123.132812 170.96875 133.917969 173.117188 133.988281 157.109375 C 134.070312 138.609375 132.730469 138.75 128.734375 135.386719 C 124.742188 132.023438 121.382812 122.074219 121.382812 122.074219 C 121.382812 122.074219 126.425781 131.605469 130.207031 134.828125 C 133.988281 138.050781 134.828125 138.472656 135.390625 140.433594 C 135.390625 140.433594 135.390625 137.910156 133.710938 133.285156 C 132.027344 128.660156 133.847656 122.917969 133.847656 122.917969 C 133.847656 122.917969 128.105469 119.832031 126.703125 117.59375 C 125.304688 115.351562 125.304688 115.351562 125.304688 115.351562 C 125.304688 115.351562 131.046875 121.796875 135.390625 122.214844 C 135.390625 122.214844 133.988281 126.28125 134.410156 127.402344 C 134.828125 128.523438 134.828125 128.523438 134.828125 128.523438 C 134.828125 128.523438 138.191406 127.121094 139.453125 124.738281 C 140.714844 122.355469 140.714844 122.355469 140.714844 122.355469 C 140.714844 122.355469 141.414062 127.121094 135.8125 129.222656 L 134.550781 130.0625 C 134.550781 130.0625 137.910156 139.03125 137.632812 140.992188 C 137.632812 140.992188 140.574219 138.890625 141.414062 136.371094 C 142.253906 133.847656 142.253906 133.847656 142.253906 133.847656 C 142.253906 133.847656 138.175781 131.605469 138.324219 130.765625 C 138.472656 129.921875 138.472656 129.921875 138.472656 129.921875 C 138.472656 129.921875 140.292969 132.023438 142.253906 132.585938 C 142.253906 132.585938 145.054688 131.886719 146.457031 129.644531 C 147.859375 127.402344 147.859375 127.402344 147.859375 127.402344 C 147.859375 127.402344 148 130.0625 144.214844 133.144531 C 144.214844 133.144531 142.675781 138.890625 140.292969 140.992188 C 137.910156 143.09375 137.367188 164.40625 137.972656 165.363281 C 139.75 168.167969 139.664062 170.96875 146.105469 170.96875 Z M 123.132812 170.96875 " fill-opacity="1" fill-rule="nonzero"/><path fill="#5b3400" d="M 138.960938 144.632812 C 145.96875 141.621094 145.898438 140.5 145.898438 140.5 C 148 136.4375 151.148438 134.683594 151.148438 134.683594 C 151.148438 134.683594 151.148438 134.683594 149.960938 134.964844 C 148.769531 135.246094 146.386719 138.398438 145.335938 140.078125 C 144.285156 141.761719 138.960938 142.882812 138.960938 142.882812 Z M 138.960938 144.632812 " fill-opacity="1" fill-rule="nonzero"/><path fill="#5b3400" d="M 130.5 136.867188 C 130.5 136.867188 126.566406 138.1875 124.042969 137.207031 C 121.523438 136.226562 121.523438 136.226562 121.523438 136.226562 C 121.523438 136.226562 125.746094 137.765625 130.5 136.226562 Z M 130.5 136.867188 " fill-opacity="1" fill-rule="nonzero"/></svg>